<?xml version="1.0" standalone="no"?>
<!DOCTYPE svg PUBLIC "-//W3C//DTD SVG 1.1//EN" "http://www.w3.org/Graphics/SVG/1.1/DTD/svg11.dtd" >
<svg xmlns="http://www.w3.org/2000/svg" xmlns:xlink="http://www.w3.org/1999/xlink" version="1.1">
<metadata>
Created by FontForge 20200427 at Tue Oct 29 18:37:54 2019
 By www
Copyright (c) 2019 by Charlotte Rohde. All rights reserved.
</metadata>
<defs>
<font id="SerifbabeAlpha-Regular" horiz-adv-x="602" >
  <font-face 
    font-family="Serifbabe Alpha"
    font-weight="400"
    font-stretch="normal"
    units-per-em="1000"
    panose-1="0 0 5 0 0 0 0 0 0 0"
    ascent="800"
    descent="-200"
    x-height="515"
    cap-height="700"
    bbox="-700 -400 1208 1198"
    underline-thickness="50"
    underline-position="-100"
    unicode-range="U+0020-2122"
  />
<missing-glyph horiz-adv-x="500" 
d="M410 800v-1000h-317v1000h317zM333 733h-165v-33h65v-37h-66v-33h166v33h-66v37h66v33zM267 604h-100v-104h166v34h-66v70zM233 570v-36h-33v36h33zM333 473h-166v-33h66v-37h-66v-33h100v70h66v33zM333 413h-33v-66h-133v-34h166v100zM333 291h-100v-56h34v23h33v-47
h-100v80h-33v-113h166v113zM333 118h-166v-113h166v113zM300 85v-47h-100v47h100zM333 -18h-166v-33h70l-70 -47v-33h166v33h-102l70 47h32v33z" />
    <glyph glyph-name="f_t.liga" unicode="ft" horiz-adv-x="623" 
d="M595 99l9 -10l-141 -109q-36 2 -52.5 22.5t-16.5 64.5l1 366h-206v-364q0 -35 20 -47t76 -12v-10h-266v10q92 0 92 59v364h-75v12h75v116q0 95 50 135.5t142 40.5q56 0 101 -16t65 -41v-235h107v-12h-107v-347q0 -30 21 -39t47 10zM322 445q69 0 96 25t34 98
q-7 53 -21.5 87t-35.5 48t-38.5 18t-43.5 4q-74 0 -99 -38t-25 -122v-120h133z" />
    <glyph glyph-name=".notdef" horiz-adv-x="500" 
d="M410 800v-1000h-317v1000h317zM333 733h-165v-33h65v-37h-66v-33h166v33h-66v37h66v33zM267 604h-100v-104h166v34h-66v70zM233 570v-36h-33v36h33zM333 473h-166v-33h66v-37h-66v-33h100v70h66v33zM333 413h-33v-66h-133v-34h166v100zM333 291h-100v-56h34v23h33v-47
h-100v80h-33v-113h166v113zM333 118h-166v-113h166v113zM300 85v-47h-100v47h100zM333 -18h-166v-33h70l-70 -47v-33h166v33h-102l70 47h32v33z" />
    <glyph glyph-name=".null" horiz-adv-x="0" 
 />
    <glyph glyph-name="nonmarkingreturn" horiz-adv-x="333" 
 />
    <glyph glyph-name="space" unicode=" " horiz-adv-x="300" 
 />
    <glyph glyph-name="exclam" unicode="!" horiz-adv-x="292" 
d="M177 143q-2 56 -4.5 124t-3.5 103t-3.5 77.5t-4.5 63.5t-5.5 43.5t-8 35.5t-11.5 23q-25 0 -102 -58l-8 9l192 151h25q-2 -14 -9 -60.5t-10.5 -79t-9.5 -93.5t-11 -145.5t-10 -193.5h-16zM186 -9q-23 0 -39.5 15t-16.5 36t16.5 36t39.5 15t39.5 -15t16.5 -36t-16.5 -36
t-39.5 -15z" />
    <glyph glyph-name="quotedbl" unicode="&#x22;" horiz-adv-x="382" 
d="M185 664q12 -50 -19 -100q-15 -23 -49 -46.5t-66 -33.5l-1 3q47 21 67 59q10 20 7 38t-18 27q-37 22 -37 54q0 21 16.5 36t39.5 15q22 0 38.5 -14.5t21.5 -37.5zM335 664q12 -50 -19 -100q-15 -23 -49 -46.5t-66 -33.5l-1 3q47 21 67 59q10 20 7 38t-18 27q-37 22 -37 54
q0 21 16.5 36t39.5 15q22 0 38.5 -14.5t21.5 -37.5z" />
    <glyph glyph-name="numbersign" unicode="#" horiz-adv-x="574" 
d="M554 419h-110l-60 -180h130v-20h-136l-66 -200l-22 7l63 193h-205l-66 -200l-22 7l63 193h-98v20h105l59 180h-124v20h131l62 189l22 -7l-60 -182h206l62 189l22 -7l-60 -182h104v-20zM360 239l59 180h-205l-60 -180h206z" />
    <glyph glyph-name="dollar" unicode="$" horiz-adv-x="608" 
d="M563 174q0 -92 -67 -140.5t-166 -49.5v-126h-22v126q-5 0 -14 0.5t-14 1.5v-128h-22v130q-51 7 -96 24t-117 52l32 237l12 -2q-20 -132 28 -204t141 -91v345l-55 19q-139 48 -139 171q0 152 194 160v96h22v-96q19 0 28 -1v97h22v-99q33 -4 61.5 -12t67.5 -23.5t47 -18.5
l-10 -212h-13q11 229 -153 252v-269l81 -26q70 -22 111 -77.5t41 -135.5zM290 685h-10v-256l28 -9v264q-6 1 -18 1zM140 564q0 -41 32 -74.5t86 -53.5v247q-118 -12 -118 -119zM280 1l28 -3v334l-28 9v-340zM330 -2q71 1 111 36t40 102q0 53 -32 105t-93 74l-26 9v-326z" />
    <glyph glyph-name="ampersand" unicode="&#x26;" horiz-adv-x="864" 
d="M735 39q34 -29 99 -29v-10h-288v10q85 0 77 22q-2 6 -9 12l-64 54q-86 -129 -246 -129q-111 0 -177.5 55t-66.5 156q0 68 33.5 117.5t111.5 89.5q-44 39 -66.5 76.5t-22.5 86.5q0 72 50 113t128 41q85 0 126.5 -40t39.5 -99q0 -27 -12 -50h292v-8q-54 0 -80 -6.5
t-26 -28.5q0 -98 -6.5 -161.5t-28.5 -117.5l-12 -27zM294 687q-47 0 -73.5 -27.5t-26.5 -66.5q0 -84 91 -171q42 22 70.5 69t28.5 102q0 35 -23 64.5t-67 29.5zM546 506l-102 1q-31 -54 -139 -103q17 -15 46 -38t38 -30l187 -160l13 31q14 36 20.5 83.5t7.5 78.5t1 103
q0 19 -12 26.5t-60 7.5zM350 5q111 0 186 105l-232 196q-11 9 -35.5 29t-36.5 30q-47 -32 -64 -70.5t-17 -91.5q0 -82 60 -140t139 -58z" />
    <glyph glyph-name="quotesingle" unicode="'" horiz-adv-x="239" 
d="M185 664q12 -50 -19 -100q-15 -23 -49 -46.5t-66 -33.5l-1 3q47 21 67 59q10 20 7 38t-18 27q-37 22 -37 54q0 21 16.5 36t39.5 15q22 0 38.5 -14.5t21.5 -37.5z" />
    <glyph glyph-name="parenleft" unicode="(" horiz-adv-x="324" 
d="M79 315q0 -57 10.5 -114.5t33.5 -119t66.5 -118.5t103.5 -97l-8 -12q-244 160 -245 462q2 299 245 459l8 -12q-60 -40 -103.5 -97t-66.5 -118.5t-33.5 -119t-10.5 -113.5z" />
    <glyph glyph-name="parenright" unicode=")" horiz-adv-x="334" 
d="M255 317q0 57 -10.5 114.5t-33.5 119t-66.5 118.5t-103.5 97l8 12q244 -160 245 -462q-2 -299 -245 -459l-8 12q60 40 103.5 97t66.5 118.5t33.5 119t10.5 113.5z" />
    <glyph glyph-name="asterisk" unicode="*" horiz-adv-x="285" 
d="M263 621q4 -13 -5.5 -20.5t-25.5 -8.5q-37 -2 -81 -10l-1 -1q17 -18 37.5 -35.5t22.5 -19.5q29 -29 6 -45q-12 -7 -22 -0.5t-15 21.5q-9 25 -34 74h-3q-12 -22 -22.5 -47t-11.5 -27q-18 -34 -41 -19q-10 8 -7 20t15 21q24 17 60 55l1 2l-1 1q-17 3 -32.5 5t-27.5 2.5
t-17 1.5q-39 5 -31 33q4 12 17 13t24 -8q22 -16 71 -40v1q-5 32 -16 79q-3 16 2 27.5t19 11.5q26 0 18 -39q-11 -45 -15 -79l1 -1q7 3 71 40q12 8 26 6.5t18 -14.5z" />
    <glyph glyph-name="plus" unicode="+" horiz-adv-x="450" 
d="M400 328v-25h-160v-162h-30v162h-160v25h160v163h30v-163h160z" />
    <glyph glyph-name="comma" unicode="," horiz-adv-x="231" 
d="M185 44q12 -50 -19 -100q-15 -23 -49 -46.5t-66 -33.5l-1 3q47 21 67 59q10 20 7 38t-18 27q-37 22 -37 54q0 21 16.5 36t39.5 15q22 0 38.5 -14.5t21.5 -37.5z" />
    <glyph glyph-name="hyphen" unicode="-" horiz-adv-x="359" 
d="M50 339h259v-20h-259v20z" />
    <glyph glyph-name="period" unicode="." horiz-adv-x="212" 
d="M106 -9q-23 0 -39.5 15t-16.5 36t16.5 36t39.5 15t39.5 -15t16.5 -36t-16.5 -36t-39.5 -15z" />
    <glyph glyph-name="slash" unicode="/" horiz-adv-x="335" 
d="M50 -162l212 972l23 -5l-212 -972z" />
    <glyph glyph-name="zero" unicode="0" horiz-adv-x="540" 
d="M270 -16q-113 0 -175 98.5t-62 265.5t62 265.5t175 98.5t175 -98.5t62 -265.5t-62 -265.5t-175 -98.5zM282 -5q51 2 82 36t40 86t12.5 114.5t-1.5 121.5q-2 46 -3 71t-5.5 68t-10.5 68t-18 56t-27.5 47.5t-39 27.5t-53.5 10q-51 -2 -82 -35.5t-40 -85t-12.5 -114.5
t1.5 -123q2 -45 3 -70t5.5 -67.5t10.5 -67.5t18 -56.5t27.5 -48t39 -28t53.5 -10.5z" />
    <glyph glyph-name="one" unicode="1" horiz-adv-x="343" 
d="M217 69q0 -36 18.5 -47.5t87.5 -11.5v-10h-288v10q61 0 81.5 14t20.5 45v472h-117v8q99 0 134.5 31.5t42.5 119.5h20v-631z" />
    <glyph glyph-name="two" unicode="2" horiz-adv-x="600" 
d="M29 20q66 62 143.5 130t115.5 101.5t76.5 75t56 79t24.5 84.5q13 92 -27 145.5t-117 53.5q-68 0 -117 -45.5t-69 -108.5q-8 -25 -9.5 -42t7.5 -48t18.5 -54t37.5 -86l-5 -3l-130 206q23 85 97.5 143t168.5 58q109 0 170 -53.5t63 -155.5q1 -55 -27 -105t-78 -93
t-103.5 -79.5t-119.5 -84t-108 -88.5h352q7 0 20 -0.5t17.5 -0.5t13 1.5t9.5 5.5t3.5 11.5t-1.5 18.5t-9.5 28t-16 39t-25.5 52l8 3l100 -198v-10h-539v20z" />
    <glyph glyph-name="three" unicode="3" horiz-adv-x="642" 
d="M591 227q7 -114 -65 -180.5t-200 -66.5q-104 0 -174 55.5t-102 146.5l82 169l6 -2q-28 -91 -32.5 -127t5.5 -77q16 -62 74.5 -105.5t142.5 -43.5q94 0 141 58t41 146q-8 104 -73 159t-205 37l-12 16q1 0 23 1.5t41.5 3.5t47.5 9.5t49 18.5t37.5 30.5t20.5 45.5
q11 78 -26 122.5t-100 44.5q-49 0 -90 -29.5t-64 -77.5q-29 -62 7 -147l-5 -2l-55 105q4 76 62.5 121.5t143.5 45.5q203 0 203 -154q0 -50 -38.5 -85t-105.5 -48q101 -4 158 -54t62 -136z" />
    <glyph glyph-name="four" unicode="4" horiz-adv-x="612" 
d="M454 69q0 -36 15.5 -47.5t70.5 -11.5v-10h-247v10q80 0 86 45v101h-369v22l370 522h74v-485h95l-33 -59h-62v-87zM106 215h273l1 443l-313 -458z" />
    <glyph glyph-name="five" unicode="5" horiz-adv-x="634" 
d="M157 455q84 24 161.5 16.5t136.5 -36t94.5 -82.5t35.5 -123q0 -64 -23 -112t-63 -75t-88.5 -40t-104.5 -13q-104 0 -174 55.5t-102 146.5l82 169l6 -2q-28 -91 -32.5 -127t5.5 -77q16 -62 74 -105.5t142 -43.5q81 0 132.5 58t51.5 176q0 117 -104.5 175.5t-276.5 9.5
l41 275h397v-10l-100 -198l-8 3q15 29 25.5 51.5t15.5 38.5t8.5 27.5t0.5 18.5t-5 11t-12 6t-15.5 2h-20.5h-8h-230z" />
    <glyph glyph-name="six" unicode="6" horiz-adv-x="546" 
d="M503 298q27 -86 -7.5 -171.5t-122.5 -128.5q-72 -37 -164 -12.5t-137 99.5q-36 59 -37 148t29 166q16 45 46.5 91.5t78 95.5t120.5 84.5t158 44.5v-12q-75 -12 -134.5 -42t-92 -62t-56.5 -74t-31.5 -65.5t-14.5 -50.5q-1 -3 -1 -5q-15 -63 -19 -94q35 101 136 128
q34 11 72.5 5t72.5 -21.5t62.5 -48t41.5 -75.5zM367 13q51 24 65.5 90t2.5 142q-12 82 -66 134.5t-118 37.5q-104 -24 -138 -160q-2 -56 14 -107q29 -94 100.5 -131.5t139.5 -5.5z" />
    <glyph glyph-name="seven" unicode="7" horiz-adv-x="578" 
d="M538 700v-22q-111 -64 -176 -145.5t-95.5 -212t-21.5 -320.5h-76q-7 117 19 226t75.5 192.5t107.5 146t122 104.5l-51 -11h-283q-24 0 -34 -1.5t-20.5 -9t-7.5 -24.5t14.5 -48.5t36.5 -79.5l-8 -3l-100 198v10h498z" />
    <glyph glyph-name="eight" unicode="8" horiz-adv-x="600" 
d="M541 217q7 -109 -62.5 -172t-194.5 -63q-121 0 -192.5 62t-64.5 173q5 88 63.5 145.5t158.5 64.5q-146 26 -146 133q0 65 50.5 104.5t127.5 39.5q84 0 134 -40t50 -104q0 -107 -146 -133q100 -7 158.5 -64.5t63.5 -145.5zM389 569q0 119 -108 119q-102 0 -102 -119
q0 -65 27 -94.5t78 -41.5q51 12 78 41.5t27 94.5zM460 200q-6 95 -46.5 148t-129.5 64q-89 -11 -129.5 -64t-46.5 -148q-5 -85 44.5 -143.5t131.5 -58.5q80 0 130.5 59t45.5 143z" />
    <glyph glyph-name="nine" unicode="9" horiz-adv-x="518" 
d="M447 584q56 -127 -12 -279q-37 -83 -129.5 -185.5t-212.5 -150.5l-4 10q220 118 284 301q25 71 25 158q-22 -86 -110 -114q-25 -11 -61 -9t-70.5 11t-65 36.5t-44.5 67.5q-29 82 10 159t112 106q35 14 73.5 16t77 -8.5t72.5 -41t55 -77.5zM296 348q86 29 100 126
q-3 47 -17 92q-14 46 -38 76t-52 40.5t-56.5 9.5t-56.5 -12q-43 -18 -65 -80t-6 -125q19 -74 77.5 -109.5t113.5 -17.5z" />
    <glyph glyph-name="colon" unicode=":" horiz-adv-x="212" 
d="M106 391q-23 0 -39.5 15t-16.5 36t16.5 36t39.5 15t39.5 -15t16.5 -36t-16.5 -36t-39.5 -15zM106 -9q-23 0 -39.5 15t-16.5 36t16.5 36t39.5 15t39.5 -15t16.5 -36t-16.5 -36t-39.5 -15z" />
    <glyph glyph-name="semicolon" unicode=";" horiz-adv-x="232" 
d="M126 421q-23 0 -39.5 15t-16.5 36t16.5 36t39.5 15t39.5 -15t16.5 -36t-16.5 -36t-39.5 -15zM185 44q12 -50 -19 -100q-15 -23 -49 -46.5t-66 -33.5l-1 3q47 21 67 59q10 20 7 38t-18 27q-37 22 -37 54q0 21 16.5 36t39.5 15q22 0 38.5 -14.5t21.5 -37.5z" />
    <glyph glyph-name="question" unicode="?" horiz-adv-x="518" 
d="M220 183q1 59 14.5 105t33.5 75.5t40.5 53.5t39.5 52t27 57q23 87 -6.5 136.5t-102.5 49.5q-47 0 -89 -40t-52 -89q-6 -29 1 -59.5t32 -102.5l-9 -2l-99 141q27 69 93.5 118.5t131.5 49.5q85 0 143 -51.5t49 -132.5q-4 -43 -29 -77.5t-57.5 -60.5t-65 -53.5t-56.5 -71
t-27 -98.5h-12zM221 -9q-23 0 -39.5 15t-16.5 36t16.5 36t39.5 15t39.5 -15t16.5 -36t-16.5 -36t-39.5 -15z" />
    <glyph glyph-name="at" unicode="@" horiz-adv-x="732" 
d="M84 274q-2 -91 26 -164.5t78.5 -124t123 -85t157 -50t182.5 -15.5v-7q-101 0 -188 15.5t-161.5 49.5t-127 85.5t-81.5 126.5t-28 169q2 161 97.5 253t248.5 92q141 0 223 -79t82 -226q0 -73 -26 -136.5t-75 -100.5q-46 -34 -80 -42l1 1q-12 1 -23 20t-11 52v35
q-46 -126 -157 -126q-65 0 -108.5 55.5t-43.5 149.5q0 138 66.5 219.5t161.5 61.5l143 -29v-366q2 -18 17.5 -18t37.5 18q79 87 79 206q0 134 -76 210t-211 76q-144 0 -234 -89t-93 -237zM502 186v284l-58 14q-81 19 -125.5 -55t-44.5 -202q0 -94 22 -138.5t72 -44.5
q33 0 58.5 14.5t40.5 38t23.5 45.5t11.5 44z" />
    <glyph glyph-name="A" unicode="A" horiz-adv-x="829" 
d="M691 37q11 -17 37 -22t86 -5v-10h-799v10q53 0 74.5 6t31.5 23l243 587l-9 23h-1q-8 20 -19 26.5t-51 10.5t-135 4v10h262zM498 289l-123 309l-120 -309h243zM359 6q157 0 201.5 8t31.5 40l-88 220h-255l-85 -219h1q-12 -29 10 -38q27 -11 184 -11z" />
    <glyph glyph-name="B" unicode="B" horiz-adv-x="639" 
d="M442 373q76 -14 121.5 -60.5t45.5 -128.5q0 -184 -221 -184h-369v10q61 0 81.5 14t20.5 45v562q0 36 -18.5 47.5t-87.5 11.5v10h334q218 0 218 -168q0 -131 -125 -159zM337 681h-110q-26 -13 -26 -50v-251h153q50 0 89 38.5t39 113.5q0 43 -14 74t-37 46.5t-46.5 22
t-47.5 6.5zM375 16q55 0 98 43t43 125q0 90 -50 132.5t-110 42.5h-155v-290q0 -23 6.5 -35t26.5 -18h141z" />
    <glyph glyph-name="C" unicode="C" horiz-adv-x="738" 
d="M686 263h12l-48 -222q-108 -56 -236 -56q-78 0 -144 21t-118.5 63.5t-82 114t-29.5 165.5t29.5 165.5t81.5 114t116.5 63.5t140.5 21q140 0 242 -56l38 -222h-12q-19 78 -36 121t-46.5 79t-74.5 50t-114 14q-124 0 -194 -102t-70 -248q0 -142 77.5 -243.5t195.5 -101.5
q47 0 82 6.5t60.5 22t43 34t32.5 50t26 62t26 77.5q1 5 2 7z" />
    <glyph glyph-name="D" unicode="D" horiz-adv-x="770" 
d="M396 700q148 0 241 -87t93 -258q0 -173 -93.5 -264t-240.5 -91h-377v10q61 0 81.5 14t20.5 45v562q0 36 -18.5 47.5t-87.5 11.5v10h381zM391 18q98 0 166 89t68 248q0 161 -67 244.5t-167 83.5h-136q-54 -12 -54 -52v-562q0 -39 45 -51h145z" />
    <glyph glyph-name="E" unicode="E" 
d="M579 188h8l-37 -188h-535v10q48 0 67 14.5t19 44.5v562q0 30 -19 44.5t-67 14.5v10h525l37 -197h-8q-42 110 -65 145t-63 36l-194 1q-35 -1 -49 -10t-16 -30v-279h174q20 0 31.5 4t21 23.5t9.5 58.5h7v-198h-7q0 58 -16.5 79t-45.5 21h-174l-1 -292q2 -30 15 -40l255 5
q42 1 65.5 30t62.5 131z" />
    <glyph glyph-name="F" unicode="F" horiz-adv-x="592" 
d="M540 700l37 -197h-8q-42 110 -65 145t-63 36l-194 1q-35 -1 -49 -10t-16 -30v-279h174q20 0 31.5 4t21 23.5t9.5 58.5h7v-198h-7q0 58 -16.5 79t-45.5 21h-174l-1 -292q1 -31 17.5 -41.5t68.5 -10.5v-10h-252v10q48 0 67 14.5t19 44.5v562q0 30 -19 44.5t-67 14.5v10h525
z" />
    <glyph glyph-name="G" unicode="G" horiz-adv-x="783" 
d="M637 206l81 -96q-19 -10 -51 -35t-57.5 -42.5t-77.5 -32.5t-118 -15q-78 0 -144 21t-118.5 63.5t-82 114t-29.5 165.5t29.5 165.5t81.5 114t116.5 63.5t140.5 21q140 0 242 -56l38 -222h-7q-15 61 -28.5 99.5t-34.5 73t-49 53t-68 28.5t-96 10q-84 0 -145 -50l373 -439
l-1 1zM414 4q92 0 134.5 49t30 122.5t-71.5 148.5l-256 318q-53 -47 -81.5 -125t-28.5 -168q0 -142 77.5 -243.5t195.5 -101.5zM633 210q5 -4 4 -4z" />
    <glyph glyph-name="H" unicode="H" horiz-adv-x="783" 
d="M768 690q-64 0 -85.5 -12t-21.5 -47v-562q0 -36 18.5 -47.5t87.5 -11.5v-10h-288v7q60 0 81 15t21 47v285h-380v-285q0 -37 19 -49.5t87 -12.5v-7h-288v10q61 0 81.5 14t20.5 45v562q0 36 -18.5 47.5t-87.5 11.5v10h293v-7q-63 0 -85 -13.5t-22 -48.5v-262h380v262
q0 37 -19 49.5t-87 12.5v7h293v-10z" />
    <glyph glyph-name="I" unicode="I" horiz-adv-x="363" 
d="M221 69q0 -36 18.5 -47.5t87.5 -11.5v-10h-288v10q61 0 81.5 14t20.5 45v562q0 36 -18.5 47.5t-87.5 11.5v10h293v-10q-64 0 -85.5 -12t-21.5 -47v-562z" />
    <glyph glyph-name="J" unicode="J" horiz-adv-x="323" 
d="M15 700h293v-10q-64 0 -85.5 -12t-21.5 -47v-600q0 -243 -142 -243q-77 0 -142 65l42 179l8 -2q-26 -117 2 -174.5t103 -57.5q30 0 56.5 24.5t26.5 63.5q0 55 -34 95v650q0 36 -18.5 47.5t-87.5 11.5v10z" />
    <glyph glyph-name="K" unicode="K" horiz-adv-x="720" 
d="M616 39q23 -29 99 -29v-10h-288v10q75 0 75 19q0 6 -7 15l-246 348l-68 -56v-272q1 -32 17 -43t69 -11v-10h-252v10q48 0 67 14.5t19 44.5v561l1 1h-1q0 30 -19 44.5t-67 14.5v10h656v-11q-68 0 -107 -33l-268 -224zM182 650l-1 -289l348 285q38 31 -39 41q-26 3 -63 4
h-161q-47 0 -64 -8.5t-20 -32.5z" />
    <glyph glyph-name="L" unicode="L" horiz-adv-x="636" 
d="M613 188h8l-37 -188h-569v10q48 0 67 14.5t19 44.5v561l1 1h-1q0 30 -19 44.5t-67 14.5v10h252v-10q-48 0 -65 -8.5t-20 -31.5l-1 -629h304q45 0 71.5 31.5t56.5 135.5z" />
    <glyph glyph-name="M" unicode="M" horiz-adv-x="858" 
d="M838 690q-64 0 -85.5 -12t-21.5 -47v-562q0 -36 18.5 -47.5t87.5 -11.5v-10h-288v10q61 0 81.5 14t20.5 45v561l-225 -630h-25l-255 588v-519q0 -36 15.5 -47.5t70.5 -11.5v-10h-193v10q47 0 64.5 14.5t17.5 44.5v562q0 36 -18.5 47.5t-87.5 11.5v10h168l262 -576
l206 576h187v-10z" />
    <glyph glyph-name="N" unicode="N" horiz-adv-x="697" 
d="M682 700v-10q-55 0 -70.5 -11.5t-15.5 -47.5v-631h-25l-445 598v-529q0 -36 15.5 -47.5t70.5 -11.5v-10h-193v10q47 0 64.5 14.5t17.5 44.5v562q0 36 -15.5 47.5t-70.5 11.5v10h148l408 -551v482q0 36 -15 47.5t-67 11.5v10h193z" />
    <glyph glyph-name="O" unicode="O" horiz-adv-x="750" 
d="M375 -18q-69 0 -128 22t-106 65t-74 114.5t-27 164.5q0 172 96.5 269t238.5 97t238.5 -97t96.5 -269q0 -93 -27 -164.5t-74 -114.5t-106 -65t-128 -22zM375 -2q59 0 105.5 30t74 81t41.5 112t14 127q0 63 -14 123t-41 112t-73.5 83.5t-106.5 31.5q-59 0 -106 -31.5
t-74 -83.5t-41 -112t-14 -123q0 -91 23 -167.5t78 -129.5t134 -53z" />
    <glyph glyph-name="P" unicode="P" horiz-adv-x="643" 
d="M369 700q239 0 239 -192q0 -191 -219 -191h-188v-248q0 -36 18.5 -47.5t87.5 -11.5v-10h-288v10q61 0 81.5 14t20.5 45v562q0 36 -18.5 47.5t-87.5 11.5v10h354zM375 333q57 0 102 44.5t45 130.5q0 49 -16 85t-42.5 53.5t-53.5 25.5t-55 8h-130q-24 -13 -24 -49v-298h174
z" />
    <glyph glyph-name="Q" unicode="Q" horiz-adv-x="750" 
d="M872 9l7 -3q-37 -64 -79.5 -105t-84 -56.5t-80.5 -12.5t-75 24q-30 18 -51 51.5t-41 85.5q-47 -11 -93 -11q-69 0 -128 22t-106 65t-74 114.5t-27 164.5q0 172 96.5 269t238.5 97t238.5 -97t96.5 -269q0 -123 -45.5 -206t-125.5 -123q1 -4 9.5 -27t10.5 -29t10 -24
t13.5 -26t15 -19t19.5 -19q42 -32 88 -20t88 52t79 102zM375 698q-59 0 -106 -31.5t-74 -83.5t-41 -112t-14 -123q0 -141 54 -237q40 45 112.5 60.5t122.5 -8.5q60 -26 93 -100q88 98 88 285q0 63 -14 123t-41 112t-73.5 83.5t-106.5 31.5zM375 -2q48 0 84 18
q-15 38 -24.5 59.5t-27.5 44.5t-40 32q-35 15 -84 -1.5t-79 -55.5q64 -97 171 -97z" />
    <glyph glyph-name="R" unicode="R" horiz-adv-x="755" 
d="M617 47q37 -37 133 -37v-10h-298v10q27 0 41.5 1t24 5t8 11t-6.5 18l-190 261h1l-129 159v-376q0 -40 20.5 -59.5t85.5 -19.5v-10h-288v10q102 0 102 79v522q0 40 -20.5 59.5t-85.5 19.5v10h354q239 0 239 -192q0 -58 -23.5 -104t-59.5 -71t-72.5 -37t-69.5 -12zM201 611
v-127l129 -151q13 -12 35.5 -12.5t50 17t51 41t39.5 59t16 70.5q0 49 -16 85t-42.5 53.5t-53.5 25.5t-55 8h-119q-35 -18 -35 -69z" />
    <glyph glyph-name="S" unicode="S" horiz-adv-x="608" 
d="M568 179q0 -95 -69.5 -144.5t-172.5 -49.5q-79 0 -136 18t-150 63l32 242l13 -2q-24 -158 47 -232.5t194 -74.5q74 0 116.5 36t42.5 105q0 54 -33 107.5t-95 74.5l-156 54q-142 50 -142 175q0 163 220 163q36 0 72 -6.5t56.5 -13.5t55.5 -20.5t47 -17.5l-10 -216h-13
q13 260 -197 260q-153 0 -153 -124q0 -45 36 -80t96 -54l144 -46q71 -22 113 -78.5t42 -138.5z" />
    <glyph glyph-name="T" unicode="T" horiz-adv-x="717" 
d="M670 700l37 -197h-8q-42 110 -65 145t-63 36l-146 2q-26 -12 -26 -59v-558q0 -28 8 -39t33 -15.5t85 -4.5v-10h-328v10q80 0 101 10t21 49v558q0 49 -22 59l-151 -2q-40 -1 -63 -36t-65 -145h-8l37 197h623z" />
    <glyph glyph-name="U" unicode="U" horiz-adv-x="759" 
d="M729 700v-10q-49 0 -67.5 -11t-18.5 -40l4 -389q0 -53 -11.5 -98.5t-37 -84t-72 -60.5t-109.5 -22q-131 0 -205.5 65t-74.5 177v404q0 35 -21.5 47t-85.5 12v10h699zM439 36q83 0 132.5 55t50.5 169l4 391q-3 28 -40 36t-156 8q-120 0 -166.5 -14.5t-46.5 -49.5v-364
q0 -109 60.5 -170t161.5 -61z" />
    <glyph glyph-name="V" unicode="V" horiz-adv-x="769" 
d="M754 700v-10h-18h-16h-13.5t-12 -0.5t-9.5 -1.5t-9 -2t-6.5 -3t-5.5 -5l-4 -6l-235 -672h-23l-293 668q-8 15 -27 18.5t-67 3.5v10h739zM204 662l234 -582v-2l193 588q4 19 -24 24q-28 6 -170 6q-204 0 -226 -9q-14 -7 -7 -25z" />
    <glyph glyph-name="W" unicode="W" horiz-adv-x="1223" 
d="M1208 700v-10q-58 0 -84 -4t-38 -19l-237 -667h-17l210 646q10 28 -4 36q-20 12 -166 12h-20q-76 0 -112.5 -0.5t-64 -4t-34.5 -9.5t-6 -17l25 -61h2l-1 -3l206 -491l-35 -108l-212 485l-174 -485h-18l173 529l-60 137q-19 27 -112 28q-67 0 -102.5 -1t-59.5 -4.5
t-30.5 -9.5t-5.5 -17l232 -554l-35 -108l-289 662q-10 19 -35.5 23.5t-91.5 4.5l3 10h1193z" />
    <glyph glyph-name="X" unicode="X" horiz-adv-x="773" 
d="M82 665q-16 24 -102 24v11h759v-11h-22h-19.5h-15t-14 -1.5t-10 -3t-9.5 -5t-7 -7.5l-231 -296l251 -341q16 -24 102 -24v-11h-759v11h22h19.5h15t14 1.5t10 3t9.5 5t7 7.5l231 296zM381 691q-167 0 -185 -10q-10 -6 -2 -16l201 -266l200 258q16 20 -27 27t-187 7z
M550 35l-201 266l-200 -258q-16 -20 27 -27t187 -7q167 0 185 10q10 6 2 16z" />
    <glyph glyph-name="Y" unicode="Y" horiz-adv-x="677" 
d="M662 700v-10q-28 0 -40 -0.5t-26 -2.5t-20 -6.5t-9 -13.5l-190 -477l-36 -121q-12 -38 12.5 -51t99.5 -13v-5h-283v5q62 0 87.5 13.5t37.5 42.5l47 125l-231 481h-1q-6 16 -25 19.5t-70 3.5v10h647zM378 696q-99 0 -132 -4.5t-34 -19.5l181 -403l147 399q2 10 -4 15
t-26 8t-48.5 4t-83.5 1z" />
    <glyph glyph-name="Z" unicode="Z" horiz-adv-x="624" 
d="M601 198h8l-43 -198h-551v20l481 670l-317 -6q-44 -1 -75 -36.5t-69 -134.5h-8l43 187h519v-20l-476 -662l344 4q43 1 74.5 38.5t69.5 137.5z" />
    <glyph glyph-name="bracketleft" unicode="[" horiz-adv-x="330" 
d="M305 740h-204v-795h204v-10h-255v815h255v-10z" />
    <glyph glyph-name="backslash" unicode="\" horiz-adv-x="435" 
d="M385 -147l-22 -7l-313 944l22 7z" />
    <glyph glyph-name="bracketright" unicode="]" horiz-adv-x="330" 
d="M305 750v-815h-255v10h204v795h-204v10h255z" />
    <glyph glyph-name="asciicircum" unicode="^" horiz-adv-x="304" 
d="M264 583l-11 -8l-96 149l-99 -149l-18 16l112 169z" />
    <glyph glyph-name="underscore" unicode="_" horiz-adv-x="559" 
d="M50 -15h459v-20h-459v20z" />
    <glyph glyph-name="a" unicode="a" horiz-adv-x="523" 
d="M499 75l9 -10l-113 -74q-14 0 -25.5 17t-11.5 52v52q-26 -53 -72.5 -90t-108.5 -37q-65 0 -103.5 34.5t-38.5 108.5q0 102 86 141l-65 163q93 95 197 95q180 0 180 -154v-311q1 -13 10 -13q6 0 56 26zM120 304q5 -20 10 -32q40 16 82 13l146 -10v88q0 73 -24.5 112
t-87.5 39q-71 0 -109.5 -64t-16.5 -146zM207 20q61 0 106 48.5t45 106.5v73l-102 6q-34 2 -63 -7.5t-51.5 -40.5t-22.5 -82q0 -49 24.5 -76.5t63.5 -27.5z" />
    <glyph glyph-name="b" unicode="b" horiz-adv-x="589" 
d="M357 525q89 0 143 -64t54 -203q0 -70 -20 -124t-51.5 -84.5t-66 -45.5t-67.5 -15q-114 0 -171 106v-95h-161v10q47 0 66.5 14t19.5 43v547q0 19 -11 19q-17 0 -70 -38l-7 10l141 110h21v-304q55 114 180 114zM319 10q65 0 105 64.5t40 177.5q0 244 -142 244
q-156 0 -156 -253q0 -103 40 -168t113 -65z" />
    <glyph glyph-name="c" unicode="c" horiz-adv-x="501" 
d="M456 268h10q0 -58 -7.5 -103t-25.5 -86t-54.5 -65t-89.5 -28q-114 -8 -183.5 67t-70.5 206q0 133 69 200.5t179 67.5q35 0 79.5 -11.5t72.5 -27.5l21 -168h-8q-19 105 -60.5 150t-104.5 45q-157 0 -157 -259q1 -69 19 -125.5t59 -91.5t99 -28q77 9 113 64t40 193z" />
    <glyph glyph-name="d" unicode="d" horiz-adv-x="601" 
d="M581 73l5 -6l-106 -82q-40 1 -54 27.5t-15 89.5q-55 -113 -179 -113q-89 0 -143 64t-54 203q0 70 20 124t53 84.5t69 45.5t73 15q104 0 160 -103v194q-1 21 -17 16q-17 -5 -63 -37l-7 10l141 110h21l1 -634q0 -67 95 -8zM267 18q156 0 156 253q0 103 -40 168t-113 65
q-65 0 -105 -64.5t-40 -177.5q0 -244 142 -244z" />
    <glyph glyph-name="e" unicode="e" horiz-adv-x="508" 
d="M307 -9q-121 -20 -196.5 53.5t-75.5 213.5q0 135 64.5 202.5t168.5 67.5q96 0 146.5 -56.5t54.5 -138.5l-5 -8h-332q-5 -42 -5 -67q0 -114 53.5 -182.5t146.5 -49.5q70 15 106.5 90.5t32.5 186.5h6q12 -282 -165 -312zM134 339h254q16 79 -14.5 129t-105.5 44
q-109 -8 -134 -173z" />
    <glyph glyph-name="f" unicode="f" horiz-adv-x="456" 
d="M274 713q17 0 33 -2.5t27 -4.5t24 -9t19.5 -10t18 -13.5t15 -14t15.5 -16t15 -15.5l-67 -169l-8 5q5 13 11 36q21 85 -3.5 142.5t-92.5 57.5q-26 0 -44 -10t-27 -24t-14 -39.5t-6 -45t-1 -52.5v-124h153v-12h-153v-324q0 -35 20 -47t76 -12v-10h-266v10q92 0 92 59v324
h-75v12h75v146q0 81 39.5 121.5t123.5 40.5z" />
    <glyph glyph-name="g" unicode="g" horiz-adv-x="557" 
d="M380 515h152v-10q-50 0 -63 -9t-13 -40v-488q0 -81 -49.5 -127.5t-141.5 -46.5q-113 0 -206 95l73 184q-97 56 -97 216q0 111 47.5 176t133.5 65q114 0 165 -98v24zM251 500q-63 0 -97 -52t-34 -155t34.5 -157.5t96.5 -54.5q41 0 70 19.5t43 52.5t20 65.5t6 69.5t-6 70.5
t-20 67t-43 54t-70 20.5zM258 -193q123 0 123 151v189q-52 -96 -165 -96q-41 0 -75 17q-11 -22 -18 -51q-21 -81 21.5 -145.5t113.5 -64.5z" />
    <glyph glyph-name="h" unicode="h" horiz-adv-x="618" 
d="M517 69q0 -36 15.5 -47.5t70.5 -11.5v-10h-243v10q53 0 67.5 13.5t14.5 45.5v258q0 91 -19.5 126.5t-82.5 35.5q-53 0 -91 -36.5t-47 -86.5v-299q1 -32 25 -44.5t81 -12.5v-10h-287v10q50 0 78 15.5t28 43.5v530q-1 29 -17 28q-22 -1 -88 -50l-7 8l166 130h21l-1 -3l2 3
v-312q17 47 66 86.5t113 39.5q135 0 135 -139v-321z" />
    <glyph glyph-name="i" unicode="i" horiz-adv-x="284" 
d="M153 614q-23 0 -39.5 15t-16.5 36t16.5 36t39.5 15t39.5 -15t16.5 -36t-16.5 -36t-39.5 -15zM183 69q0 -31 17.5 -45t68.5 -14v-10h-247v10q51 0 68.5 14t17.5 45v356q0 26 -12 26q-17 0 -73 -47l-8 10l147 116h22z" />
    <glyph glyph-name="j" unicode="j" horiz-adv-x="296" 
d="M185 716q23 0 39.5 -15t16.5 -36t-16.5 -36t-39.5 -15t-39.5 15t-16.5 36t16.5 36t39.5 15zM225 520l-2 -3l3 3l-1 -497q0 -223 -125 -223q-40 0 -75 20t-54 44l17 103h6q-2 -91 43.5 -130.5t102.5 -16.5q41 17 44.5 73.5t-34.5 102.5v421q-1 25 -29 13q-25 -10 -76 -48
l-7 8l166 130h21z" />
    <glyph glyph-name="k" unicode="k" horiz-adv-x="647" 
d="M547 40q21 -30 95 -30v-10h-268v10q52 0 66 6.5t2 27.5l-156 250l-84 -76v-154q1 -32 17 -43t69 -11v-10h-247v10q48 0 67 14.5t19 44.5v543q-1 25 -29 13q-25 -10 -76 -48l-7 8l166 130h21l-2 -3l3 3l-1 -463l247 219q28 24 -9 32q-36 8 -161 8v4h308v-10q-73 0 -96 -23
l-165 -151z" />
    <glyph glyph-name="l" unicode="l" horiz-adv-x="323" 
d="M202 67q1 -32 25 -44.5t81 -12.5v-10h-287v10q50 0 78 15.5t28 43.5v530q-1 29 -17 28q-22 -1 -88 -50l-7 8l166 130h21l-1 -3l2 3z" />
    <glyph glyph-name="m" unicode="m" horiz-adv-x="875" 
d="M774 69q0 -36 15.5 -47.5t70.5 -11.5v-10h-243v10q53 0 67.5 13.5t14.5 45.5v258q0 90 -18 126t-74 36q-49 0 -82.5 -41t-36.5 -95v-284q0 -36 15.5 -47.5t70.5 -11.5v-10h-243v10q53 0 67.5 13.5t14.5 45.5v258q0 90 -18 126t-74 36q-47 0 -79.5 -38.5t-38.5 -89.5
l-1 -298q1 -32 17 -42.5t69 -10.5v-10h-247v10q48 0 67 14.5t19 44.5v357q0 50 -15 64.5t-71 14.5v10h162v-104q8 38 56 78.5t100 40.5q111 0 126 -118q24 53 65.5 85.5t94.5 32.5q129 0 129 -163v-298z" />
    <glyph glyph-name="n" unicode="n" horiz-adv-x="608" 
d="M507 69q0 -36 15.5 -47.5t70.5 -11.5v-10h-243v10q53 0 67.5 13.5t14.5 45.5v258q0 91 -19.5 126.5t-82.5 35.5q-54 0 -93.5 -38.5t-44.5 -89.5l-1 -298q1 -32 17 -42.5t69 -10.5v-10h-247v10q48 0 67 14.5t19 44.5v357q0 50 -15 64.5t-71 14.5v10h162v-114
q17 47 66 87.5t114 40.5q135 0 135 -139v-321z" />
    <glyph glyph-name="o" unicode="o" horiz-adv-x="554" 
d="M277 -11q-109 0 -175.5 66t-66.5 203q0 131 67.5 200t174.5 69t174.5 -69t67.5 -200q0 -137 -66.5 -203t-175.5 -66zM277 0q152 0 152 258t-152 258t-152 -258t152 -258z" />
    <glyph glyph-name="p" unicode="p" horiz-adv-x="589" 
d="M357 525q89 0 143 -64t54 -203q0 -70 -20 -124t-51.5 -84.5t-66 -45.5t-67.5 -15q-115 0 -172 108l1 -228q0 -36 15.5 -47.5t70.5 -11.5v-10h-247v10q47 0 66.5 14.5t19.5 43.5l-1 558q0 50 -15 64.5t-71 14.5v10h161v-104q55 114 180 114zM319 10q65 0 105 64.5
t40 177.5q0 244 -142 244q-156 0 -156 -253q0 -103 40 -168t113 -65z" />
    <glyph glyph-name="q" unicode="q" horiz-adv-x="588" 
d="M486 -144q6 -46 85 -46v-10h-247v10q55 0 70.5 11.5t15.5 47.5h1l-1 231q-56 -111 -178 -111q-89 0 -143 64t-54 203q0 70 20 124t53 84.5t69 45.5t73 15q104 0 160 -103v58l67 50h8zM267 18q156 0 156 253q0 103 -40 168t-113 65q-65 0 -105 -64.5t-40 -177.5
q0 -244 142 -244z" />
    <glyph glyph-name="r" unicode="r" horiz-adv-x="494" 
d="M320 530q61 0 101.5 -34t52.5 -82l-1 -14l-156 -120l-4 5q75 61 85.5 80.5t-2.5 59.5q-20 77 -96 77q-77 0 -108 -85l-1 -354q1 -32 17 -42.5t69 -10.5v-10h-247v10q48 0 67 14.5t19 44.5v357q0 50 -15 64.5t-71 14.5v10h162v-67q47 82 128 82z" />
    <glyph glyph-name="s" unicode="s" horiz-adv-x="486" 
d="M451 141q0 -75 -59.5 -115t-143.5 -40q-85 0 -213 72l33 178l11 -3q-24 -115 19 -174.5t150 -58.5q52 1 88.5 26t36.5 69q0 45 -27.5 80t-71.5 51l-106 39q-60 22 -86.5 51t-26.5 75q0 63 51.5 100t121.5 37q74 0 175 -36l-28 -149l-8 3q31 169 -137 169
q-48 0 -77.5 -22.5t-29.5 -58.5t22.5 -57t72.5 -41l116 -46q64 -26 90.5 -60.5t26.5 -88.5z" />
    <glyph glyph-name="t" unicode="t" horiz-adv-x="316" 
d="M288 99l9 -10l-141 -109q-36 2 -52.5 22.5t-16.5 64.5l1 436h-73v12q87 0 110.5 43t23.5 192h13v-235h107v-12h-107v-417q0 -30 21 -39t47 10z" />
    <glyph glyph-name="u" unicode="u" 
d="M501 69q0 -36 15.5 -47.5t70.5 -11.5v-10h-161v111q-44 -126 -176 -126q-66 0 -107.5 42.5t-41.5 126.5v292q0 36 -15.5 47.5t-70.5 11.5v10h161v-321q0 -86 26.5 -127t85.5 -41t95 39t43 92v289q0 36 -15.5 47.5t-70.5 11.5v10h161v-446z" />
    <glyph glyph-name="v" unicode="v" horiz-adv-x="607" 
d="M597 515v-10q-48 0 -66 -3t-26 -15l-165 -487h-33l-206 490q-8 10 -26.5 12.5t-64.5 2.5v10h587zM199 475l150 -404l125 404h-1q8 23 -5 29q-16 7 -131 7q-124 0 -137 -9q-9 -5 -1 -27z" />
    <glyph glyph-name="w" unicode="w" horiz-adv-x="927" 
d="M912 515v-10q-50 0 -68 -3.5t-25 -18.5l-174 -483h-13l-160 348l-127 -348h-13l-222 482q-6 16 -25 19.5t-70 3.5v10h897zM491 487l167 -407l133 403q5 19 -19 23.5t-125 4.5q-55 0 -82 -0.5t-46.5 -3t-24.5 -7t-3 -13.5zM358 80l99 300l-47 102q-11 28 -87 29
q-46 0 -70.5 -0.5t-40 -3t-19.5 -7t-3 -11.5z" />
    <glyph glyph-name="x" unicode="x" horiz-adv-x="637" 
d="M540 26q16 -22 92 -22v-4h-627v10q47 0 66 4.5t30 17.5l176 218l-10 13l-169 226q-16 22 -92 22v4h567v-10h-14q-38 0 -53 -2.5t-24 -13.5l-149 -189l26 -37zM205 483l117 -167l117 159q15 20 11 25q-8 11 -121 11q-118 0 -127 -13q-3 -6 3 -15zM279 4q153 0 160 17
q1 5 -3 11l-149 203l-148 -195q-17 -22 4 -29q23 -7 136 -7z" />
    <glyph glyph-name="y" unicode="y" horiz-adv-x="607" 
d="M597 515v-10q-48 0 -66 -3t-26 -15l-160 -473l-60 -214h-150v5q58 0 84.5 12t36.5 37l5 14v1l51 146l-210 473q-8 12 -26 14.5t-66 2.5v10h587zM196 482l155 -406l123 399h-1q8 23 -5 29q-16 7 -131 7q-124 0 -137 -9q-8 -5 -4 -20z" />
    <glyph glyph-name="z" unicode="z" horiz-adv-x="514" 
d="M490 190h8l-41 -190h-428v30l363 474l-218 -4q-41 -1 -70.5 -34.5t-65.5 -127.5h-8l41 177h402v-30l-356 -465l32 -2l203 3q41 1 71 36.5t67 132.5z" />
    <glyph glyph-name="braceleft" unicode="{" horiz-adv-x="249" 
d="M147 418q0 -58 -59 -76q59 -20 59 -77v-257q0 -38 11.5 -52.5t40.5 -14.5v-5q-97 0 -97 72v257q0 38 -11.5 52.5t-40.5 14.5v19q29 0 40.5 14.5t11.5 52.5v257q0 72 97 72v-5q-29 0 -40.5 -14.5t-11.5 -52.5v-257z" />
    <glyph glyph-name="bar" unicode="|" horiz-adv-x="161" 
d="M61 767h40v-900h-40v900z" />
    <glyph glyph-name="braceright" unicode="}" horiz-adv-x="249" 
d="M147 418q0 -38 11.5 -52.5t40.5 -14.5v-19q-29 0 -40.5 -14.5t-11.5 -52.5v-257q0 -72 -97 -72v5q29 0 40.5 14.5t11.5 52.5v257q0 57 59 77q-59 18 -59 76v257q0 38 -11.5 52.5t-40.5 14.5v5q97 0 97 -72v-257z" />
    <glyph glyph-name="exclamdown" unicode="&#xa1;" horiz-adv-x="292" 
d="M26 510q23 0 39.5 -15t16.5 -36t-16.5 -36t-39.5 -15t-39.5 15t-16.5 36t16.5 36t39.5 15zM35 358q2 -56 4.5 -124t3.5 -103t3.5 -77.5t4.5 -63.5t5.5 -43.5t8 -35.5t11.5 -23q25 0 102 58l8 -9l-192 -151h-25q2 14 9 60.5t10.5 79t9.5 93.5t11 145.5t10 193.5h16z" />
    <glyph glyph-name="cent" unicode="&#xa2;" horiz-adv-x="501" 
d="M456 268h10q0 -58 -7.5 -103t-25.5 -86t-54.5 -65t-89.5 -28q-7 0 -10 -1v-104h-20v104q-101 4 -162 78t-62 196q0 125 61.5 192.5t162.5 74.5v112h20v-111h4q35 0 79.5 -11.5t72.5 -27.5l21 -168h-8q-19 105 -60.5 150t-104.5 45q-157 0 -157 -259q1 -69 19 -125.5
t59 -91.5t99 -28q77 9 113 64t40 193z" />
    <glyph glyph-name="sterling" unicode="&#xa3;" horiz-adv-x="668" 
d="M619 178h8l-37 -178h-529v10q30 0 52.5 9.5t35.5 27t19 31.5t11 33q30 116 -26 208h-138v22h123q-15 18 -16 19l-8 9h-99v22h80q-61 71 -61 149q0 87 62 128.5t152 41.5q35 0 69 -6.5t54 -13.5t52 -20t46 -18v35h18l32 -251h-13q-36 108 -79 169t-118 85q-82 26 -142 -17
t-55 -111q1 -18 6 -34t17 -35t19 -30t26.5 -36.5t27.5 -35.5h314v-22h-299q8 -12 16 -28h283v-22h-274q51 -132 -15 -297l248 5q46 1 73.5 28t64.5 123z" />
    <glyph glyph-name="currency" unicode="&#xa4;" horiz-adv-x="570" 
d="M535 258q0 -115 -50 -184l75 -76l-14 -14l-74 75q-63 -70 -179 -70q-119 0 -182 73l-77 -77l-14 14l79 79q-48 67 -48 180t52 181l-82 82l14 14l80 -81q66 73 178 73q110 0 176 -70l77 77l14 -14l-78 -78q53 -71 53 -184zM293 0q152 0 152 258t-152 258t-152 -258
t152 -258z" />
    <glyph glyph-name="yen" unicode="&#xa5;" horiz-adv-x="677" 
d="M662 700v-10q-28 0 -40 -0.5t-26 -2.5t-20 -6.5t-9 -13.5l-182 -456h174v-22h-182l-9 -28h191v-22h-197l-21 -70q-12 -38 12.5 -51t99.5 -13v-5h-283v5q62 0 87.5 13.5t37.5 42.5l29 78h-205v22h213l10 25l-2 3h-221v22h211l-219 456h-1q-6 16 -25 19.5t-70 3.5v10h647z
M378 696q-99 0 -132 -4.5t-34 -19.5l181 -403l147 399q2 10 -4 15t-26 8t-48.5 4t-83.5 1z" />
    <glyph glyph-name="section" unicode="&#xa7;" horiz-adv-x="490" 
d="M455 340q-1 -76 -66 -117q51 -41 49 -114q-2 -68 -50.5 -101t-122.5 -33q-98 0 -193 53v-38h-11l-26 216h11q27 -79 54.5 -125t54.5 -64.5t65 -25.5q70 -13 109 14.5t30 88.5q-10 69 -98 102l-106 39q-61 22 -87 52.5t-26 83.5q0 92 93 121q-76 37 -76 110q0 121 163 121
q25 0 50 -5t39.5 -10t38.5 -14.5t33 -12.5v25h13l23 -182h-9q-15 37 -22 52.5t-21.5 42t-26.5 39.5t-31.5 26.5t-42.5 20.5q-61 19 -102.5 -6t-36.5 -74q1 -16 7 -27t22.5 -21t26.5 -14.5t39 -15.5l116 -46q120 -48 117 -161zM321 260q21 -8 36 -17q26 31 19 82
q-5 34 -30.5 65t-67.5 47l-106 39q-2 1 -6 2.5t-6 2.5q-56 -28 -50 -87q3 -31 26 -50.5t69 -37.5z" />
    <glyph glyph-name="copyright" unicode="&#xa9;" horiz-adv-x="646" 
d="M323 -10q-113 0 -193 80t-80 193t80 192.5t193 79.5t193 -79.5t80 -192.5t-80 -193t-193 -80zM323 2q108 0 184 76.5t76 183.5q0 108 -76 184.5t-184 76.5t-184 -76.5t-76 -184.5q0 -107 76 -183.5t184 -76.5zM470 271h7q0 -193 -127 -201q-81 -6 -130.5 47.5
t-50.5 147.5q0 95 49 143t128 48q60 0 109 -27l15 -120h-6q-25 139 -118 139q-112 0 -112 -185q1 -78 33 -130t93 -45q55 6 81 45.5t29 137.5z" />
    <glyph glyph-name="guillemotleft" unicode="&#xab;" horiz-adv-x="405" 
d="M175 280l195 -154l-20 -24l-215 168l215 168l10 -14zM260 421l-185 -144l195 -154l-20 -24l-215 168l215 168z" />
    <glyph glyph-name="registered" unicode="&#xae;" horiz-adv-x="646" 
d="M323 535q113 0 193 -79.5t80 -192.5t-80 -193t-193 -80t-193 80t-80 193t80 192.5t193 79.5zM323 2q108 0 184 76.5t76 183.5q0 108 -76 184.5t-184 76.5t-184 -76.5t-76 -184.5q0 -107 76 -183.5t184 -76.5zM447 114q20 -18 66 -18v-5h-146v5q26 0 32.5 3t-0.5 14
l-93 128h1l-63 77v-183q0 -20 9.5 -29.5t41.5 -9.5v-5h-141v5q50 0 50 39v256q0 19 -10 28.5t-42 9.5v5h174q117 0 117 -94q0 -54 -36 -82t-74 -28zM244 391v-63l63 -74q12 -9 33 -2t41 33t20 55q0 46 -25 65t-57 19h-59q-16 -9 -16 -33z" />
    <glyph glyph-name="degree" unicode="&#xb0;" horiz-adv-x="310" 
d="M155 505q-43 0 -74 30.5t-31 74.5t31 74.5t74 30.5t74 -30.5t31 -74.5t-31 -74.5t-74 -30.5zM155 514q40 0 68 28t28 68t-28 68t-68 28t-68 -28t-28 -68t28 -68t68 -28z" />
    <glyph glyph-name="paragraph" unicode="&#xb6;" horiz-adv-x="600" 
 />
    <glyph glyph-name="periodcentered" unicode="&#xb7;" horiz-adv-x="212" 
d="M106 241q-23 0 -39.5 15t-16.5 36t16.5 36t39.5 15t39.5 -15t16.5 -36t-16.5 -36t-39.5 -15z" />
    <glyph glyph-name="guillemotright" unicode="&#xbb;" horiz-adv-x="405" 
d="M155 438l215 -168l-215 -168l-10 14l185 144l-195 154zM55 435l215 -168l-215 -168l-10 14l185 144l-195 154z" />
    <glyph glyph-name="questiondown" unicode="&#xbf;" horiz-adv-x="518" 
d="M297 558q23 0 39.5 -15t16.5 -36t-16.5 -36t-39.5 -15t-39.5 15t-16.5 36t16.5 36t39.5 15zM298 366q-1 -59 -14.5 -105t-33.5 -75.5t-40.5 -53.5t-39.5 -52t-27 -57q-23 -87 6.5 -136.5t102.5 -49.5q47 0 89 40t52 89q6 29 -1 59.5t-32 102.5l9 2l99 -141
q-27 -69 -93.5 -118.5t-131.5 -49.5q-85 0 -143 51.5t-49 132.5q4 43 29 77.5t57.5 60.5t65 53.5t56.5 71t27 98.5h12z" />
    <glyph glyph-name="Agrave" unicode="&#xc0;" horiz-adv-x="829" 
d="M318 858q-62 31 -41 59q17 28 68 -19q66 -60 150 -124l-5 -8q-99 58 -172 92zM691 37q11 -17 37 -22t86 -5v-10h-799v10q53 0 74.5 6t31.5 23l243 587l-9 23h-1q-8 20 -19 26.5t-51 10.5t-135 4v10h262zM498 289l-123 309l-120 -309h243zM359 6q157 0 201.5 8t31.5 40
l-88 220h-255l-85 -219h1q-12 -29 10 -38q27 -11 184 -11z" />
    <glyph glyph-name="Aacute" unicode="&#xc1;" horiz-adv-x="829" 
d="M442 858q-73 -34 -172 -92l-5 8q84 64 150 124q51 47 68 19q21 -28 -41 -59zM691 37q11 -17 37 -22t86 -5v-10h-799v10q53 0 74.5 6t31.5 23l243 587l-9 23h-1q-8 20 -19 26.5t-51 10.5t-135 4v10h262zM498 289l-123 309l-120 -309h243zM359 6q157 0 201.5 8t31.5 40
l-88 220h-255l-85 -219h1q-12 -29 10 -38q27 -11 184 -11z" />
    <glyph glyph-name="Acircumflex" unicode="&#xc2;" horiz-adv-x="829" 
d="M369 889l-96 -128l-11 8l121 166l133 -154l-28 -25zM691 37q11 -17 37 -22t86 -5v-10h-799v10q53 0 74.5 6t31.5 23l243 587l-9 23h-1q-8 20 -19 26.5t-51 10.5t-135 4v10h262zM498 289l-123 309l-120 -309h243zM359 6q157 0 201.5 8t31.5 40l-88 220h-255l-85 -219h1
q-12 -29 10 -38q27 -11 184 -11z" />
    <glyph glyph-name="Atilde" unicode="&#xc3;" horiz-adv-x="829" 
d="M298 821q-61 0 -61 -66h-13q4 117 85 117q37 0 83.5 -32.5t71.5 -32.5q49 0 54 66h12q0 -70 -18 -93.5t-58 -23.5q-27 0 -79 32.5t-77 32.5zM691 37q11 -17 37 -22t86 -5v-10h-799v10q53 0 74.5 6t31.5 23l243 587l-9 23h-1q-8 20 -19 26.5t-51 10.5t-135 4v10h262z
M498 289l-123 309l-120 -309h243zM359 6q157 0 201.5 8t31.5 40l-88 220h-255l-85 -219h1q-12 -29 10 -38q27 -11 184 -11z" />
    <glyph glyph-name="Adieresis" unicode="&#xc4;" horiz-adv-x="829" 
d="M245 799q-23 0 -39.5 15t-16.5 36t16.5 36t39.5 15t39.5 -15t16.5 -36t-16.5 -36t-39.5 -15zM505 799q-23 0 -39.5 15t-16.5 36t16.5 36t39.5 15t39.5 -15t16.5 -36t-16.5 -36t-39.5 -15zM691 37q11 -17 37 -22t86 -5v-10h-799v10q53 0 74.5 6t31.5 23l243 587l-9 23h-1
q-8 20 -19 26.5t-51 10.5t-135 4v10h262zM498 289l-123 309l-120 -309h243zM359 6q157 0 201.5 8t31.5 40l-88 220h-255l-85 -219h1q-12 -29 10 -38q27 -11 184 -11z" />
    <glyph glyph-name="Aring" unicode="&#xc5;" horiz-adv-x="829" 
d="M375 765q-56 0 -56 62q0 30 15.5 46t40.5 16t40.5 -16t15.5 -46q0 -62 -56 -62zM375 884q-36 0 -36 -57t36 -57t36 57t-36 57zM691 37q11 -17 37 -22t86 -5v-10h-799v10q53 0 74.5 6t31.5 23l243 587l-9 23h-1q-8 20 -19 26.5t-51 10.5t-135 4v10h262zM498 289l-123 309
l-120 -309h243zM359 6q157 0 201.5 8t31.5 40l-88 220h-255l-85 -219h1q-12 -29 10 -38q27 -11 184 -11z" />
    <glyph glyph-name="AE" unicode="&#xc6;" horiz-adv-x="1032" 
d="M969 188h8l-37 -188h-535v10q48 0 67 14.5t19 44.5v282l-167 -3l-160 -309q-9 -20 9 -25q16 -4 95 -4v-10h-283v10q60 0 77.5 5.5t33.5 31.5l336 573q26 49 11 58t-116 10v12h603l37 -197h-8q-42 110 -65 145t-63 36l-194 1q-35 -1 -49 -10t-16 -30v-279h174q20 0 31.5 4
t21 23.5t9.5 58.5h7v-198h-7q0 58 -16.5 79t-45.5 21h-174l-1 -292q2 -30 15 -40l255 5q42 1 65.5 30t62.5 131zM336 371l155 -4v264q0 16 -4 25q-8 -11 -10 -14z" />
    <glyph glyph-name="Ccedilla" unicode="&#xc7;" horiz-adv-x="738" 
d="M414 -15q-26 0 -39 1l-10 -32q47 7 76 -13t32 -53q4 -42 -22 -65.5t-65 -23.5q-34 0 -57.5 18.5t-32.5 44.5l23 14q6 -33 24.5 -49.5t42.5 -16.5q62 0 54 69q-9 74 -98 62l10 48q-140 16 -226 105.5t-86 254.5q0 94 29.5 165.5t81.5 114t116.5 63.5t140.5 21
q140 0 242 -56l38 -222h-12q-19 78 -36 121t-46.5 79t-74.5 50t-114 14q-124 0 -194 -102t-70 -248q0 -142 77.5 -243.5t195.5 -101.5q47 0 82 6.5t60.5 22t43 34t32.5 50t26 62t26 77.5q1 5 2 7h12l-48 -222q-108 -56 -236 -56z" />
    <glyph glyph-name="Egrave" unicode="&#xc8;" 
d="M227 858q-62 31 -41 59q17 28 68 -19q66 -60 150 -124l-5 -8q-99 58 -172 92zM579 188h8l-37 -188h-535v10q48 0 67 14.5t19 44.5v562q0 30 -19 44.5t-67 14.5v10h525l37 -197h-8q-42 110 -65 145t-63 36l-194 1q-35 -1 -49 -10t-16 -30v-279h174q20 0 31.5 4t21 23.5
t9.5 58.5h7v-198h-7q0 58 -16.5 79t-45.5 21h-174l-1 -292q2 -30 15 -40l255 5q42 1 65.5 30t62.5 131z" />
    <glyph glyph-name="Eacute" unicode="&#xc9;" 
d="M351 858q-73 -34 -172 -92l-5 8q84 64 150 124q51 47 68 19q21 -28 -41 -59zM579 188h8l-37 -188h-535v10q48 0 67 14.5t19 44.5v562q0 30 -19 44.5t-67 14.5v10h525l37 -197h-8q-42 110 -65 145t-63 36l-194 1q-35 -1 -49 -10t-16 -30v-279h174q20 0 31.5 4t21 23.5
t9.5 58.5h7v-198h-7q0 58 -16.5 79t-45.5 21h-174l-1 -292q2 -30 15 -40l255 5q42 1 65.5 30t62.5 131z" />
    <glyph glyph-name="Ecircumflex" unicode="&#xca;" 
d="M278 889l-96 -128l-11 8l121 166l133 -154l-28 -25zM579 188h8l-37 -188h-535v10q48 0 67 14.5t19 44.5v562q0 30 -19 44.5t-67 14.5v10h525l37 -197h-8q-42 110 -65 145t-63 36l-194 1q-35 -1 -49 -10t-16 -30v-279h174q20 0 31.5 4t21 23.5t9.5 58.5h7v-198h-7
q0 58 -16.5 79t-45.5 21h-174l-1 -292q2 -30 15 -40l255 5q42 1 65.5 30t62.5 131z" />
    <glyph glyph-name="Edieresis" unicode="&#xcb;" 
d="M154 799q-23 0 -39.5 15t-16.5 36t16.5 36t39.5 15t39.5 -15t16.5 -36t-16.5 -36t-39.5 -15zM414 799q-23 0 -39.5 15t-16.5 36t16.5 36t39.5 15t39.5 -15t16.5 -36t-16.5 -36t-39.5 -15zM579 188h8l-37 -188h-535v10q48 0 67 14.5t19 44.5v562q0 30 -19 44.5t-67 14.5
v10h525l37 -197h-8q-42 110 -65 145t-63 36l-194 1q-35 -1 -49 -10t-16 -30v-279h174q20 0 31.5 4t21 23.5t9.5 58.5h7v-198h-7q0 58 -16.5 79t-45.5 21h-174l-1 -292q2 -30 15 -40l255 5q42 1 65.5 30t62.5 131z" />
    <glyph glyph-name="Igrave" unicode="&#xcc;" horiz-adv-x="363" 
d="M297 766l5 8q-84 64 -150 124q-51 47 -68 19q-21 -28 41 -59q73 -34 172 -92zM221 69q0 -36 18.5 -47.5t87.5 -11.5v-10h-288v10q61 0 81.5 14t20.5 45v562q0 36 -18.5 47.5t-87.5 11.5v10h293v-10q-64 0 -85.5 -12t-21.5 -47v-562z" />
    <glyph glyph-name="Iacute" unicode="&#xcd;" horiz-adv-x="363" 
d="M77 766q99 58 172 92q62 31 41 59q-17 28 -68 -19q-66 -60 -150 -124zM221 69q0 -36 18.5 -47.5t87.5 -11.5v-10h-288v10q61 0 81.5 14t20.5 45v562q0 36 -18.5 47.5t-87.5 11.5v10h293v-10q-64 0 -85.5 -12t-21.5 -47v-562z" />
    <glyph glyph-name="Icircumflex" unicode="&#xce;" horiz-adv-x="363" 
d="M176 889l-96 -128l-11 8l121 166l133 -154l-28 -25zM328 690q-64 0 -85.5 -12t-21.5 -47v-562q0 -36 18.5 -47.5t87.5 -11.5v-10h-288v10q61 0 81.5 14t20.5 45v562q0 36 -18.5 47.5t-87.5 11.5v10h293v-10z" />
    <glyph glyph-name="Idieresis" unicode="&#xcf;" horiz-adv-x="363" 
d="M52 799q-23 0 -39.5 15t-16.5 36t16.5 36t39.5 15t39.5 -15t16.5 -36t-16.5 -36t-39.5 -15zM312 799q-23 0 -39.5 15t-16.5 36t16.5 36t39.5 15t39.5 -15t16.5 -36t-16.5 -36t-39.5 -15zM221 69q0 -36 18.5 -47.5t87.5 -11.5v-10h-288v10q61 0 81.5 14t20.5 45v562
q0 36 -18.5 47.5t-87.5 11.5v10h293v-10q-64 0 -85.5 -12t-21.5 -47v-562z" />
    <glyph glyph-name="Eth" unicode="&#xd0;" horiz-adv-x="770" 
d="M396 700q148 0 241 -87t93 -258q0 -173 -93.5 -264t-240.5 -91h-377v10q61 0 81.5 14t20.5 45v278h-22v25h22v259q0 36 -18.5 47.5t-87.5 11.5v10h381zM391 18q98 0 166 89t68 248q0 161 -67 244.5t-167 83.5h-136q-54 -12 -54 -52v-259h248v-25h-248v-278q0 -39 45 -51
h145z" />
    <glyph glyph-name="Ntilde" unicode="&#xd1;" horiz-adv-x="697" 
d="M272 821q-61 0 -61 -66h-13q4 117 85 117q37 0 83.5 -32.5t71.5 -32.5q49 0 54 66h12q0 -70 -18 -93.5t-58 -23.5q-27 0 -79 32.5t-77 32.5zM682 700v-10q-55 0 -70.5 -11.5t-15.5 -47.5v-631h-25l-445 598v-529q0 -36 15.5 -47.5t70.5 -11.5v-10h-193v10q47 0 64.5 14.5
t17.5 44.5v562q0 36 -15.5 47.5t-70.5 11.5v10h148l408 -551v482q0 36 -15 47.5t-67 11.5v10h193z" />
    <glyph glyph-name="Ograve" unicode="&#xd2;" horiz-adv-x="750" 
d="M490 776l5 8q-84 64 -150 124q-51 47 -68 19q-21 -28 41 -59q73 -34 172 -92zM375 -18q-69 0 -128 22t-106 65t-74 114.5t-27 164.5q0 172 96.5 269t238.5 97t238.5 -97t96.5 -269q0 -93 -27 -164.5t-74 -114.5t-106 -65t-128 -22zM375 -2q59 0 105.5 30t74 81t41.5 112
t14 127q0 63 -14 123t-41 112t-73.5 83.5t-106.5 31.5q-59 0 -106 -31.5t-74 -83.5t-41 -112t-14 -123q0 -91 23 -167.5t78 -129.5t134 -53z" />
    <glyph glyph-name="Oacute" unicode="&#xd3;" horiz-adv-x="750" 
d="M270 776q99 58 172 92q62 31 41 59q-17 28 -68 -19q-66 -60 -150 -124zM375 -18q-69 0 -128 22t-106 65t-74 114.5t-27 164.5q0 172 96.5 269t238.5 97t238.5 -97t96.5 -269q0 -93 -27 -164.5t-74 -114.5t-106 -65t-128 -22zM375 -2q59 0 105.5 30t74 81t41.5 112t14 127
q0 63 -14 123t-41 112t-73.5 83.5t-106.5 31.5q-59 0 -106 -31.5t-74 -83.5t-41 -112t-14 -123q0 -91 23 -167.5t78 -129.5t134 -53z" />
    <glyph glyph-name="Ocircumflex" unicode="&#xd4;" horiz-adv-x="750" 
d="M369 899l-96 -128l-11 8l121 166l133 -154l-28 -25zM375 714q142 0 238.5 -97t96.5 -269q0 -93 -27 -164.5t-74 -114.5t-106 -65t-128 -22t-128 22t-106 65t-74 114.5t-27 164.5q0 172 96.5 269t238.5 97zM375 -2q59 0 105.5 30t74 81t41.5 112t14 127q0 63 -14 123
t-41 112t-73.5 83.5t-106.5 31.5q-59 0 -106 -31.5t-74 -83.5t-41 -112t-14 -123q0 -91 23 -167.5t78 -129.5t134 -53z" />
    <glyph glyph-name="Otilde" unicode="&#xd5;" horiz-adv-x="750" 
d="M530 883q0 -70 -18 -93.5t-58 -23.5q-27 0 -79 32.5t-77 32.5q-61 0 -61 -66h-13q4 117 85 117q37 0 83.5 -32.5t71.5 -32.5q49 0 54 66h12zM375 -18q-69 0 -128 22t-106 65t-74 114.5t-27 164.5q0 172 96.5 269t238.5 97t238.5 -97t96.5 -269q0 -93 -27 -164.5
t-74 -114.5t-106 -65t-128 -22zM375 -2q59 0 105.5 30t74 81t41.5 112t14 127q0 63 -14 123t-41 112t-73.5 83.5t-106.5 31.5q-59 0 -106 -31.5t-74 -83.5t-41 -112t-14 -123q0 -91 23 -167.5t78 -129.5t134 -53z" />
    <glyph glyph-name="Odieresis" unicode="&#xd6;" horiz-adv-x="750" 
d="M245 809q-23 0 -39.5 15t-16.5 36t16.5 36t39.5 15t39.5 -15t16.5 -36t-16.5 -36t-39.5 -15zM505 809q-23 0 -39.5 15t-16.5 36t16.5 36t39.5 15t39.5 -15t16.5 -36t-16.5 -36t-39.5 -15zM375 -18q-69 0 -128 22t-106 65t-74 114.5t-27 164.5q0 172 96.5 269t238.5 97
t238.5 -97t96.5 -269q0 -93 -27 -164.5t-74 -114.5t-106 -65t-128 -22zM375 -2q59 0 105.5 30t74 81t41.5 112t14 127q0 63 -14 123t-41 112t-73.5 83.5t-106.5 31.5q-59 0 -106 -31.5t-74 -83.5t-41 -112t-14 -123q0 -91 23 -167.5t78 -129.5t134 -53z" />
    <glyph glyph-name="Oslash" unicode="&#xd8;" horiz-adv-x="750" 
d="M616 614q94 -99 94 -266q0 -93 -27 -164.5t-74 -114.5t-106 -65t-128 -22q-140 0 -229 82l-68 -80h-32l83 97q-89 97 -89 267q0 172 96.5 269t238.5 97q133 0 224 -83l58 68h32zM140 348q0 -120 39 -208l377 441q-65 117 -181 117q-59 0 -106 -31.5t-74 -83.5t-41 -112
t-14 -123zM375 -2q59 0 105.5 30t74 81t41.5 112t14 127q0 118 -42 209l-377 -441q64 -118 184 -118z" />
    <glyph glyph-name="Ugrave" unicode="&#xd9;" horiz-adv-x="759" 
d="M515 766l5 8q-84 64 -150 124q-51 47 -68 19q-21 -28 41 -59q73 -34 172 -92zM729 700v-10q-49 0 -67.5 -11t-18.5 -40l4 -389q0 -53 -11.5 -98.5t-37 -84t-72 -60.5t-109.5 -22q-131 0 -205.5 65t-74.5 177v404q0 35 -21.5 47t-85.5 12v10h699zM439 36q83 0 132.5 55
t50.5 169l4 391q-3 28 -40 36t-156 8q-120 0 -166.5 -14.5t-46.5 -49.5v-364q0 -109 60.5 -170t161.5 -61z" />
    <glyph glyph-name="Uacute" unicode="&#xda;" horiz-adv-x="759" 
d="M295 766q99 58 172 92q62 31 41 59q-17 28 -68 -19q-66 -60 -150 -124zM729 700v-10q-49 0 -67.5 -11t-18.5 -40l4 -389q0 -53 -11.5 -98.5t-37 -84t-72 -60.5t-109.5 -22q-131 0 -205.5 65t-74.5 177v404q0 35 -21.5 47t-85.5 12v10h699zM439 36q83 0 132.5 55t50.5 169
l4 391q-3 28 -40 36t-156 8q-120 0 -166.5 -14.5t-46.5 -49.5v-364q0 -109 60.5 -170t161.5 -61z" />
    <glyph glyph-name="Ucircumflex" unicode="&#xdb;" horiz-adv-x="759" 
d="M394 889l-96 -128l-11 8l121 166l133 -154l-28 -25zM30 700h699v-10q-49 0 -67.5 -11t-18.5 -40l4 -389q0 -53 -11.5 -98.5t-37 -84t-72 -60.5t-109.5 -22q-131 0 -205.5 65t-74.5 177v404q0 35 -21.5 47t-85.5 12v10zM622 260l4 391q-3 28 -40 36t-156 8
q-120 0 -166.5 -14.5t-46.5 -49.5v-364q0 -109 60.5 -170t161.5 -61q83 0 132.5 55t50.5 169z" />
    <glyph glyph-name="Udieresis" unicode="&#xdc;" horiz-adv-x="759" 
d="M270 799q-23 0 -39.5 15t-16.5 36t16.5 36t39.5 15t39.5 -15t16.5 -36t-16.5 -36t-39.5 -15zM530 799q-23 0 -39.5 15t-16.5 36t16.5 36t39.5 15t39.5 -15t16.5 -36t-16.5 -36t-39.5 -15zM729 700v-10q-49 0 -67.5 -11t-18.5 -40l4 -389q0 -53 -11.5 -98.5t-37 -84
t-72 -60.5t-109.5 -22q-131 0 -205.5 65t-74.5 177v404q0 35 -21.5 47t-85.5 12v10h699zM439 36q83 0 132.5 55t50.5 169l4 391q-3 28 -40 36t-156 8q-120 0 -166.5 -14.5t-46.5 -49.5v-364q0 -109 60.5 -170t161.5 -61z" />
    <glyph glyph-name="Yacute" unicode="&#xdd;" horiz-adv-x="677" 
d="M406 858q-73 -34 -172 -92l-5 8q84 64 150 124q51 47 68 19q21 -28 -41 -59zM662 700v-10q-28 0 -40 -0.5t-26 -2.5t-20 -6.5t-9 -13.5l-190 -477l-36 -121q-12 -38 12.5 -51t99.5 -13v-5h-283v5q62 0 87.5 13.5t37.5 42.5l47 125l-231 481h-1q-6 16 -25 19.5t-70 3.5v10
h647zM378 696q-99 0 -132 -4.5t-34 -19.5l181 -403l147 399q2 10 -4 15t-26 8t-48.5 4t-83.5 1z" />
    <glyph glyph-name="Thorn" unicode="&#xde;" horiz-adv-x="670" 
d="M368 614q57 0 103.5 -11.5t85.5 -36.5t60.5 -69t21.5 -103q0 -207 -249 -207h-212v-187h-161v10q47 0 66.5 14t19.5 43v566q0 29 -19.5 43t-66.5 14v10h161v-86h190zM375 203q62 0 110.5 49t48.5 142q0 54 -17.5 94.5t-46 62t-58 32t-58.5 10.5h-176v-390h197z" />
    <glyph glyph-name="germandbls" unicode="&#xdf;" horiz-adv-x="588" 
d="M449 300q54 -23 87 -69.5t32 -101.5q-1 -63 -44.5 -103.5t-105.5 -40.5q-36 0 -64 7t-44 14.5t-58 31.5l-37 178h11q40 -118 68.5 -161.5t68.5 -53.5q64 -16 98 19t28 94q-5 53 -29 84t-71 52l-55 25q-91 41 -82 116q3 23 18.5 40.5t35 30.5t39 27t33 38t13.5 56
q0 27 -7.5 52.5t-31 47.5t-59.5 22q-51 0 -80 -47.5t-29 -128.5l-1 -496v-33h-161v10q48 0 67 14.5t19 44.5v471q0 55 20.5 92.5t54 54t64 23t64.5 6.5q75 0 115 -34.5t40 -95.5q0 -33 -24.5 -59t-54.5 -40.5t-57 -33.5t-30 -39q-8 -45 66 -78z" />
    <glyph glyph-name="agrave" unicode="&#xe0;" horiz-adv-x="523" 
d="M185 683q-62 31 -41 59q17 28 68 -19q66 -60 150 -124l-5 -8q-99 58 -172 92zM499 75l9 -10l-113 -74q-14 0 -25.5 17t-11.5 52v52q-26 -53 -72.5 -90t-108.5 -37q-65 0 -103.5 34.5t-38.5 108.5q0 102 86 141l-65 163q93 95 197 95q180 0 180 -154v-311q1 -13 10 -13
q6 0 56 26zM120 304q5 -20 10 -32q40 16 82 13l146 -10v88q0 73 -24.5 112t-87.5 39q-71 0 -109.5 -64t-16.5 -146zM207 20q61 0 106 48.5t45 106.5v73l-102 6q-34 2 -63 -7.5t-51.5 -40.5t-22.5 -82q0 -49 24.5 -76.5t63.5 -27.5z" />
    <glyph glyph-name="aacute" unicode="&#xe1;" horiz-adv-x="523" 
d="M309 683q-73 -34 -172 -92l-5 8q84 64 150 124q51 47 68 19q21 -28 -41 -59zM499 75l9 -10l-113 -74q-14 0 -25.5 17t-11.5 52v52q-26 -53 -72.5 -90t-108.5 -37q-65 0 -103.5 34.5t-38.5 108.5q0 102 86 141l-65 163q93 95 197 95q180 0 180 -154v-311q1 -13 10 -13
q6 0 56 26zM120 304q5 -20 10 -32q40 16 82 13l146 -10v88q0 73 -24.5 112t-87.5 39q-71 0 -109.5 -64t-16.5 -146zM207 20q61 0 106 48.5t45 106.5v73l-102 6q-34 2 -63 -7.5t-51.5 -40.5t-22.5 -82q0 -49 24.5 -76.5t63.5 -27.5z" />
    <glyph glyph-name="acircumflex" unicode="&#xe2;" horiz-adv-x="523" 
d="M236 714l-96 -128l-11 8l121 166l133 -154l-28 -25zM499 75l9 -10l-113 -74q-14 0 -25.5 17t-11.5 52v52q-26 -53 -72.5 -90t-108.5 -37q-65 0 -103.5 34.5t-38.5 108.5q0 102 86 141l-65 163q93 95 197 95q180 0 180 -154v-311q1 -13 10 -13q6 0 56 26zM120 304
q5 -20 10 -32q40 16 82 13l146 -10v88q0 73 -24.5 112t-87.5 39q-71 0 -109.5 -64t-16.5 -146zM207 20q61 0 106 48.5t45 106.5v73l-102 6q-34 2 -63 -7.5t-51.5 -40.5t-22.5 -82q0 -49 24.5 -76.5t63.5 -27.5z" />
    <glyph glyph-name="atilde" unicode="&#xe3;" horiz-adv-x="523" 
d="M165 646q-61 0 -61 -66h-13q4 117 85 117q37 0 83.5 -32.5t71.5 -32.5q49 0 54 66h12q0 -70 -18 -93.5t-58 -23.5q-27 0 -79 32.5t-77 32.5zM499 75l9 -10l-113 -74q-14 0 -25.5 17t-11.5 52v52q-26 -53 -72.5 -90t-108.5 -37q-65 0 -103.5 34.5t-38.5 108.5
q0 102 86 141l-65 163q93 95 197 95q180 0 180 -154v-311q1 -13 10 -13q6 0 56 26zM120 304q5 -20 10 -32q40 16 82 13l146 -10v88q0 73 -24.5 112t-87.5 39q-71 0 -109.5 -64t-16.5 -146zM207 20q61 0 106 48.5t45 106.5v73l-102 6q-34 2 -63 -7.5t-51.5 -40.5t-22.5 -82
q0 -49 24.5 -76.5t63.5 -27.5z" />
    <glyph glyph-name="adieresis" unicode="&#xe4;" horiz-adv-x="523" 
d="M112 624q-23 0 -39.5 15t-16.5 36t16.5 36t39.5 15t39.5 -15t16.5 -36t-16.5 -36t-39.5 -15zM372 624q-23 0 -39.5 15t-16.5 36t16.5 36t39.5 15t39.5 -15t16.5 -36t-16.5 -36t-39.5 -15zM499 75l9 -10l-113 -74q-14 0 -25.5 17t-11.5 52v52q-26 -53 -72.5 -90
t-108.5 -37q-65 0 -103.5 34.5t-38.5 108.5q0 102 86 141l-65 163q93 95 197 95q180 0 180 -154v-311q1 -13 10 -13q6 0 56 26zM120 304q5 -20 10 -32q40 16 82 13l146 -10v88q0 73 -24.5 112t-87.5 39q-71 0 -109.5 -64t-16.5 -146zM207 20q61 0 106 48.5t45 106.5v73
l-102 6q-34 2 -63 -7.5t-51.5 -40.5t-22.5 -82q0 -49 24.5 -76.5t63.5 -27.5z" />
    <glyph glyph-name="aring" unicode="&#xe5;" horiz-adv-x="523" 
d="M242 590q-56 0 -56 62q0 30 15.5 46t40.5 16t40.5 -16t15.5 -46q0 -62 -56 -62zM242 709q-36 0 -36 -57t36 -57t36 57t-36 57zM499 75l9 -10l-113 -74q-14 0 -25.5 17t-11.5 52v52q-26 -53 -72.5 -90t-108.5 -37q-65 0 -103.5 34.5t-38.5 108.5q0 102 86 141l-65 163
q93 95 197 95q180 0 180 -154v-311q1 -13 10 -13q6 0 56 26zM120 304q5 -20 10 -32q40 16 82 13l146 -10v88q0 73 -24.5 112t-87.5 39q-71 0 -109.5 -64t-16.5 -146zM207 20q61 0 106 48.5t45 106.5v73l-102 6q-34 2 -63 -7.5t-51.5 -40.5t-22.5 -82q0 -49 24.5 -76.5
t63.5 -27.5z" />
    <glyph glyph-name="ae" unicode="&#xe6;" horiz-adv-x="831" 
d="M795 303q12 -282 -165 -312q-130 -23 -207 64v-6q-39 41 -52 70q-16 -57 -64.5 -98t-123.5 -41q-68 0 -108 38.5t-40 114.5t59 116q-56 170 7 239q48 52 167 48q112 -3 143 -90q61 82 180 82q96 0 146.5 -56.5t54.5 -138.5l-5 -8h-332q-5 -42 -5 -67q0 -114 53.5 -182.5
t146.5 -49.5q70 15 106.5 90.5t32.5 186.5h6zM591 512q-109 -8 -134 -173h254q16 79 -14.5 129t-105.5 44zM110 475q-60 -59 -7 -220q48 28 109 25l146 -10v103q0 60 -33 94t-87 39q-88 7 -128 -31zM358 170v1v72l-102 6q-54 4 -95.5 -23t-41.5 -87q0 -130 88 -130
q40 0 71 18.5t47.5 45.5t24.5 52.5t8 44.5z" />
    <glyph glyph-name="ccedilla" unicode="&#xe7;" horiz-adv-x="501" 
d="M289 -14q-10 -1 -30 -1l-10 -31q47 7 76 -13t32 -53q4 -42 -22 -65.5t-65 -23.5q-34 0 -57.5 18.5t-32.5 44.5l23 14q6 -33 24.5 -49.5t42.5 -16.5q62 0 54 69q-9 74 -98 62l9 46q-91 12 -145 84.5t-55 187.5q0 133 69 200.5t179 67.5q35 0 79.5 -11.5t72.5 -27.5
l21 -168h-8q-19 105 -60.5 150t-104.5 45q-157 0 -157 -259q1 -69 19 -125.5t59 -91.5t99 -28q77 9 113 64t40 193h10q0 -58 -7.5 -103t-25.5 -86t-54.5 -65t-89.5 -28z" />
    <glyph glyph-name="egrave" unicode="&#xe8;" horiz-adv-x="508" 
d="M378 601l5 8q-84 64 -150 124q-51 47 -68 19q-21 -28 41 -59q73 -34 172 -92zM307 -9q-121 -20 -196.5 53.5t-75.5 213.5q0 135 64.5 202.5t168.5 67.5q96 0 146.5 -56.5t54.5 -138.5l-5 -8h-332q-5 -42 -5 -67q0 -114 53.5 -182.5t146.5 -49.5q70 15 106.5 90.5
t32.5 186.5h6q12 -282 -165 -312zM134 339h254q16 79 -14.5 129t-105.5 44q-109 -8 -134 -173z" />
    <glyph glyph-name="eacute" unicode="&#xe9;" horiz-adv-x="508" 
d="M158 601q99 58 172 92q62 31 41 59q-17 28 -68 -19q-66 -60 -150 -124zM307 -9q-121 -20 -196.5 53.5t-75.5 213.5q0 135 64.5 202.5t168.5 67.5q96 0 146.5 -56.5t54.5 -138.5l-5 -8h-332q-5 -42 -5 -67q0 -114 53.5 -182.5t146.5 -49.5q70 15 106.5 90.5t32.5 186.5h6
q12 -282 -165 -312zM134 339h254q16 79 -14.5 129t-105.5 44q-109 -8 -134 -173z" />
    <glyph glyph-name="ecircumflex" unicode="&#xea;" horiz-adv-x="508" 
d="M257 724l-96 -128l-11 8l121 166l133 -154l-28 -25zM472 303q12 -282 -165 -312q-121 -20 -196.5 53.5t-75.5 213.5q0 135 64.5 202.5t168.5 67.5q96 0 146.5 -56.5t54.5 -138.5l-5 -8h-332q-5 -42 -5 -67q0 -114 53.5 -182.5t146.5 -49.5q70 15 106.5 90.5t32.5 186.5h6
zM268 512q-109 -8 -134 -173h254q16 79 -14.5 129t-105.5 44z" />
    <glyph glyph-name="edieresis" unicode="&#xeb;" horiz-adv-x="508" 
d="M133 634q-23 0 -39.5 15t-16.5 36t16.5 36t39.5 15t39.5 -15t16.5 -36t-16.5 -36t-39.5 -15zM393 634q-23 0 -39.5 15t-16.5 36t16.5 36t39.5 15t39.5 -15t16.5 -36t-16.5 -36t-39.5 -15zM307 -9q-121 -20 -196.5 53.5t-75.5 213.5q0 135 64.5 202.5t168.5 67.5
q96 0 146.5 -56.5t54.5 -138.5l-5 -8h-332q-5 -42 -5 -67q0 -114 53.5 -182.5t146.5 -49.5q70 15 106.5 90.5t32.5 186.5h6q12 -282 -165 -312zM134 339h254q16 79 -14.5 129t-105.5 44q-109 -8 -134 -173z" />
    <glyph glyph-name="igrave" unicode="&#xec;" horiz-adv-x="284" 
d="M95 688q-62 31 -41 59q17 28 68 -19q66 -60 150 -124l-5 -8q-99 58 -172 92zM183 63q1 -32 17 -42.5t69 -10.5v-10h-247v10q48 0 67 14.5t19 44.5v346q-1 16 -6.5 23t-25.5 0.5t-53 -34.5l-8 10l147 116h22z" />
    <glyph glyph-name="iacute" unicode="&#xed;" horiz-adv-x="284" 
d="M219 688q-73 -34 -172 -92l-5 8q84 64 150 124q51 47 68 19q21 -28 -41 -59zM183 63q1 -32 17 -42.5t69 -10.5v-10h-247v10q48 0 67 14.5t19 44.5v346q-1 16 -6.5 23t-25.5 0.5t-53 -34.5l-8 10l147 116h22z" />
    <glyph glyph-name="icircumflex" unicode="&#xee;" horiz-adv-x="284" 
d="M146 719l-96 -128l-11 8l121 166l133 -154l-28 -25zM183 63q1 -32 17 -42.5t69 -10.5v-10h-247v10q48 0 67 14.5t19 44.5v346q-1 16 -6.5 23t-25.5 0.5t-53 -34.5l-8 10l147 116h22z" />
    <glyph glyph-name="idieresis" unicode="&#xef;" horiz-adv-x="284" 
d="M78 680q0 -21 -16.5 -36t-39.5 -15t-39.5 15t-16.5 36t16.5 36t39.5 15t39.5 -15t16.5 -36zM282 731q23 0 39.5 -15t16.5 -36t-16.5 -36t-39.5 -15t-39.5 15t-16.5 36t16.5 36t39.5 15zM183 63q1 -32 17 -42.5t69 -10.5v-10h-247v10q48 0 67 14.5t19 44.5v346
q-1 16 -6.5 23t-25.5 0.5t-53 -34.5l-8 10l147 116h22z" />
    <glyph glyph-name="eth" unicode="&#xf0;" horiz-adv-x="560" 
d="M491 425q33 -76 34 -169.5t-29 -155.5q-22 -45 -57.5 -75t-76.5 -41t-82.5 -9t-80.5 16q-90 33 -126.5 115t-15.5 172q21 86 94 130.5t147 30.5q87 -16 128 -84q-8 28 -18 58q-30 94 -76 149q-40 48 -95 80l-91 -52l-8 15l81 47q-71 35 -161 43l-1 6q102 -1 185 -36
l87 50l8 -15l-75 -43q85 -39 142.5 -103t86.5 -129zM436 161q13 58 3 130q-13 57 -48.5 91t-88.5 42q-62 10 -107 -48t-62 -146q-14 -73 2.5 -137.5t70.5 -85.5q70 -27 138.5 15.5t91.5 138.5z" />
    <glyph glyph-name="ntilde" unicode="&#xf1;" horiz-adv-x="608" 
d="M242 666q-61 0 -61 -66h-13q4 117 85 117q37 0 83.5 -32.5t71.5 -32.5q49 0 54 66h12q0 -70 -18 -93.5t-58 -23.5q-27 0 -79 32.5t-77 32.5zM507 69q0 -36 15.5 -47.5t70.5 -11.5v-10h-243v10q53 0 67.5 13.5t14.5 45.5v258q0 91 -19.5 126.5t-82.5 35.5
q-54 0 -93.5 -38.5t-44.5 -89.5l-1 -298q1 -32 17 -42.5t69 -10.5v-10h-247v10q48 0 67 14.5t19 44.5v357q0 50 -15 64.5t-71 14.5v10h162v-114q17 47 66 87.5t114 40.5q135 0 135 -139v-321z" />
    <glyph glyph-name="ograve" unicode="&#xf2;" horiz-adv-x="554" 
d="M392 591l5 8q-84 64 -150 124q-51 47 -68 19q-21 -28 41 -59q73 -34 172 -92zM277 -11q-109 0 -175.5 66t-66.5 203q0 131 67.5 200t174.5 69t174.5 -69t67.5 -200q0 -137 -66.5 -203t-175.5 -66zM277 0q152 0 152 258t-152 258t-152 -258t152 -258z" />
    <glyph glyph-name="oacute" unicode="&#xf3;" horiz-adv-x="554" 
d="M172 591q99 58 172 92q62 31 41 59q-17 28 -68 -19q-66 -60 -150 -124zM277 -11q-109 0 -175.5 66t-66.5 203q0 131 67.5 200t174.5 69t174.5 -69t67.5 -200q0 -137 -66.5 -203t-175.5 -66zM277 0q152 0 152 258t-152 258t-152 -258t152 -258z" />
    <glyph glyph-name="ocircumflex" unicode="&#xf4;" horiz-adv-x="554" 
d="M271 714l-96 -128l-11 8l121 166l133 -154l-28 -25zM277 527q107 0 174.5 -69t67.5 -200q0 -137 -66.5 -203t-175.5 -66t-175.5 66t-66.5 203q0 131 67.5 200t174.5 69zM277 0q152 0 152 258t-152 258t-152 -258t152 -258z" />
    <glyph glyph-name="otilde" unicode="&#xf5;" horiz-adv-x="554" 
d="M432 698q0 -70 -18 -93.5t-58 -23.5q-27 0 -79 32.5t-77 32.5q-61 0 -61 -66h-13q4 117 85 117q37 0 83.5 -32.5t71.5 -32.5q49 0 54 66h12zM277 -11q-109 0 -175.5 66t-66.5 203q0 131 67.5 200t174.5 69t174.5 -69t67.5 -200q0 -137 -66.5 -203t-175.5 -66zM277 0
q152 0 152 258t-152 258t-152 -258t152 -258z" />
    <glyph glyph-name="odieresis" unicode="&#xf6;" horiz-adv-x="554" 
d="M147 624q-23 0 -39.5 15t-16.5 36t16.5 36t39.5 15t39.5 -15t16.5 -36t-16.5 -36t-39.5 -15zM407 624q-23 0 -39.5 15t-16.5 36t16.5 36t39.5 15t39.5 -15t16.5 -36t-16.5 -36t-39.5 -15zM277 -11q-109 0 -175.5 66t-66.5 203q0 131 67.5 200t174.5 69t174.5 -69
t67.5 -200q0 -137 -66.5 -203t-175.5 -66zM277 0q152 0 152 258t-152 258t-152 -258t152 -258z" />
    <glyph glyph-name="oslash" unicode="&#xf8;" horiz-adv-x="554" 
d="M591 607l-133 -156q61 -71 61 -193q0 -137 -66.5 -203t-175.5 -66q-104 0 -166 56l-131 -153h-32l146 171q-59 69 -59 195q0 131 67.5 200t174.5 69q100 0 164 -58l118 138h32zM125 258q0 -85 16 -141l262 308q-38 91 -126 91q-152 0 -152 -258zM429 258q0 84 -17 140
l-262 -307q35 -91 127 -91q152 0 152 258z" />
    <glyph glyph-name="ugrave" unicode="&#xf9;" 
d="M233 673q-62 31 -41 59q17 28 68 -19q66 -60 150 -124l-5 -8q-99 58 -172 92zM501 69q0 -36 15.5 -47.5t70.5 -11.5v-10h-161v111q-44 -126 -176 -126q-66 0 -107.5 42.5t-41.5 126.5v292q0 36 -15.5 47.5t-70.5 11.5v10h161v-321q0 -86 26.5 -127t85.5 -41t95 39t43 92
v289q0 36 -15.5 47.5t-70.5 11.5v10h161v-446z" />
    <glyph glyph-name="uacute" unicode="&#xfa;" 
d="M357 673q-73 -34 -172 -92l-5 8q84 64 150 124q51 47 68 19q21 -28 -41 -59zM501 69q0 -36 15.5 -47.5t70.5 -11.5v-10h-161v111q-44 -126 -176 -126q-66 0 -107.5 42.5t-41.5 126.5v292q0 36 -15.5 47.5t-70.5 11.5v10h161v-321q0 -86 26.5 -127t85.5 -41t95 39t43 92
v289q0 36 -15.5 47.5t-70.5 11.5v10h161v-446z" />
    <glyph glyph-name="ucircumflex" unicode="&#xfb;" 
d="M284 704l-96 -128l-11 8l121 166l133 -154l-28 -25zM501 69q0 -36 15.5 -47.5t70.5 -11.5v-10h-161v111q-44 -126 -176 -126q-66 0 -107.5 42.5t-41.5 126.5v292q0 36 -15.5 47.5t-70.5 11.5v10h161v-321q0 -86 26.5 -127t85.5 -41t95 39t43 92v289q0 36 -15.5 47.5
t-70.5 11.5v10h161v-446z" />
    <glyph glyph-name="udieresis" unicode="&#xfc;" 
d="M160 614q-23 0 -39.5 15t-16.5 36t16.5 36t39.5 15t39.5 -15t16.5 -36t-16.5 -36t-39.5 -15zM420 614q-23 0 -39.5 15t-16.5 36t16.5 36t39.5 15t39.5 -15t16.5 -36t-16.5 -36t-39.5 -15zM501 69q0 -36 15.5 -47.5t70.5 -11.5v-10h-161v111q-44 -126 -176 -126
q-66 0 -107.5 42.5t-41.5 126.5v292q0 36 -15.5 47.5t-70.5 11.5v10h161v-321q0 -86 26.5 -127t85.5 -41t95 39t43 92v289q0 36 -15.5 47.5t-70.5 11.5v10h161v-446z" />
    <glyph glyph-name="yacute" unicode="&#xfd;" horiz-adv-x="607" 
d="M384 673q-73 -34 -172 -92l-5 8q84 64 150 124q51 47 68 19q21 -28 -41 -59zM597 515v-10q-48 0 -66 -3t-26 -15l-160 -473l-60 -214h-150v5q58 0 84.5 12t36.5 37l5 14v1l51 146l-210 473q-8 12 -26 14.5t-66 2.5v10h587zM196 482l155 -406l123 399h-1q8 23 -5 29
q-16 7 -131 7q-124 0 -137 -9q-8 -5 -4 -20z" />
    <glyph glyph-name="thorn" unicode="&#xfe;" horiz-adv-x="600" 
d="M323 527q103 12 167 -51.5t64 -220.5q0 -71 -20 -127t-51.5 -87t-66 -46.5t-67.5 -15.5q-57 0 -95.5 25.5t-75.5 78.5v-283h-161v10q47 0 66 14t20 43v168h-1v430h1v168q-1 29 -20 43t-66 14v10h161v-283q22 44 62.5 74.5t82.5 35.5zM319 0q65 0 105 66.5t40 182.5
q0 268 -162 250q-39 -5 -73.5 -38t-50.5 -85l-1 -126l1 -142q35 -52 67.5 -80t73.5 -28z" />
    <glyph glyph-name="ydieresis" unicode="&#xff;" horiz-adv-x="607" 
d="M187 614q-23 0 -39.5 15t-16.5 36t16.5 36t39.5 15t39.5 -15t16.5 -36t-16.5 -36t-39.5 -15zM447 614q-23 0 -39.5 15t-16.5 36t16.5 36t39.5 15t39.5 -15t16.5 -36t-16.5 -36t-39.5 -15zM597 515v-10q-48 0 -66 -3t-26 -15l-160 -473l-60 -214h-150v5q58 0 84.5 12
t36.5 37l5 14v1l51 146l-210 473q-8 12 -26 14.5t-66 2.5v10h587zM196 482l155 -406l123 399h-1q8 23 -5 29q-16 7 -131 7q-124 0 -137 -9q-8 -5 -4 -20z" />
    <glyph glyph-name="Amacron" unicode="&#x100;" horiz-adv-x="829" 
d="M544 814v-20h-349v20h349zM691 37q11 -17 37 -22t86 -5v-10h-799v10q53 0 74.5 6t31.5 23l243 587l-9 23h-1q-8 20 -19 26.5t-51 10.5t-135 4v10h262zM498 289l-123 309l-120 -309h243zM359 6q157 0 201.5 8t31.5 40l-88 220h-255l-85 -219h1q-12 -29 10 -38
q27 -11 184 -11z" />
    <glyph glyph-name="amacron" unicode="&#x101;" horiz-adv-x="523" 
d="M411 639v-20h-349v20h349zM499 75l9 -10l-113 -74q-14 0 -25.5 17t-11.5 52v52q-26 -53 -72.5 -90t-108.5 -37q-65 0 -103.5 34.5t-38.5 108.5q0 102 86 141l-65 163q93 95 197 95q180 0 180 -154v-311q1 -13 10 -13q6 0 56 26zM120 304q5 -20 10 -32q40 16 82 13
l146 -10v88q0 73 -24.5 112t-87.5 39q-71 0 -109.5 -64t-16.5 -146zM207 20q61 0 106 48.5t45 106.5v73l-102 6q-34 2 -63 -7.5t-51.5 -40.5t-22.5 -82q0 -49 24.5 -76.5t63.5 -27.5z" />
    <glyph glyph-name="Abreve" unicode="&#x102;" horiz-adv-x="829" 
d="M375 759q-46 0 -76 27.5t-31 82.5h34q0 -95 73 -95t73 95h34q-1 -55 -31 -82.5t-76 -27.5zM691 37q11 -17 37 -22t86 -5v-10h-799v10q53 0 74.5 6t31.5 23l243 587l-9 23h-1q-8 20 -19 26.5t-51 10.5t-135 4v10h262zM498 289l-123 309l-120 -309h243zM359 6
q157 0 201.5 8t31.5 40l-88 220h-255l-85 -219h1q-12 -29 10 -38q27 -11 184 -11z" />
    <glyph glyph-name="abreve" unicode="&#x103;" horiz-adv-x="523" 
d="M242 584q-46 0 -76 27.5t-31 82.5h34q0 -95 73 -95t73 95h34q-1 -55 -31 -82.5t-76 -27.5zM499 75l9 -10l-113 -74q-14 0 -25.5 17t-11.5 52v52q-26 -53 -72.5 -90t-108.5 -37q-65 0 -103.5 34.5t-38.5 108.5q0 102 86 141l-65 163q93 95 197 95q180 0 180 -154v-311
q1 -13 10 -13q6 0 56 26zM120 304q5 -20 10 -32q40 16 82 13l146 -10v88q0 73 -24.5 112t-87.5 39q-71 0 -109.5 -64t-16.5 -146zM207 20q61 0 106 48.5t45 106.5v73l-102 6q-34 2 -63 -7.5t-51.5 -40.5t-22.5 -82q0 -49 24.5 -76.5t63.5 -27.5z" />
    <glyph glyph-name="Aogonek" unicode="&#x104;" horiz-adv-x="829" 
d="M731 0q-62 -53 -41 -106q9 -23 35.5 -31t57.5 3v-26q-49 -26 -90.5 -9t-44.5 68q-2 24 15.5 53.5t49.5 47.5h-698v10q53 0 74.5 6t31.5 23l243 587l-9 23h-1q-8 20 -19 26.5t-51 10.5t-135 4v10h262l280 -663q11 -17 37 -22t86 -5v-10h-83zM498 289l-123 309l-120 -309
h243zM359 6q157 0 201.5 8t31.5 40l-88 220h-255l-85 -219h1q-12 -29 10 -38q27 -11 184 -11z" />
    <glyph glyph-name="aogonek" unicode="&#x105;" horiz-adv-x="523" 
d="M401 -92q9 -23 35.5 -31t57.5 3v-26q-49 -26 -90.5 -9t-44.5 68q-2 41 35 78q-14 1 -25 18t-11 51v52q-26 -53 -72.5 -90t-108.5 -37q-65 0 -103.5 34.5t-38.5 108.5q0 102 86 141l-65 163q93 95 197 95q180 0 180 -154v-311q1 -13 10 -13q6 0 56 26l9 -10l-64 -42l1 1h2
l5 -2q-74 -56 -51 -114zM120 304q5 -20 10 -32q40 16 82 13l146 -10v88q0 73 -24.5 112t-87.5 39q-71 0 -109.5 -64t-16.5 -146zM207 20q61 0 106 48.5t45 106.5v73l-102 6q-34 2 -63 -7.5t-51.5 -40.5t-22.5 -82q0 -49 24.5 -76.5t63.5 -27.5z" />
    <glyph glyph-name="Cacute" unicode="&#x106;" horiz-adv-x="738" 
d="M302 766q99 58 172 92q62 31 41 59q-17 28 -68 -19q-66 -60 -150 -124zM686 263h12l-48 -222q-108 -56 -236 -56q-78 0 -144 21t-118.5 63.5t-82 114t-29.5 165.5t29.5 165.5t81.5 114t116.5 63.5t140.5 21q140 0 242 -56l38 -222h-12q-19 78 -36 121t-46.5 79t-74.5 50
t-114 14q-124 0 -194 -102t-70 -248q0 -142 77.5 -243.5t195.5 -101.5q47 0 82 6.5t60.5 22t43 34t32.5 50t26 62t26 77.5q1 5 2 7z" />
    <glyph glyph-name="cacute" unicode="&#x107;" horiz-adv-x="501" 
d="M146 581q99 58 172 92q62 31 41 59q-17 28 -68 -19q-66 -60 -150 -124zM456 268h10q0 -58 -7.5 -103t-25.5 -86t-54.5 -65t-89.5 -28q-114 -8 -183.5 67t-70.5 206q0 133 69 200.5t179 67.5q35 0 79.5 -11.5t72.5 -27.5l21 -168h-8q-19 105 -60.5 150t-104.5 45
q-157 0 -157 -259q1 -69 19 -125.5t59 -91.5t99 -28q77 9 113 64t40 193z" />
    <glyph glyph-name="Cdotaccent" unicode="&#x10a;" horiz-adv-x="738" 
d="M407 799q-23 0 -39.5 15t-16.5 36t16.5 36t39.5 15t39.5 -15t16.5 -36t-16.5 -36t-39.5 -15zM686 263h12l-48 -222q-108 -56 -236 -56q-78 0 -144 21t-118.5 63.5t-82 114t-29.5 165.5t29.5 165.5t81.5 114t116.5 63.5t140.5 21q140 0 242 -56l38 -222h-12
q-19 78 -36 121t-46.5 79t-74.5 50t-114 14q-124 0 -194 -102t-70 -248q0 -142 77.5 -243.5t195.5 -101.5q47 0 82 6.5t60.5 22t43 34t32.5 50t26 62t26 77.5q1 5 2 7z" />
    <glyph glyph-name="cdotaccent" unicode="&#x10b;" horiz-adv-x="501" 
d="M251 614q-23 0 -39.5 15t-16.5 36t16.5 36t39.5 15t39.5 -15t16.5 -36t-16.5 -36t-39.5 -15zM456 268h10q0 -58 -7.5 -103t-25.5 -86t-54.5 -65t-89.5 -28q-114 -8 -183.5 67t-70.5 206q0 133 69 200.5t179 67.5q35 0 79.5 -11.5t72.5 -27.5l21 -168h-8
q-19 105 -60.5 150t-104.5 45q-157 0 -157 -259q1 -69 19 -125.5t59 -91.5t99 -28q77 9 113 64t40 193z" />
    <glyph glyph-name="Ccaron" unicode="&#x10c;" horiz-adv-x="738" 
d="M521 904l-133 -154l-121 166l11 8l96 -128l119 133zM686 263h12l-48 -222q-108 -56 -236 -56q-78 0 -144 21t-118.5 63.5t-82 114t-29.5 165.5t29.5 165.5t81.5 114t116.5 63.5t140.5 21q140 0 242 -56l38 -222h-12q-19 78 -36 121t-46.5 79t-74.5 50t-114 14
q-124 0 -194 -102t-70 -248q0 -142 77.5 -243.5t195.5 -101.5q47 0 82 6.5t60.5 22t43 34t32.5 50t26 62t26 77.5q1 5 2 7z" />
    <glyph glyph-name="ccaron" unicode="&#x10d;" horiz-adv-x="501" 
d="M365 719l-133 -154l-121 166l11 8l96 -128l119 133zM456 268h10q0 -58 -7.5 -103t-25.5 -86t-54.5 -65t-89.5 -28q-114 -8 -183.5 67t-70.5 206q0 133 69 200.5t179 67.5q35 0 79.5 -11.5t72.5 -27.5l21 -168h-8q-19 105 -60.5 150t-104.5 45q-157 0 -157 -259
q1 -69 19 -125.5t59 -91.5t99 -28q77 9 113 64t40 193z" />
    <glyph glyph-name="Dcaron" unicode="&#x10e;" horiz-adv-x="770" 
d="M494 904l-133 -154l-121 166l11 8l96 -128l119 133zM396 700q148 0 241 -87t93 -258q0 -173 -93.5 -264t-240.5 -91h-377v10q61 0 81.5 14t20.5 45v562q0 36 -18.5 47.5t-87.5 11.5v10h381zM391 18q98 0 166 89t68 248q0 161 -67 244.5t-167 83.5h-136q-54 -12 -54 -52
v-562q0 -39 45 -51h145z" />
    <glyph glyph-name="dcaron" unicode="&#x10f;" horiz-adv-x="601" 
d="M356 789l-133 -154l-121 166l11 8l96 -128l119 133zM581 73l5 -6l-106 -82q-40 1 -54 27.5t-15 89.5q-55 -113 -179 -113q-89 0 -143 64t-54 203q0 70 20 124t53 84.5t69 45.5t73 15q104 0 160 -103v194q-1 21 -17 16q-17 -5 -63 -37l-7 10l141 110h21l1 -634
q0 -67 95 -8zM267 18q156 0 156 253q0 103 -40 168t-113 65q-65 0 -105 -64.5t-40 -177.5q0 -244 142 -244z" />
    <glyph glyph-name="Dcroat" unicode="&#x110;" horiz-adv-x="770" 
d="M396 700q148 0 241 -87t93 -258q0 -173 -93.5 -264t-240.5 -91h-377v10q61 0 81.5 14t20.5 45v278h-22v25h22v259q0 36 -18.5 47.5t-87.5 11.5v10h381zM391 18q98 0 166 89t68 248q0 161 -67 244.5t-167 83.5h-136q-54 -12 -54 -52v-259h248v-25h-248v-278q0 -39 45 -51
h145z" />
    <glyph glyph-name="dcroat" unicode="&#x111;" horiz-adv-x="601" 
d="M581 73l5 -6l-106 -82q-40 1 -54 27.5t-15 89.5q-55 -113 -179 -113q-89 0 -143 64t-54 203q0 70 20 124t53 84.5t69 45.5t73 15q104 0 160 -103v194q-1 21 -17 16q-17 -5 -63 -37l-7 10l141 110h21l1 -445h50v-25h-50v-164q0 -67 95 -8zM267 18q149 0 156 227h-95v25h95
v1q0 103 -40 168t-113 65q-65 0 -105 -64.5t-40 -177.5q0 -244 142 -244z" />
    <glyph glyph-name="Emacron" unicode="&#x112;" 
d="M453 814v-20h-349v20h349zM579 188h8l-37 -188h-535v10q48 0 67 14.5t19 44.5v562q0 30 -19 44.5t-67 14.5v10h525l37 -197h-8q-42 110 -65 145t-63 36l-194 1q-35 -1 -49 -10t-16 -30v-279h174q20 0 31.5 4t21 23.5t9.5 58.5h7v-198h-7q0 58 -16.5 79t-45.5 21h-174
l-1 -292q2 -30 15 -40l255 5q42 1 65.5 30t62.5 131z" />
    <glyph glyph-name="emacron" unicode="&#x113;" horiz-adv-x="508" 
d="M83 649h349v-20h-349v20zM307 -9q-121 -20 -196.5 53.5t-75.5 213.5q0 135 64.5 202.5t168.5 67.5q96 0 146.5 -56.5t54.5 -138.5l-5 -8h-332q-5 -42 -5 -67q0 -114 53.5 -182.5t146.5 -49.5q70 15 106.5 90.5t32.5 186.5h6q12 -282 -165 -312zM134 339h254
q16 79 -14.5 129t-105.5 44q-109 -8 -134 -173z" />
    <glyph glyph-name="Edotaccent" unicode="&#x116;" 
d="M284 799q-23 0 -39.5 15t-16.5 36t16.5 36t39.5 15t39.5 -15t16.5 -36t-16.5 -36t-39.5 -15zM579 188h8l-37 -188h-535v10q48 0 67 14.5t19 44.5v562q0 30 -19 44.5t-67 14.5v10h525l37 -197h-8q-42 110 -65 145t-63 36l-194 1q-35 -1 -49 -10t-16 -30v-279h174
q20 0 31.5 4t21 23.5t9.5 58.5h7v-198h-7q0 58 -16.5 79t-45.5 21h-174l-1 -292q2 -30 15 -40l255 5q42 1 65.5 30t62.5 131z" />
    <glyph glyph-name="edotaccent" unicode="&#x117;" horiz-adv-x="508" 
d="M263 634q-23 0 -39.5 15t-16.5 36t16.5 36t39.5 15t39.5 -15t16.5 -36t-16.5 -36t-39.5 -15zM307 -9q-121 -20 -196.5 53.5t-75.5 213.5q0 135 64.5 202.5t168.5 67.5q96 0 146.5 -56.5t54.5 -138.5l-5 -8h-332q-5 -42 -5 -67q0 -114 53.5 -182.5t146.5 -49.5
q70 15 106.5 90.5t32.5 186.5h6q12 -282 -165 -312zM134 339h254q16 79 -14.5 129t-105.5 44q-109 -8 -134 -173z" />
    <glyph glyph-name="Eogonek" unicode="&#x118;" 
d="M478 -106q9 -23 35.5 -31t57.5 3v-26q-49 -26 -90.5 -9t-44.5 68q-2 24 15.5 53.5t49.5 47.5h-486v10q48 0 67 14.5t19 44.5v562q0 30 -19 44.5t-67 14.5v10h525l37 -197h-8q-42 110 -65 145t-63 36l-194 1q-35 -1 -49 -10t-16 -30v-279h174q20 0 31.5 4t21 23.5
t9.5 58.5h7v-198h-7q0 58 -16.5 79t-45.5 21h-174l-1 -292q2 -30 15 -40l255 5q42 1 65.5 30t62.5 131h8l-37 -188h-31q-62 -53 -41 -106z" />
    <glyph glyph-name="eogonek" unicode="&#x119;" horiz-adv-x="508" 
d="M318 -106q9 -23 35.5 -31t57.5 3v-26q-49 -26 -90.5 -9t-44.5 68q-2 24 15.5 53.5t49.5 47.5q-14 -6 -34 -9q-121 -20 -196.5 53.5t-75.5 213.5q0 135 64.5 202.5t168.5 67.5q96 0 146.5 -56.5t54.5 -138.5l-5 -8h-332q-5 -42 -5 -67q0 -114 53.5 -182.5t146.5 -49.5
q70 15 106.5 90.5t32.5 186.5h6q10 -229 -109 -293h1l5 -2q-74 -56 -51 -114zM268 512q-109 -8 -134 -173h254q16 79 -14.5 129t-105.5 44z" />
    <glyph glyph-name="Ecaron" unicode="&#x11a;" 
d="M398 904l-133 -154l-121 166l11 8l96 -128l119 133zM579 188h8l-37 -188h-535v10q48 0 67 14.5t19 44.5v562q0 30 -19 44.5t-67 14.5v10h525l37 -197h-8q-42 110 -65 145t-63 36l-194 1q-35 -1 -49 -10t-16 -30v-279h174q20 0 31.5 4t21 23.5t9.5 58.5h7v-198h-7
q0 58 -16.5 79t-45.5 21h-174l-1 -292q2 -30 15 -40l255 5q42 1 65.5 30t62.5 131z" />
    <glyph glyph-name="ecaron" unicode="&#x11b;" horiz-adv-x="508" 
d="M377 739l-133 -154l-121 166l11 8l96 -128l119 133zM472 303q12 -282 -165 -312q-121 -20 -196.5 53.5t-75.5 213.5q0 135 64.5 202.5t168.5 67.5q96 0 146.5 -56.5t54.5 -138.5l-5 -8h-332q-5 -42 -5 -67q0 -114 53.5 -182.5t146.5 -49.5q70 15 106.5 90.5t32.5 186.5h6
zM268 512q-109 -8 -134 -173h254q16 79 -14.5 129t-105.5 44z" />
    <glyph glyph-name="Gbreve" unicode="&#x11e;" horiz-adv-x="783" 
d="M417 759q-46 0 -76 27.5t-31 82.5h34q0 -95 73 -95t73 95h34q-1 -55 -31 -82.5t-76 -27.5zM637 206l81 -96q-19 -10 -51 -35t-57.5 -42.5t-77.5 -32.5t-118 -15q-78 0 -144 21t-118.5 63.5t-82 114t-29.5 165.5t29.5 165.5t81.5 114t116.5 63.5t140.5 21q140 0 242 -56
l38 -222h-7q-15 61 -28.5 99.5t-34.5 73t-49 53t-68 28.5t-96 10q-84 0 -145 -50l373 -439l-1 1zM414 4q92 0 134.5 49t30 122.5t-71.5 148.5l-256 318q-53 -47 -81.5 -125t-28.5 -168q0 -142 77.5 -243.5t195.5 -101.5zM633 210q5 -4 4 -4z" />
    <glyph glyph-name="gbreve" unicode="&#x11f;" horiz-adv-x="557" 
d="M234 574q-46 0 -76 27.5t-31 82.5h34q0 -95 73 -95t73 95h34q-1 -55 -31 -82.5t-76 -27.5zM380 515h152v-10q-50 0 -63 -9t-13 -40v-488q0 -81 -49.5 -127.5t-141.5 -46.5q-113 0 -206 95l73 184q-97 56 -97 216q0 111 47.5 176t133.5 65q114 0 165 -98v24zM251 500
q-63 0 -97 -52t-34 -155t34.5 -157.5t96.5 -54.5q41 0 70 19.5t43 52.5t20 65.5t6 69.5t-6 70.5t-20 67t-43 54t-70 20.5zM258 -193q123 0 123 151v189q-52 -96 -165 -96q-41 0 -75 17q-11 -22 -18 -51q-21 -81 21.5 -145.5t113.5 -64.5z" />
    <glyph glyph-name="Gdotaccent" unicode="&#x120;" horiz-adv-x="783" 
d="M417 799q-23 0 -39.5 15t-16.5 36t16.5 36t39.5 15t39.5 -15t16.5 -36t-16.5 -36t-39.5 -15zM637 206l81 -96q-19 -10 -51 -35t-57.5 -42.5t-77.5 -32.5t-118 -15q-78 0 -144 21t-118.5 63.5t-82 114t-29.5 165.5t29.5 165.5t81.5 114t116.5 63.5t140.5 21q140 0 242 -56
l38 -222h-7q-15 61 -28.5 99.5t-34.5 73t-49 53t-68 28.5t-96 10q-84 0 -145 -50l373 -439l-1 1zM414 4q92 0 134.5 49t30 122.5t-71.5 148.5l-256 318q-53 -47 -81.5 -125t-28.5 -168q0 -142 77.5 -243.5t195.5 -101.5zM633 210q5 -4 4 -4z" />
    <glyph glyph-name="gdotaccent" unicode="&#x121;" horiz-adv-x="557" 
d="M234 614q-23 0 -39.5 15t-16.5 36t16.5 36t39.5 15t39.5 -15t16.5 -36t-16.5 -36t-39.5 -15zM380 515h152v-10q-50 0 -63 -9t-13 -40v-488q0 -81 -49.5 -127.5t-141.5 -46.5q-113 0 -206 95l73 184q-97 56 -97 216q0 111 47.5 176t133.5 65q114 0 165 -98v24zM251 500
q-63 0 -97 -52t-34 -155t34.5 -157.5t96.5 -54.5q41 0 70 19.5t43 52.5t20 65.5t6 69.5t-6 70.5t-20 67t-43 54t-70 20.5zM258 -193q123 0 123 151v189q-52 -96 -165 -96q-41 0 -75 17q-11 -22 -18 -51q-21 -81 21.5 -145.5t113.5 -64.5z" />
    <glyph glyph-name="uni0122" unicode="&#x122;" horiz-adv-x="783" 
d="M718 110q-19 -10 -51 -35t-57.5 -42.5t-77.5 -32.5t-118 -15q-78 0 -144 21t-118.5 63.5t-82 114t-29.5 165.5t29.5 165.5t81.5 114t116.5 63.5t140.5 21q140 0 242 -56l38 -222h-7q-15 61 -28.5 99.5t-34.5 73t-49 53t-68 28.5t-96 10q-84 0 -145 -50l373 -439l-1 1
l5 -5zM141 349q0 -142 77.5 -243.5t195.5 -101.5q92 0 134.5 49t30 122.5t-71.5 148.5l-256 318q-53 -47 -81.5 -125t-28.5 -168zM633 210q5 -4 4 -4zM393 -50q18 0 31.5 -12t18.5 -31q10 -43 -16 -84q-12 -20 -40.5 -39.5t-55.5 -27.5l-1 3q37 16 56 49q9 17 6 31.5
t-15 22.5q-31 20 -31 46q0 18 13.5 30t33.5 12z" />
    <glyph glyph-name="uni0123" unicode="&#x123;" horiz-adv-x="557" 
d="M228 579q-22 0 -38.5 14.5t-21.5 37.5q-12 50 19 100q15 23 49 46.5t66 33.5l1 -3q-47 -21 -67 -59q-10 -20 -7 -38t18 -27q37 -22 37 -54q0 -21 -16.5 -36t-39.5 -15zM380 515h152v-10q-50 0 -63 -9t-13 -40v-488q0 -81 -49.5 -127.5t-141.5 -46.5q-113 0 -206 95
l73 184q-97 56 -97 216q0 111 47.5 176t133.5 65q114 0 165 -98v24zM251 500q-63 0 -97 -52t-34 -155t34.5 -157.5t96.5 -54.5q41 0 70 19.5t43 52.5t20 65.5t6 69.5t-6 70.5t-20 67t-43 54t-70 20.5zM258 -193q123 0 123 151v189q-52 -96 -165 -96q-41 0 -75 17
q-11 -22 -18 -51q-21 -81 21.5 -145.5t113.5 -64.5z" />
    <glyph glyph-name="Hbar" unicode="&#x126;" horiz-adv-x="783" 
d="M768 690q-64 0 -85.5 -12t-21.5 -47v-89h56v-25h-56v-448q0 -36 18.5 -47.5t87.5 -11.5v-10h-288v7q60 0 81 15t21 47v285h-380v-285q0 -37 19 -49.5t87 -12.5v-7h-288v10q61 0 81.5 14t20.5 45v448h-54v25h54v89q0 36 -18.5 47.5t-87.5 11.5v10h293v-7q-63 0 -85 -13.5
t-22 -48.5v-89h380v89q0 37 -19 49.5t-87 12.5v7h293v-10zM581 369v148h-380v-148h380z" />
    <glyph glyph-name="hbar" unicode="&#x127;" horiz-adv-x="618" 
d="M517 69q0 -36 15.5 -47.5t70.5 -11.5v-10h-243v10q53 0 67.5 13.5t14.5 45.5v258q0 91 -19.5 126.5t-82.5 35.5q-53 0 -91 -36.5t-47 -86.5v-299q1 -32 25 -44.5t81 -12.5v-10h-287v10q50 0 78 15.5t28 43.5v454h-55v25h55v51q-1 29 -17 28q-22 -1 -88 -50l-7 8l166 130
h21l-1 -3l2 3v-167h48v-25h-48v-120q17 47 66 86.5t113 39.5q135 0 135 -139v-321z" />
    <glyph glyph-name="Itilde" unicode="&#x128;" horiz-adv-x="363" 
d="M337 873q0 -70 -18 -93.5t-58 -23.5q-27 0 -79 32.5t-77 32.5q-61 0 -61 -66h-13q4 117 85 117q37 0 83.5 -32.5t71.5 -32.5q49 0 54 66h12zM221 69q0 -36 18.5 -47.5t87.5 -11.5v-10h-288v10q61 0 81.5 14t20.5 45v562q0 36 -18.5 47.5t-87.5 11.5v10h293v-10
q-64 0 -85.5 -12t-21.5 -47v-562z" />
    <glyph glyph-name="itilde" unicode="&#x129;" horiz-adv-x="284" 
d="M295 703h12q0 -70 -18 -93.5t-58 -23.5q-27 0 -79 32.5t-77 32.5q-61 0 -61 -66h-13q4 117 85 117q37 0 83.5 -32.5t71.5 -32.5q49 0 54 66zM183 63q1 -32 17 -42.5t69 -10.5v-10h-247v10q48 0 67 14.5t19 44.5v346q-1 16 -6.5 23t-25.5 0.5t-53 -34.5l-8 10l147 116h22z
" />
    <glyph glyph-name="Imacron" unicode="&#x12a;" horiz-adv-x="363" 
d="M2 814h349v-20h-349v20zM221 69q0 -36 18.5 -47.5t87.5 -11.5v-10h-288v10q61 0 81.5 14t20.5 45v562q0 36 -18.5 47.5t-87.5 11.5v10h293v-10q-64 0 -85.5 -12t-21.5 -47v-562z" />
    <glyph glyph-name="imacron" unicode="&#x12b;" horiz-adv-x="284" 
d="M-28 644h349v-20h-349v20zM183 63q1 -32 17 -42.5t69 -10.5v-10h-247v10q48 0 67 14.5t19 44.5v346q-1 16 -6.5 23t-25.5 0.5t-53 -34.5l-8 10l147 116h22z" />
    <glyph glyph-name="Iogonek" unicode="&#x12e;" horiz-adv-x="363" 
d="M265 -106q9 -23 35.5 -31t57.5 3v-26q-49 -26 -90.5 -9t-44.5 68q-2 24 15.5 53.5t49.5 47.5h-249v10q61 0 81.5 14t20.5 45v562q0 36 -18.5 47.5t-87.5 11.5v10h293v-10q-64 0 -85.5 -12t-21.5 -47v-562q0 -36 18.5 -47.5t87.5 -11.5v-10h-21q-62 -53 -41 -106z" />
    <glyph glyph-name="iogonek" unicode="&#x12f;" horiz-adv-x="284" 
d="M152 629q-23 0 -39.5 15t-16.5 36t16.5 36t39.5 15t39.5 -15t16.5 -36t-16.5 -36t-39.5 -15zM184 0q-72 -56 -50 -113q9 -23 35.5 -31t57.5 3v-26q-49 -26 -90.5 -9t-44.5 68q-2 27 19.5 59.5t60.5 48.5h-150v10q48 0 67 14.5t19 44.5v346q-1 16 -6.5 23t-25.5 0.5
t-53 -34.5l-8 10l147 116h22l-1 -467q1 -32 17 -42.5t69 -10.5v-10h-85z" />
    <glyph glyph-name="Idotaccent" unicode="&#x130;" horiz-adv-x="363" 
d="M182 799q-23 0 -39.5 15t-16.5 36t16.5 36t39.5 15t39.5 -15t16.5 -36t-16.5 -36t-39.5 -15zM221 69q0 -36 18.5 -47.5t87.5 -11.5v-10h-288v10q61 0 81.5 14t20.5 45v562q0 36 -18.5 47.5t-87.5 11.5v10h293v-10q-64 0 -85.5 -12t-21.5 -47v-562z" />
    <glyph glyph-name="dotlessi" unicode="&#x131;" horiz-adv-x="284" 
d="M183 63q1 -32 17 -42.5t69 -10.5v-10h-247v10q48 0 67 14.5t19 44.5v346q-1 16 -6.5 23t-25.5 0.5t-53 -34.5l-8 10l147 116h22z" />
    <glyph glyph-name="uni0136" unicode="&#x136;" horiz-adv-x="720" 
d="M616 39q23 -29 99 -29v-10h-288v10q75 0 75 19q0 6 -7 15l-246 348l-68 -56v-272q1 -32 17 -43t69 -11v-10h-252v10q48 0 67 14.5t19 44.5v561l1 1h-1q0 30 -19 44.5t-67 14.5v10h656v-11q-68 0 -107 -33l-268 -224zM182 650l-1 -289l348 285q38 31 -39 41q-26 3 -63 4
h-161q-47 0 -64 -8.5t-20 -32.5zM363 -50q18 0 31.5 -12t18.5 -31q10 -43 -16 -84q-12 -20 -40.5 -39.5t-55.5 -27.5l-1 3q37 16 56 49q9 17 6 31.5t-15 22.5q-31 20 -31 46q0 18 13.5 30t33.5 12z" />
    <glyph glyph-name="uni0137" unicode="&#x137;" horiz-adv-x="647" 
d="M547 40q21 -30 95 -30v-10h-268v10q52 0 66 6.5t2 27.5l-156 250l-84 -76v-154q1 -32 17 -43t69 -11v-10h-247v10q48 0 67 14.5t19 44.5v543q-1 25 -29 13q-25 -10 -76 -48l-7 8l166 130h21l-2 -3l3 3l-1 -463l247 219q28 24 -9 32q-36 8 -161 8v4h308v-10q-73 0 -96 -23
l-165 -151zM330 -50q18 0 31.5 -12t18.5 -31q10 -43 -16 -84q-12 -20 -40.5 -39.5t-55.5 -27.5l-1 3q37 16 56 49q9 17 6 31.5t-15 22.5q-31 20 -31 46q0 18 13.5 30t33.5 12z" />
    <glyph glyph-name="Lacute" unicode="&#x139;" horiz-adv-x="636" 
d="M341 858q-73 -34 -172 -92l-5 8q84 64 150 124q51 47 68 19q21 -28 -41 -59zM613 188h8l-37 -188h-569v10q48 0 67 14.5t19 44.5v561l1 1h-1q0 30 -19 44.5t-67 14.5v10h252v-10q-48 0 -65 -8.5t-20 -31.5l-1 -629h304q45 0 71.5 31.5t56.5 135.5z" />
    <glyph glyph-name="lacute" unicode="&#x13a;" horiz-adv-x="323" 
d="M229 863q-73 -34 -172 -92l-5 8q84 64 150 124q51 47 68 19q21 -28 -41 -59zM202 67q1 -32 25 -44.5t81 -12.5v-10h-287v10q50 0 78 15.5t28 43.5v530q-1 29 -17 28q-22 -1 -88 -50l-7 8l166 130h21l-1 -3l2 3z" />
    <glyph glyph-name="uni013B" unicode="&#x13b;" horiz-adv-x="636" 
d="M613 188h8l-37 -188h-569v10q48 0 67 14.5t19 44.5v561l1 1h-1q0 30 -19 44.5t-67 14.5v10h252v-10q-48 0 -65 -8.5t-20 -31.5l-1 -629h304q45 0 71.5 31.5t56.5 135.5zM280 -50q18 0 31.5 -12t18.5 -31q10 -43 -16 -84q-12 -20 -40.5 -39.5t-55.5 -27.5l-1 3
q37 16 56 49q9 17 6 31.5t-15 22.5q-31 20 -31 46q0 18 13.5 30t33.5 12z" />
    <glyph glyph-name="uni013C" unicode="&#x13c;" horiz-adv-x="323" 
d="M202 67q1 -32 25 -44.5t81 -12.5v-10h-287v10q50 0 78 15.5t28 43.5v530q-1 29 -17 28q-22 -1 -88 -50l-7 8l166 130h21l-1 -3l2 3zM168 -50q18 0 31.5 -12t18.5 -31q10 -43 -16 -84q-12 -20 -40.5 -39.5t-55.5 -27.5l-1 3q37 16 56 49q9 17 6 31.5t-15 22.5
q-31 20 -31 46q0 18 13.5 30t33.5 12z" />
    <glyph glyph-name="Lcaron" unicode="&#x13d;" horiz-adv-x="636" 
d="M388 904l-133 -154l-121 166l11 8l96 -128l119 133zM613 188h8l-37 -188h-569v10q48 0 67 14.5t19 44.5v561l1 1h-1q0 30 -19 44.5t-67 14.5v10h252v-10q-48 0 -65 -8.5t-20 -31.5l-1 -629h304q45 0 71.5 31.5t56.5 135.5z" />
    <glyph glyph-name="lcaron" unicode="&#x13e;" horiz-adv-x="323" 
d="M276 909l-133 -154l-121 166l11 8l96 -128l119 133zM202 67q1 -32 25 -44.5t81 -12.5v-10h-287v10q50 0 78 15.5t28 43.5v530q-1 29 -17 28q-22 -1 -88 -50l-7 8l166 130h21l-1 -3l2 3z" />
    <glyph glyph-name="Lslash" unicode="&#x141;" horiz-adv-x="636" 
d="M613 188h8l-37 -188h-569v10q48 0 67 14.5t19 44.5v216l-58 -79l-18 14l76 103v307l1 1h-1q0 30 -19 44.5t-67 14.5v10h252v-10q-48 0 -65 -8.5t-20 -31.5v-217l52 71l18 -14l-70 -96l-1 -373h304q45 0 71.5 31.5t56.5 135.5z" />
    <glyph glyph-name="lslash" unicode="&#x142;" horiz-adv-x="323" 
d="M202 67q1 -32 25 -44.5t81 -12.5v-10h-287v10q50 0 78 15.5t28 43.5v150l-90 -86l-15 17l105 100v349q-1 29 -17 28q-22 -1 -88 -50l-7 8l166 130h21l-1 -3l2 3l-1 -393l75 71l15 -17l-90 -85v-224z" />
    <glyph glyph-name="Nacute" unicode="&#x143;" horiz-adv-x="697" 
d="M416 858q-73 -34 -172 -92l-5 8q84 64 150 124q51 47 68 19q21 -28 -41 -59zM682 700v-10q-55 0 -70.5 -11.5t-15.5 -47.5v-631h-25l-445 598v-529q0 -36 15.5 -47.5t70.5 -11.5v-10h-193v10q47 0 64.5 14.5t17.5 44.5v562q0 36 -15.5 47.5t-70.5 11.5v10h148l408 -551
v482q0 36 -15 47.5t-67 11.5v10h193z" />
    <glyph glyph-name="nacute" unicode="&#x144;" horiz-adv-x="608" 
d="M386 703q-73 -34 -172 -92l-5 8q84 64 150 124q51 47 68 19q21 -28 -41 -59zM507 69q0 -36 15.5 -47.5t70.5 -11.5v-10h-243v10q53 0 67.5 13.5t14.5 45.5v258q0 91 -19.5 126.5t-82.5 35.5q-54 0 -93.5 -38.5t-44.5 -89.5l-1 -298q1 -32 17 -42.5t69 -10.5v-10h-247v10
q48 0 67 14.5t19 44.5v357q0 50 -15 64.5t-71 14.5v10h162v-114q17 47 66 87.5t114 40.5q135 0 135 -139v-321z" />
    <glyph glyph-name="uni0145" unicode="&#x145;" horiz-adv-x="697" 
d="M682 700v-10q-55 0 -70.5 -11.5t-15.5 -47.5v-631h-25l-445 598v-529q0 -36 15.5 -47.5t70.5 -11.5v-10h-193v10q47 0 64.5 14.5t17.5 44.5v562q0 36 -15.5 47.5t-70.5 11.5v10h148l408 -551v482q0 36 -15 47.5t-67 11.5v10h193zM355 -50q18 0 31.5 -12t18.5 -31
q10 -43 -16 -84q-12 -20 -40.5 -39.5t-55.5 -27.5l-1 3q37 16 56 49q9 17 6 31.5t-15 22.5q-31 20 -31 46q0 18 13.5 30t33.5 12z" />
    <glyph glyph-name="uni0146" unicode="&#x146;" horiz-adv-x="608" 
d="M507 69q0 -36 15.5 -47.5t70.5 -11.5v-10h-243v10q53 0 67.5 13.5t14.5 45.5v258q0 91 -19.5 126.5t-82.5 35.5q-54 0 -93.5 -38.5t-44.5 -89.5l-1 -298q1 -32 17 -42.5t69 -10.5v-10h-247v10q48 0 67 14.5t19 44.5v357q0 50 -15 64.5t-71 14.5v10h162v-114
q17 47 66 87.5t114 40.5q135 0 135 -139v-321zM295 -50q18 0 31.5 -12t18.5 -31q10 -43 -16 -84q-12 -20 -40.5 -39.5t-55.5 -27.5l-1 3q37 16 56 49q9 17 6 31.5t-15 22.5q-31 20 -31 46q0 18 13.5 30t33.5 12z" />
    <glyph glyph-name="Ncaron" unicode="&#x147;" horiz-adv-x="697" 
d="M463 904l-133 -154l-121 166l11 8l96 -128l119 133zM682 700v-10q-55 0 -70.5 -11.5t-15.5 -47.5v-631h-25l-445 598v-529q0 -36 15.5 -47.5t70.5 -11.5v-10h-193v10q47 0 64.5 14.5t17.5 44.5v562q0 36 -15.5 47.5t-70.5 11.5v10h148l408 -551v482q0 36 -15 47.5
t-67 11.5v10h193z" />
    <glyph glyph-name="ncaron" unicode="&#x148;" horiz-adv-x="608" 
d="M433 749l-133 -154l-121 166l11 8l96 -128l119 133zM507 69q0 -36 15.5 -47.5t70.5 -11.5v-10h-243v10q53 0 67.5 13.5t14.5 45.5v258q0 91 -19.5 126.5t-82.5 35.5q-54 0 -93.5 -38.5t-44.5 -89.5l-1 -298q1 -32 17 -42.5t69 -10.5v-10h-247v10q48 0 67 14.5t19 44.5
v357q0 50 -15 64.5t-71 14.5v10h162v-114q17 47 66 87.5t114 40.5q135 0 135 -139v-321z" />
    <glyph glyph-name="Omacron" unicode="&#x14c;" horiz-adv-x="750" 
d="M195 824h349v-20h-349v20zM375 -18q-69 0 -128 22t-106 65t-74 114.5t-27 164.5q0 172 96.5 269t238.5 97t238.5 -97t96.5 -269q0 -93 -27 -164.5t-74 -114.5t-106 -65t-128 -22zM375 -2q59 0 105.5 30t74 81t41.5 112t14 127q0 63 -14 123t-41 112t-73.5 83.5
t-106.5 31.5q-59 0 -106 -31.5t-74 -83.5t-41 -112t-14 -123q0 -91 23 -167.5t78 -129.5t134 -53z" />
    <glyph glyph-name="omacron" unicode="&#x14d;" horiz-adv-x="554" 
d="M97 639h349v-20h-349v20zM277 -11q-109 0 -175.5 66t-66.5 203q0 131 67.5 200t174.5 69t174.5 -69t67.5 -200q0 -137 -66.5 -203t-175.5 -66zM277 0q152 0 152 258t-152 258t-152 -258t152 -258z" />
    <glyph glyph-name="Ohungarumlaut" unicode="&#x150;" horiz-adv-x="750" 
d="M202 773q99 58 172 92q62 31 41 59q-17 28 -68 -19q-66 -60 -150 -124zM355 773q99 58 172 92q62 31 41 59q-17 28 -68 -19q-66 -60 -150 -124zM375 -18q-69 0 -128 22t-106 65t-74 114.5t-27 164.5q0 172 96.5 269t238.5 97t238.5 -97t96.5 -269q0 -93 -27 -164.5
t-74 -114.5t-106 -65t-128 -22zM375 -2q59 0 105.5 30t74 81t41.5 112t14 127q0 63 -14 123t-41 112t-73.5 83.5t-106.5 31.5q-59 0 -106 -31.5t-74 -83.5t-41 -112t-14 -123q0 -91 23 -167.5t78 -129.5t134 -53z" />
    <glyph glyph-name="ohungarumlaut" unicode="&#x151;" horiz-adv-x="554" 
d="M104 588q99 58 172 92q62 31 41 59q-17 28 -68 -19q-66 -60 -150 -124zM257 588q99 58 172 92q62 31 41 59q-17 28 -68 -19q-66 -60 -150 -124zM277 -11q-109 0 -175.5 66t-66.5 203q0 131 67.5 200t174.5 69t174.5 -69t67.5 -200q0 -137 -66.5 -203t-175.5 -66zM277 0
q152 0 152 258t-152 258t-152 -258t152 -258z" />
    <glyph glyph-name="OE" unicode="&#x152;" horiz-adv-x="1067" 
d="M1044 188h8l-37 -188h-527q-56 -18 -118 -18q-69 0 -128 22t-106 65t-74 114.5t-27 164.5q0 172 96.5 269t238.5 97q51 0 101 -14h494l37 -197h-8q-42 110 -65 145t-63 36l-194 1q-35 -1 -49 -10t-16 -30v-279h174q20 0 31.5 4t21 23.5t9.5 58.5h7v-198h-7q0 58 -16.5 79
t-45.5 21h-174l-1 -292q2 -30 15 -40l295 5q40 1 59 26.5t69 134.5zM135 348q0 -91 23 -167.5t78 -129.5t134 -53q95 0 156 76v545q-63 79 -156 79q-59 0 -106 -31.5t-74 -83.5t-41 -112t-14 -123z" />
    <glyph glyph-name="oe" unicode="&#x153;" horiz-adv-x="902" 
d="M866 303q12 -282 -165 -312q-73 -13 -132 11.5t-95 79.5q-62 -93 -197 -93q-109 0 -175.5 66t-66.5 203q0 131 67.5 200t174.5 69q131 0 195 -95q61 96 190 96q96 0 146.5 -56.5t54.5 -138.5l-5 -8h-332q-5 -42 -5 -67q0 -114 53.5 -182.5t146.5 -49.5q70 15 106.5 90.5
t32.5 186.5h6zM277 0q152 0 152 258t-152 258t-152 -258t152 -258zM662 512q-109 -8 -134 -173h254q16 79 -14.5 129t-105.5 44z" />
    <glyph glyph-name="Racute" unicode="&#x154;" horiz-adv-x="755" 
d="M445 858q-73 -34 -172 -92l-5 8q84 64 150 124q51 47 68 19q21 -28 -41 -59zM617 47q37 -37 133 -37v-10h-298v10q27 0 41.5 1t24 5t8 11t-6.5 18l-190 261h1l-129 159v-376q0 -40 20.5 -59.5t85.5 -19.5v-10h-288v10q102 0 102 79v522q0 40 -20.5 59.5t-85.5 19.5v10
h354q239 0 239 -192q0 -58 -23.5 -104t-59.5 -71t-72.5 -37t-69.5 -12zM201 611v-127l129 -151q13 -12 35.5 -12.5t50 17t51 41t39.5 59t16 70.5q0 49 -16 85t-42.5 53.5t-53.5 25.5t-55 8h-119q-35 -18 -35 -69z" />
    <glyph glyph-name="racute" unicode="&#x155;" horiz-adv-x="494" 
d="M304 673q-73 -34 -172 -92l-5 8q84 64 150 124q51 47 68 19q21 -28 -41 -59zM320 530q61 0 101.5 -34t52.5 -82l-1 -14l-156 -120l-4 5q75 61 85.5 80.5t-2.5 59.5q-20 77 -96 77q-77 0 -108 -85l-1 -354q1 -32 17 -42.5t69 -10.5v-10h-247v10q48 0 67 14.5t19 44.5v357
q0 50 -15 64.5t-71 14.5v10h162v-67q47 82 128 82z" />
    <glyph glyph-name="uni0156" unicode="&#x156;" horiz-adv-x="755" 
d="M617 47q37 -37 133 -37v-10h-298v10q27 0 41.5 1t24 5t8 11t-6.5 18l-190 261h1l-129 159v-376q0 -40 20.5 -59.5t85.5 -19.5v-10h-288v10q102 0 102 79v522q0 40 -20.5 59.5t-85.5 19.5v10h354q239 0 239 -192q0 -58 -23.5 -104t-59.5 -71t-72.5 -37t-69.5 -12zM201 611
v-127l129 -151q13 -12 35.5 -12.5t50 17t51 41t39.5 59t16 70.5q0 49 -16 85t-42.5 53.5t-53.5 25.5t-55 8h-119q-35 -18 -35 -69zM384 -50q18 0 31.5 -12t18.5 -31q10 -43 -16 -84q-12 -20 -40.5 -39.5t-55.5 -27.5l-1 3q37 16 56 49q9 17 6 31.5t-15 22.5q-31 20 -31 46
q0 18 13.5 30t33.5 12z" />
    <glyph glyph-name="uni0157" unicode="&#x157;" horiz-adv-x="494" 
d="M320 530q61 0 101.5 -34t52.5 -82l-1 -14l-156 -120l-4 5q75 61 85.5 80.5t-2.5 59.5q-20 77 -96 77q-77 0 -108 -85l-1 -354q1 -32 17 -42.5t69 -10.5v-10h-247v10q48 0 67 14.5t19 44.5v357q0 50 -15 64.5t-71 14.5v10h162v-67q47 82 128 82zM243 -50q18 0 31.5 -12
t18.5 -31q10 -43 -16 -84q-12 -20 -40.5 -39.5t-55.5 -27.5l-1 3q37 16 56 49q9 17 6 31.5t-15 22.5q-31 20 -31 46q0 18 13.5 30t33.5 12z" />
    <glyph glyph-name="Rcaron" unicode="&#x158;" horiz-adv-x="755" 
d="M492 904l-133 -154l-121 166l11 8l96 -128l119 133zM617 47q37 -37 133 -37v-10h-298v10q27 0 41.5 1t24 5t8 11t-6.5 18l-190 261h1l-129 159v-376q0 -40 20.5 -59.5t85.5 -19.5v-10h-288v10q102 0 102 79v522q0 40 -20.5 59.5t-85.5 19.5v10h354q239 0 239 -192
q0 -58 -23.5 -104t-59.5 -71t-72.5 -37t-69.5 -12zM201 611v-127l129 -151q13 -12 35.5 -12.5t50 17t51 41t39.5 59t16 70.5q0 49 -16 85t-42.5 53.5t-53.5 25.5t-55 8h-119q-35 -18 -35 -69z" />
    <glyph glyph-name="rcaron" unicode="&#x159;" horiz-adv-x="494" 
d="M351 719l-133 -154l-121 166l11 8l96 -128l119 133zM320 530q61 0 101.5 -34t52.5 -82l-1 -14l-156 -120l-4 5q75 61 85.5 80.5t-2.5 59.5q-20 77 -96 77q-77 0 -108 -85l-1 -354q1 -32 17 -42.5t69 -10.5v-10h-247v10q48 0 67 14.5t19 44.5v357q0 50 -15 64.5t-71 14.5
v10h162v-67q47 82 128 82z" />
    <glyph glyph-name="Sacute" unicode="&#x15a;" horiz-adv-x="608" 
d="M199 766q99 58 172 92q62 31 41 59q-17 28 -68 -19q-66 -60 -150 -124zM568 179q0 -95 -69.5 -144.5t-172.5 -49.5q-79 0 -136 18t-150 63l32 242l13 -2q-24 -158 47 -232.5t194 -74.5q74 0 116.5 36t42.5 105q0 54 -33 107.5t-95 74.5l-156 54q-142 50 -142 175
q0 163 220 163q36 0 72 -6.5t56.5 -13.5t55.5 -20.5t47 -17.5l-10 -216h-13q13 260 -197 260q-153 0 -153 -124q0 -45 36 -80t96 -54l144 -46q71 -22 113 -78.5t42 -138.5z" />
    <glyph glyph-name="sacute" unicode="&#x15b;" horiz-adv-x="486" 
d="M135 581q99 58 172 92q62 31 41 59q-17 28 -68 -19q-66 -60 -150 -124zM451 141q0 -75 -59.5 -115t-143.5 -40q-85 0 -213 72l33 178l11 -3q-24 -115 19 -174.5t150 -58.5q52 1 88.5 26t36.5 69q0 45 -27.5 80t-71.5 51l-106 39q-60 22 -86.5 51t-26.5 75q0 63 51.5 100
t121.5 37q74 0 175 -36l-28 -149l-8 3q31 169 -137 169q-48 0 -77.5 -22.5t-29.5 -58.5t22.5 -57t72.5 -41l116 -46q64 -26 90.5 -60.5t26.5 -88.5z" />
    <glyph glyph-name="Scedilla" unicode="&#x15e;" horiz-adv-x="608" 
d="M568 179q0 -95 -69.5 -144.5t-172.5 -49.5q-79 0 -136 18t-150 63l32 242l13 -2q-24 -158 47 -232.5t194 -74.5q74 0 116.5 36t42.5 105q0 54 -33 107.5t-95 74.5l-156 54q-142 50 -142 175q0 163 220 163q36 0 72 -6.5t56.5 -13.5t55.5 -20.5t47 -17.5l-10 -216h-13
q13 260 -197 260q-153 0 -153 -124q0 -45 36 -80t96 -54l144 -46q71 -22 113 -78.5t42 -138.5zM276 -145q6 -33 24.5 -49.5t42.5 -16.5q62 0 54 69q-9 74 -98 62l12 59h25l-14 -46q47 7 76 -13t32 -53q4 -42 -22 -65.5t-65 -23.5q-34 0 -57.5 18.5t-32.5 44.5z" />
    <glyph glyph-name="scedilla" unicode="&#x15f;" horiz-adv-x="486" 
d="M451 141q0 -72 -55.5 -112t-136.5 -43l-13 -44q47 7 76 -13t32 -53q4 -42 -22 -65.5t-65 -23.5q-34 0 -57.5 18.5t-32.5 44.5l23 14q6 -33 24.5 -49.5t42.5 -16.5q62 0 54 69q-9 74 -98 62l12 57q-80 5 -200 72l33 178l11 -3q-24 -115 19 -174.5t150 -58.5q52 1 88.5 26
t36.5 69q0 45 -27.5 80t-71.5 51l-106 39q-60 22 -86.5 51t-26.5 75q0 63 51.5 100t121.5 37q74 0 175 -36l-28 -149l-8 3q31 169 -137 169q-48 0 -77.5 -22.5t-29.5 -58.5t22.5 -57t72.5 -41l116 -46q64 -26 90.5 -60.5t26.5 -88.5z" />
    <glyph glyph-name="Scaron" unicode="&#x160;" horiz-adv-x="608" 
d="M418 904l-133 -154l-121 166l11 8l96 -128l119 133zM413 396q71 -22 113 -78.5t42 -138.5q0 -95 -69.5 -144.5t-172.5 -49.5q-79 0 -136 18t-150 63l32 242l13 -2q-24 -158 47 -232.5t194 -74.5q74 0 116.5 36t42.5 105q0 54 -33 107.5t-95 74.5l-156 54
q-142 50 -142 175q0 163 220 163q36 0 72 -6.5t56.5 -13.5t55.5 -20.5t47 -17.5l-10 -216h-13q13 260 -197 260q-153 0 -153 -124q0 -45 36 -80t96 -54z" />
    <glyph glyph-name="scaron" unicode="&#x161;" horiz-adv-x="486" 
d="M354 719l-133 -154l-121 166l11 8l96 -128l119 133zM334 290q64 -26 90.5 -60.5t26.5 -88.5q0 -75 -59.5 -115t-143.5 -40q-85 0 -213 72l33 178l11 -3q-24 -115 19 -174.5t150 -58.5q52 1 88.5 26t36.5 69q0 45 -27.5 80t-71.5 51l-106 39q-60 22 -86.5 51t-26.5 75
q0 63 51.5 100t121.5 37q74 0 175 -36l-28 -149l-8 3q31 169 -137 169q-48 0 -77.5 -22.5t-29.5 -58.5t22.5 -57t72.5 -41z" />
    <glyph glyph-name="uni0162" unicode="&#x162;" horiz-adv-x="717" 
d="M670 700l37 -197h-8q-42 110 -65 145t-63 36l-146 2q-26 -12 -26 -59v-558q0 -28 8 -39t33 -15.5t85 -4.5v-10h-154l-14 -46q47 7 76 -13t32 -53q4 -42 -22 -65.5t-65 -23.5q-34 0 -57.5 18.5t-32.5 44.5l23 14q6 -33 24.5 -49.5t42.5 -16.5q62 0 54 69q-9 74 -98 62
l12 59h-149v10q80 0 101 10t21 49v558q0 49 -22 59l-151 -2q-40 -1 -63 -36t-65 -145h-8l37 197h623z" />
    <glyph glyph-name="uni0163" unicode="&#x163;" horiz-adv-x="316" 
d="M288 99l9 -10l-141 -109q-36 2 -52.5 22.5t-16.5 64.5l1 436h-73v12q87 0 110.5 43t23.5 192h13v-235h107v-12h-107v-417q0 -30 21 -39t47 10zM100 -146q6 -33 24.5 -49.5t42.5 -16.5q62 0 54 69q-9 74 -98 62l12 59h25l-14 -46q47 7 76 -13t32 -53q4 -42 -22 -65.5
t-65 -23.5q-34 0 -57.5 18.5t-32.5 44.5z" />
    <glyph glyph-name="Tcaron" unicode="&#x164;" horiz-adv-x="717" 
d="M473 904l-133 -154l-121 166l11 8l96 -128l119 133zM670 700l37 -197h-8q-42 110 -65 145t-63 36l-146 2q-26 -12 -26 -59v-558q0 -28 8 -39t33 -15.5t85 -4.5v-10h-328v10q80 0 101 10t21 49v558q0 49 -22 59l-151 -2q-40 -1 -63 -36t-65 -145h-8l37 197h623z" />
    <glyph glyph-name="tcaron" unicode="&#x165;" horiz-adv-x="316" 
d="M272 949l-133 -154l-121 166l11 8l96 -128l119 133zM288 99l9 -10l-141 -109q-36 2 -52.5 22.5t-16.5 64.5l1 436h-73v12q87 0 110.5 43t23.5 192h13v-235h107v-12h-107v-417q0 -30 21 -39t47 10z" />
    <glyph glyph-name="Tbar" unicode="&#x166;" horiz-adv-x="717" 
d="M670 700l37 -197h-8q-42 110 -65 145t-63 36l-146 2q-26 -12 -26 -59v-265h135v-25h-135v-268q0 -28 8 -39t33 -15.5t85 -4.5v-10h-328v10q80 0 101 10t21 49v268h-135v25h135v265q0 49 -22 59l-151 -2q-40 -1 -63 -36t-65 -145h-8l37 197h623z" />
    <glyph glyph-name="tbar" unicode="&#x167;" horiz-adv-x="316" 
d="M288 99l9 -10l-141 -109q-36 2 -52.5 22.5t-16.5 64.5l1 288h-53v25h53v123h-73v12q87 0 110.5 43t23.5 192h13v-235h107v-12h-107v-123h99v-25h-99v-269q0 -30 21 -39t47 10z" />
    <glyph glyph-name="Utilde" unicode="&#x168;" horiz-adv-x="759" 
d="M555 873q0 -70 -18 -93.5t-58 -23.5q-27 0 -79 32.5t-77 32.5q-61 0 -61 -66h-13q4 117 85 117q37 0 83.5 -32.5t71.5 -32.5q49 0 54 66h12zM729 700v-10q-49 0 -67.5 -11t-18.5 -40l4 -389q0 -53 -11.5 -98.5t-37 -84t-72 -60.5t-109.5 -22q-131 0 -205.5 65t-74.5 177
v404q0 35 -21.5 47t-85.5 12v10h699zM439 36q83 0 132.5 55t50.5 169l4 391q-3 28 -40 36t-156 8q-120 0 -166.5 -14.5t-46.5 -49.5v-364q0 -109 60.5 -170t161.5 -61z" />
    <glyph glyph-name="utilde" unicode="&#x169;" 
d="M213 636q-61 0 -61 -66h-13q4 117 85 117q37 0 83.5 -32.5t71.5 -32.5q49 0 54 66h12q0 -70 -18 -93.5t-58 -23.5q-27 0 -79 32.5t-77 32.5zM501 69q0 -36 15.5 -47.5t70.5 -11.5v-10h-161v111q-44 -126 -176 -126q-66 0 -107.5 42.5t-41.5 126.5v292q0 36 -15.5 47.5
t-70.5 11.5v10h161v-321q0 -86 26.5 -127t85.5 -41t95 39t43 92v289q0 36 -15.5 47.5t-70.5 11.5v10h161v-446z" />
    <glyph glyph-name="Umacron" unicode="&#x16a;" horiz-adv-x="759" 
d="M220 814h349v-20h-349v20zM729 700v-10q-49 0 -67.5 -11t-18.5 -40l4 -389q0 -53 -11.5 -98.5t-37 -84t-72 -60.5t-109.5 -22q-131 0 -205.5 65t-74.5 177v404q0 35 -21.5 47t-85.5 12v10h699zM439 36q83 0 132.5 55t50.5 169l4 391q-3 28 -40 36t-156 8
q-120 0 -166.5 -14.5t-46.5 -49.5v-364q0 -109 60.5 -170t161.5 -61z" />
    <glyph glyph-name="umacron" unicode="&#x16b;" 
d="M459 629v-20h-349v20h349zM501 69q0 -36 15.5 -47.5t70.5 -11.5v-10h-161v111q-44 -126 -176 -126q-66 0 -107.5 42.5t-41.5 126.5v292q0 36 -15.5 47.5t-70.5 11.5v10h161v-321q0 -86 26.5 -127t85.5 -41t95 39t43 92v289q0 36 -15.5 47.5t-70.5 11.5v10h161v-446z" />
    <glyph glyph-name="Uring" unicode="&#x16e;" horiz-adv-x="759" 
d="M400 765q-56 0 -56 62q0 30 15.5 46t40.5 16t40.5 -16t15.5 -46q0 -62 -56 -62zM400 770q36 0 36 57t-36 57t-36 -57t36 -57zM729 700v-10q-49 0 -67.5 -11t-18.5 -40l4 -389q0 -53 -11.5 -98.5t-37 -84t-72 -60.5t-109.5 -22q-131 0 -205.5 65t-74.5 177v404
q0 35 -21.5 47t-85.5 12v10h699zM439 36q83 0 132.5 55t50.5 169l4 391q-3 28 -40 36t-156 8q-120 0 -166.5 -14.5t-46.5 -49.5v-364q0 -109 60.5 -170t161.5 -61z" />
    <glyph glyph-name="uring" unicode="&#x16f;" 
d="M290 580q-56 0 -56 62q0 30 15.5 46t40.5 16t40.5 -16t15.5 -46q0 -62 -56 -62zM290 699q-36 0 -36 -57t36 -57t36 57t-36 57zM501 69q0 -36 15.5 -47.5t70.5 -11.5v-10h-161v111q-44 -126 -176 -126q-66 0 -107.5 42.5t-41.5 126.5v292q0 36 -15.5 47.5t-70.5 11.5v10
h161v-321q0 -86 26.5 -127t85.5 -41t95 39t43 92v289q0 36 -15.5 47.5t-70.5 11.5v10h161v-446z" />
    <glyph glyph-name="Uhungarumlaut" unicode="&#x170;" horiz-adv-x="759" 
d="M227 763q99 58 172 92q62 31 41 59q-17 28 -68 -19q-66 -60 -150 -124zM380 763q99 58 172 92q62 31 41 59q-17 28 -68 -19q-66 -60 -150 -124zM729 700v-10q-49 0 -67.5 -11t-18.5 -40l4 -389q0 -53 -11.5 -98.5t-37 -84t-72 -60.5t-109.5 -22q-131 0 -205.5 65
t-74.5 177v404q0 35 -21.5 47t-85.5 12v10h699zM439 36q83 0 132.5 55t50.5 169l4 391q-3 28 -40 36t-156 8q-120 0 -166.5 -14.5t-46.5 -49.5v-364q0 -109 60.5 -170t161.5 -61z" />
    <glyph glyph-name="uhungarumlaut" unicode="&#x171;" 
d="M289 670q-73 -34 -172 -92l-5 8q84 64 150 124q51 47 68 19q21 -28 -41 -59zM270 578l-5 8q84 64 150 124q51 47 68 19q21 -28 -41 -59q-73 -34 -172 -92zM501 69q0 -36 15.5 -47.5t70.5 -11.5v-10h-161v111q-44 -126 -176 -126q-66 0 -107.5 42.5t-41.5 126.5v292
q0 36 -15.5 47.5t-70.5 11.5v10h161v-321q0 -86 26.5 -127t85.5 -41t95 39t43 92v289q0 36 -15.5 47.5t-70.5 11.5v10h161v-446z" />
    <glyph glyph-name="Uogonek" unicode="&#x172;" horiz-adv-x="759" 
d="M30 700h699v-10q-49 0 -67.5 -11t-18.5 -40l4 -389q1 -86 -30.5 -152.5t-100.5 -94.5q-66 -55 -44 -109q9 -23 35.5 -31t57.5 3v-26q-49 -26 -90.5 -9t-44.5 68q-2 21 12 48t41 45q-28 -7 -66 -7q-131 0 -205.5 65t-74.5 177v404q0 35 -21.5 47t-85.5 12v10zM622 260
l4 391q-3 28 -40 36t-156 8q-120 0 -166.5 -14.5t-46.5 -49.5v-364q0 -109 60.5 -170t161.5 -61q83 0 132.5 55t50.5 169z" />
    <glyph glyph-name="uogonek" unicode="&#x173;" 
d="M495 0q-62 -53 -41 -106q9 -23 35.5 -31t57.5 3v-26q-49 -26 -90.5 -9t-44.5 68q-2 24 15.5 53.5t49.5 47.5h-51v111q-44 -126 -176 -126q-66 0 -107.5 42.5t-41.5 126.5v292q0 36 -15.5 47.5t-70.5 11.5v10h161v-321q0 -86 26.5 -127t85.5 -41t95 39t43 92v289
q0 36 -15.5 47.5t-70.5 11.5v10h161v-446q0 -36 15.5 -47.5t70.5 -11.5v-10h-92z" />
    <glyph glyph-name="Wcircumflex" unicode="&#x174;" horiz-adv-x="1223" 
d="M606 889l-96 -128l-11 8l121 166l133 -154l-28 -25zM1208 700v-10q-58 0 -84 -4t-38 -19l-237 -667h-17l210 646q10 28 -4 36q-20 12 -166 12h-20q-76 0 -112.5 -0.5t-64 -4t-34.5 -9.5t-6 -17l25 -61h2l-1 -3l206 -491l-35 -108l-212 485l-174 -485h-18l173 529l-60 137
q-19 27 -112 28q-67 0 -102.5 -1t-59.5 -4.5t-30.5 -9.5t-5.5 -17l232 -554l-35 -108l-289 662q-10 19 -35.5 23.5t-91.5 4.5l3 10h1193z" />
    <glyph glyph-name="wcircumflex" unicode="&#x175;" horiz-adv-x="927" 
d="M459 704l-96 -128l-11 8l121 166l133 -154l-28 -25zM912 515v-10q-50 0 -68 -3.5t-25 -18.5l-174 -483h-13l-160 348l-127 -348h-13l-222 482q-6 16 -25 19.5t-70 3.5v10h897zM491 487l167 -407l133 403q5 19 -19 23.5t-125 4.5q-55 0 -82 -0.5t-46.5 -3t-24.5 -7
t-3 -13.5zM358 80l99 300l-47 102q-11 28 -87 29q-46 0 -70.5 -0.5t-40 -3t-19.5 -7t-3 -11.5z" />
    <glyph glyph-name="Ycircumflex" unicode="&#x176;" horiz-adv-x="677" 
d="M333 889l-96 -128l-11 8l121 166l133 -154l-28 -25zM662 700v-10q-28 0 -40 -0.5t-26 -2.5t-20 -6.5t-9 -13.5l-190 -477l-36 -121q-12 -38 12.5 -51t99.5 -13v-5h-283v5q62 0 87.5 13.5t37.5 42.5l47 125l-231 481h-1q-6 16 -25 19.5t-70 3.5v10h647zM378 696
q-99 0 -132 -4.5t-34 -19.5l181 -403l147 399q2 10 -4 15t-26 8t-48.5 4t-83.5 1z" />
    <glyph glyph-name="ycircumflex" unicode="&#x177;" horiz-adv-x="607" 
d="M311 704l-96 -128l-11 8l121 166l133 -154l-28 -25zM597 515v-10q-48 0 -66 -3t-26 -15l-160 -473l-60 -214h-150v5q58 0 84.5 12t36.5 37l5 14v1l51 146l-210 473q-8 12 -26 14.5t-66 2.5v10h587zM196 482l155 -406l123 399h-1q8 23 -5 29q-16 7 -131 7q-124 0 -137 -9
q-8 -5 -4 -20z" />
    <glyph glyph-name="Ydieresis" unicode="&#x178;" horiz-adv-x="677" 
d="M209 799q-23 0 -39.5 15t-16.5 36t16.5 36t39.5 15t39.5 -15t16.5 -36t-16.5 -36t-39.5 -15zM469 799q-23 0 -39.5 15t-16.5 36t16.5 36t39.5 15t39.5 -15t16.5 -36t-16.5 -36t-39.5 -15zM662 700v-10q-28 0 -40 -0.5t-26 -2.5t-20 -6.5t-9 -13.5l-190 -477l-36 -121
q-12 -38 12.5 -51t99.5 -13v-5h-283v5q62 0 87.5 13.5t37.5 42.5l47 125l-231 481h-1q-6 16 -25 19.5t-70 3.5v10h647zM378 696q-99 0 -132 -4.5t-34 -19.5l181 -403l147 399q2 10 -4 15t-26 8t-48.5 4t-83.5 1z" />
    <glyph glyph-name="Zacute" unicode="&#x179;" horiz-adv-x="624" 
d="M342 858q-73 -34 -172 -92l-5 8q84 64 150 124q51 47 68 19q21 -28 -41 -59zM601 198h8l-43 -198h-551v20l481 670l-317 -6q-44 -1 -75 -36.5t-69 -134.5h-8l43 187h519v-20l-476 -662l344 4q43 1 74.5 38.5t69.5 137.5z" />
    <glyph glyph-name="zacute" unicode="&#x17a;" horiz-adv-x="514" 
d="M324 673q-73 -34 -172 -92l-5 8q84 64 150 124q51 47 68 19q21 -28 -41 -59zM490 190h8l-41 -190h-428v30l363 474l-218 -4q-41 -1 -70.5 -34.5t-65.5 -127.5h-8l41 177h402v-30l-356 -465l32 -2l203 3q41 1 71 36.5t67 132.5z" />
    <glyph glyph-name="Zdotaccent" unicode="&#x17b;" horiz-adv-x="624" 
d="M275 799q-23 0 -39.5 15t-16.5 36t16.5 36t39.5 15t39.5 -15t16.5 -36t-16.5 -36t-39.5 -15zM601 198h8l-43 -198h-551v20l481 670l-317 -6q-44 -1 -75 -36.5t-69 -134.5h-8l43 187h519v-20l-476 -662l344 4q43 1 74.5 38.5t69.5 137.5z" />
    <glyph glyph-name="zdotaccent" unicode="&#x17c;" horiz-adv-x="514" 
d="M257 614q-23 0 -39.5 15t-16.5 36t16.5 36t39.5 15t39.5 -15t16.5 -36t-16.5 -36t-39.5 -15zM490 190h8l-41 -190h-428v30l363 474l-218 -4q-41 -1 -70.5 -34.5t-65.5 -127.5h-8l41 177h402v-30l-356 -465l32 -2l203 3q41 1 71 36.5t67 132.5z" />
    <glyph glyph-name="Zcaron" unicode="&#x17d;" horiz-adv-x="624" 
d="M389 904l-133 -154l-121 166l11 8l96 -128l119 133zM601 198h8l-43 -198h-551v20l481 670l-317 -6q-44 -1 -75 -36.5t-69 -134.5h-8l43 187h519v-20l-476 -662l344 4q43 1 74.5 38.5t69.5 137.5z" />
    <glyph glyph-name="zcaron" unicode="&#x17e;" horiz-adv-x="514" 
d="M371 719l-133 -154l-121 166l11 8l96 -128l119 133zM490 190h8l-41 -190h-428v30l363 474l-218 -4q-41 -1 -70.5 -34.5t-65.5 -127.5h-8l41 177h402v-30l-356 -465l32 -2l203 3q41 1 71 36.5t67 132.5z" />
    <glyph glyph-name="Ohorn" unicode="&#x1a0;" horiz-adv-x="750" 
d="M808 815q0 -72 -37 -104t-117 -33v10q111 0 111 127h43zM375 -18q-69 0 -128 22t-106 65t-74 114.5t-27 164.5q0 172 96.5 269t238.5 97t238.5 -97t96.5 -269q0 -93 -27 -164.5t-74 -114.5t-106 -65t-128 -22zM375 -2q59 0 105.5 30t74 81t41.5 112t14 127q0 63 -14 123
t-41 112t-73.5 83.5t-106.5 31.5q-59 0 -106 -31.5t-74 -83.5t-41 -112t-14 -123q0 -91 23 -167.5t78 -129.5t134 -53z" />
    <glyph glyph-name="ohorn" unicode="&#x1a1;" horiz-adv-x="554" 
d="M616 630q0 -72 -37 -104t-117 -33v10q111 0 111 127h43zM277 -11q-109 0 -175.5 66t-66.5 203q0 131 67.5 200t174.5 69t174.5 -69t67.5 -200q0 -137 -66.5 -203t-175.5 -66zM277 0q152 0 152 258t-152 258t-152 -258t152 -258z" />
    <glyph glyph-name="Uhorn" unicode="&#x1af;" horiz-adv-x="759" 
d="M798 735q0 -72 -37 -104t-117 -33v10q111 0 111 127h43zM729 700v-10q-49 0 -67.5 -11t-18.5 -40l4 -389q0 -53 -11.5 -98.5t-37 -84t-72 -60.5t-109.5 -22q-131 0 -205.5 65t-74.5 177v404q0 35 -21.5 47t-85.5 12v10h699zM439 36q83 0 132.5 55t50.5 169l4 391
q-3 28 -40 36t-156 8q-120 0 -166.5 -14.5t-46.5 -49.5v-364q0 -109 60.5 -170t161.5 -61z" />
    <glyph glyph-name="uhorn" unicode="&#x1b0;" 
d="M646 630h43q0 -72 -37 -104t-117 -33v10q111 0 111 127zM501 69q0 -36 15.5 -47.5t70.5 -11.5v-10h-161v111q-44 -126 -176 -126q-66 0 -107.5 42.5t-41.5 126.5v292q0 36 -15.5 47.5t-70.5 11.5v10h161v-321q0 -86 26.5 -127t85.5 -41t95 39t43 92v289q0 36 -15.5 47.5
t-70.5 11.5v10h161v-446z" />
    <glyph glyph-name="uni01CD" unicode="&#x1cd;" horiz-adv-x="829" 
d="M489 904l-133 -154l-121 166l11 8l96 -128l119 133zM691 37q11 -17 37 -22t86 -5v-10h-799v10q53 0 74.5 6t31.5 23l243 587l-9 23h-1q-8 20 -19 26.5t-51 10.5t-135 4v10h262zM498 289l-123 309l-120 -309h243zM359 6q157 0 201.5 8t31.5 40l-88 220h-255l-85 -219h1
q-12 -29 10 -38q27 -11 184 -11z" />
    <glyph glyph-name="uni01CE" unicode="&#x1ce;" horiz-adv-x="523" 
d="M356 729l-133 -154l-121 166l11 8l96 -128l119 133zM499 75l9 -10l-113 -74q-14 0 -25.5 17t-11.5 52v52q-26 -53 -72.5 -90t-108.5 -37q-65 0 -103.5 34.5t-38.5 108.5q0 102 86 141l-65 163q93 95 197 95q180 0 180 -154v-311q1 -13 10 -13q6 0 56 26zM120 304
q5 -20 10 -32q40 16 82 13l146 -10v88q0 73 -24.5 112t-87.5 39q-71 0 -109.5 -64t-16.5 -146zM207 20q61 0 106 48.5t45 106.5v73l-102 6q-34 2 -63 -7.5t-51.5 -40.5t-22.5 -82q0 -49 24.5 -76.5t63.5 -27.5z" />
    <glyph glyph-name="uni01CF" unicode="&#x1cf;" horiz-adv-x="363" 
d="M296 904l-133 -154l-121 166l11 8l96 -128l119 133zM328 690q-64 0 -85.5 -12t-21.5 -47v-562q0 -36 18.5 -47.5t87.5 -11.5v-10h-288v10q61 0 81.5 14t20.5 45v562q0 36 -18.5 47.5t-87.5 11.5v10h293v-10z" />
    <glyph glyph-name="uni01D0" unicode="&#x1d0;" horiz-adv-x="284" 
d="M266 734l-133 -154l-121 166l11 8l96 -128l119 133zM183 63q1 -32 17 -42.5t69 -10.5v-10h-247v10q48 0 67 14.5t19 44.5v346q-1 16 -6.5 23t-25.5 0.5t-53 -34.5l-8 10l147 116h22z" />
    <glyph glyph-name="uni01D1" unicode="&#x1d1;" horiz-adv-x="750" 
d="M489 914l-133 -154l-121 166l11 8l96 -128l119 133zM375 714q142 0 238.5 -97t96.5 -269q0 -93 -27 -164.5t-74 -114.5t-106 -65t-128 -22t-128 22t-106 65t-74 114.5t-27 164.5q0 172 96.5 269t238.5 97zM375 -2q59 0 105.5 30t74 81t41.5 112t14 127q0 63 -14 123
t-41 112t-73.5 83.5t-106.5 31.5q-59 0 -106 -31.5t-74 -83.5t-41 -112t-14 -123q0 -91 23 -167.5t78 -129.5t134 -53z" />
    <glyph glyph-name="uni01D2" unicode="&#x1d2;" horiz-adv-x="554" 
d="M391 729l-133 -154l-121 166l11 8l96 -128l119 133zM277 527q107 0 174.5 -69t67.5 -200q0 -137 -66.5 -203t-175.5 -66t-175.5 66t-66.5 203q0 131 67.5 200t174.5 69zM277 0q152 0 152 258t-152 258t-152 -258t152 -258z" />
    <glyph glyph-name="uni01D3" unicode="&#x1d3;" horiz-adv-x="759" 
d="M514 904l-133 -154l-121 166l11 8l96 -128l119 133zM30 700h699v-10q-49 0 -67.5 -11t-18.5 -40l4 -389q0 -53 -11.5 -98.5t-37 -84t-72 -60.5t-109.5 -22q-131 0 -205.5 65t-74.5 177v404q0 35 -21.5 47t-85.5 12v10zM622 260l4 391q-3 28 -40 36t-156 8
q-120 0 -166.5 -14.5t-46.5 -49.5v-364q0 -109 60.5 -170t161.5 -61q83 0 132.5 55t50.5 169z" />
    <glyph glyph-name="uni01D4" unicode="&#x1d4;" 
d="M404 719l-133 -154l-121 166l11 8l96 -128l119 133zM501 69q0 -36 15.5 -47.5t70.5 -11.5v-10h-161v111q-44 -126 -176 -126q-66 0 -107.5 42.5t-41.5 126.5v292q0 36 -15.5 47.5t-70.5 11.5v10h161v-321q0 -86 26.5 -127t85.5 -41t95 39t43 92v289q0 36 -15.5 47.5
t-70.5 11.5v10h161v-446z" />
    <glyph glyph-name="uni01D5" unicode="&#x1d5;" horiz-adv-x="759" 
d="M220 1015h349v-20h-349v20zM270 799q-23 0 -39.5 15t-16.5 36t16.5 36t39.5 15t39.5 -15t16.5 -36t-16.5 -36t-39.5 -15zM530 799q-23 0 -39.5 15t-16.5 36t16.5 36t39.5 15t39.5 -15t16.5 -36t-16.5 -36t-39.5 -15zM729 700v-10q-49 0 -67.5 -11t-18.5 -40l4 -389
q0 -53 -11.5 -98.5t-37 -84t-72 -60.5t-109.5 -22q-131 0 -205.5 65t-74.5 177v404q0 35 -21.5 47t-85.5 12v10h699zM439 36q83 0 132.5 55t50.5 169l4 391q-3 28 -40 36t-156 8q-120 0 -166.5 -14.5t-46.5 -49.5v-364q0 -109 60.5 -170t161.5 -61z" />
    <glyph glyph-name="uni01D6" unicode="&#x1d6;" 
d="M459 830v-20h-349v20h349zM160 614q-23 0 -39.5 15t-16.5 36t16.5 36t39.5 15t39.5 -15t16.5 -36t-16.5 -36t-39.5 -15zM364 665q0 21 16.5 36t39.5 15t39.5 -15t16.5 -36t-16.5 -36t-39.5 -15t-39.5 15t-16.5 36zM501 69q0 -36 15.5 -47.5t70.5 -11.5v-10h-161v111
q-44 -126 -176 -126q-66 0 -107.5 42.5t-41.5 126.5v292q0 36 -15.5 47.5t-70.5 11.5v10h161v-321q0 -86 26.5 -127t85.5 -41t95 39t43 92v289q0 36 -15.5 47.5t-70.5 11.5v10h161v-446z" />
    <glyph glyph-name="uni01D7" unicode="&#x1d7;" horiz-adv-x="759" 
d="M295 967q99 58 172 92q62 31 41 59q-17 28 -68 -19q-66 -60 -150 -124zM270 799q-23 0 -39.5 15t-16.5 36t16.5 36t39.5 15t39.5 -15t16.5 -36t-16.5 -36t-39.5 -15zM530 799q-23 0 -39.5 15t-16.5 36t16.5 36t39.5 15t39.5 -15t16.5 -36t-16.5 -36t-39.5 -15zM729 700
v-10q-49 0 -67.5 -11t-18.5 -40l4 -389q0 -53 -11.5 -98.5t-37 -84t-72 -60.5t-109.5 -22q-131 0 -205.5 65t-74.5 177v404q0 35 -21.5 47t-85.5 12v10h699zM439 36q83 0 132.5 55t50.5 169l4 391q-3 28 -40 36t-156 8q-120 0 -166.5 -14.5t-46.5 -49.5v-364
q0 -109 60.5 -170t161.5 -61z" />
    <glyph glyph-name="uni01D8" unicode="&#x1d8;" 
d="M357 874q-73 -34 -172 -92l-5 8q84 64 150 124q51 47 68 19q21 -28 -41 -59zM160 614q-23 0 -39.5 15t-16.5 36t16.5 36t39.5 15t39.5 -15t16.5 -36t-16.5 -36t-39.5 -15zM364 665q0 21 16.5 36t39.5 15t39.5 -15t16.5 -36t-16.5 -36t-39.5 -15t-39.5 15t-16.5 36z
M501 69q0 -36 15.5 -47.5t70.5 -11.5v-10h-161v111q-44 -126 -176 -126q-66 0 -107.5 42.5t-41.5 126.5v292q0 36 -15.5 47.5t-70.5 11.5v10h161v-321q0 -86 26.5 -127t85.5 -41t95 39t43 92v289q0 36 -15.5 47.5t-70.5 11.5v10h161v-446z" />
    <glyph glyph-name="uni01D9" unicode="&#x1d9;" horiz-adv-x="759" 
d="M514 1105l-133 -154l-121 166l11 8l96 -128l119 133zM270 799q-23 0 -39.5 15t-16.5 36t16.5 36t39.5 15t39.5 -15t16.5 -36t-16.5 -36t-39.5 -15zM474 850q0 21 16.5 36t39.5 15t39.5 -15t16.5 -36t-16.5 -36t-39.5 -15t-39.5 15t-16.5 36zM30 700h699v-10
q-49 0 -67.5 -11t-18.5 -40l4 -389q0 -53 -11.5 -98.5t-37 -84t-72 -60.5t-109.5 -22q-131 0 -205.5 65t-74.5 177v404q0 35 -21.5 47t-85.5 12v10zM622 260l4 391q-3 28 -40 36t-156 8q-120 0 -166.5 -14.5t-46.5 -49.5v-364q0 -109 60.5 -170t161.5 -61q83 0 132.5 55
t50.5 169z" />
    <glyph glyph-name="uni01DA" unicode="&#x1da;" 
d="M404 920l-133 -154l-121 166l11 8l96 -128l119 133zM160 614q-23 0 -39.5 15t-16.5 36t16.5 36t39.5 15t39.5 -15t16.5 -36t-16.5 -36t-39.5 -15zM364 665q0 21 16.5 36t39.5 15t39.5 -15t16.5 -36t-16.5 -36t-39.5 -15t-39.5 15t-16.5 36zM501 69q0 -36 15.5 -47.5
t70.5 -11.5v-10h-161v111q-44 -126 -176 -126q-66 0 -107.5 42.5t-41.5 126.5v292q0 36 -15.5 47.5t-70.5 11.5v10h161v-321q0 -86 26.5 -127t85.5 -41t95 39t43 92v289q0 36 -15.5 47.5t-70.5 11.5v10h161v-446z" />
    <glyph glyph-name="uni01DB" unicode="&#x1db;" horiz-adv-x="759" 
d="M515 967l5 8q-84 64 -150 124q-51 47 -68 19q-21 -28 41 -59q73 -34 172 -92zM270 799q-23 0 -39.5 15t-16.5 36t16.5 36t39.5 15t39.5 -15t16.5 -36t-16.5 -36t-39.5 -15zM530 799q-23 0 -39.5 15t-16.5 36t16.5 36t39.5 15t39.5 -15t16.5 -36t-16.5 -36t-39.5 -15z
M729 700v-10q-49 0 -67.5 -11t-18.5 -40l4 -389q0 -53 -11.5 -98.5t-37 -84t-72 -60.5t-109.5 -22q-131 0 -205.5 65t-74.5 177v404q0 35 -21.5 47t-85.5 12v10h699zM439 36q83 0 132.5 55t50.5 169l4 391q-3 28 -40 36t-156 8q-120 0 -166.5 -14.5t-46.5 -49.5v-364
q0 -109 60.5 -170t161.5 -61z" />
    <glyph glyph-name="uni01DC" unicode="&#x1dc;" 
d="M233 874q-62 31 -41 59q17 28 68 -19q66 -60 150 -124l-5 -8q-99 58 -172 92zM160 614q-23 0 -39.5 15t-16.5 36t16.5 36t39.5 15t39.5 -15t16.5 -36t-16.5 -36t-39.5 -15zM364 665q0 21 16.5 36t39.5 15t39.5 -15t16.5 -36t-16.5 -36t-39.5 -15t-39.5 15t-16.5 36z
M501 69q0 -36 15.5 -47.5t70.5 -11.5v-10h-161v111q-44 -126 -176 -126q-66 0 -107.5 42.5t-41.5 126.5v292q0 36 -15.5 47.5t-70.5 11.5v10h161v-321q0 -86 26.5 -127t85.5 -41t95 39t43 92v289q0 36 -15.5 47.5t-70.5 11.5v10h161v-446z" />
    <glyph glyph-name="uni01DF" unicode="&#x1df;" horiz-adv-x="523" 
d="M411 840v-20h-349v20h349zM112 624q-23 0 -39.5 15t-16.5 36t16.5 36t39.5 15t39.5 -15t16.5 -36t-16.5 -36t-39.5 -15zM316 675q0 21 16.5 36t39.5 15t39.5 -15t16.5 -36t-16.5 -36t-39.5 -15t-39.5 15t-16.5 36zM499 75l9 -10l-113 -74q-14 0 -25.5 17t-11.5 52v52
q-26 -53 -72.5 -90t-108.5 -37q-65 0 -103.5 34.5t-38.5 108.5q0 102 86 141l-65 163q93 95 197 95q180 0 180 -154v-311q1 -13 10 -13q6 0 56 26zM120 304q5 -20 10 -32q40 16 82 13l146 -10v88q0 73 -24.5 112t-87.5 39q-71 0 -109.5 -64t-16.5 -146zM207 20
q61 0 106 48.5t45 106.5v73l-102 6q-34 2 -63 -7.5t-51.5 -40.5t-22.5 -82q0 -49 24.5 -76.5t63.5 -27.5z" />
    <glyph glyph-name="Gcaron" unicode="&#x1e6;" horiz-adv-x="783" 
d="M531 904l-133 -154l-121 166l11 8l96 -128l119 133zM637 206l81 -96q-19 -10 -51 -35t-57.5 -42.5t-77.5 -32.5t-118 -15q-78 0 -144 21t-118.5 63.5t-82 114t-29.5 165.5t29.5 165.5t81.5 114t116.5 63.5t140.5 21q140 0 242 -56l38 -222h-7q-15 61 -28.5 99.5t-34.5 73
t-49 53t-68 28.5t-96 10q-84 0 -145 -50l373 -439l-1 1zM414 4q92 0 134.5 49t30 122.5t-71.5 148.5l-256 318q-53 -47 -81.5 -125t-28.5 -168q0 -142 77.5 -243.5t195.5 -101.5zM633 210q5 -4 4 -4z" />
    <glyph glyph-name="gcaron" unicode="&#x1e7;" horiz-adv-x="557" 
d="M348 719l-133 -154l-121 166l11 8l96 -128l119 133zM380 515h152v-10q-50 0 -63 -9t-13 -40v-488q0 -81 -49.5 -127.5t-141.5 -46.5q-113 0 -206 95l73 184q-97 56 -97 216q0 111 47.5 176t133.5 65q114 0 165 -98v24zM251 500q-63 0 -97 -52t-34 -155t34.5 -157.5
t96.5 -54.5q41 0 70 19.5t43 52.5t20 65.5t6 69.5t-6 70.5t-20 67t-43 54t-70 20.5zM258 -193q123 0 123 151v189q-52 -96 -165 -96q-41 0 -75 17q-11 -22 -18 -51q-21 -81 21.5 -145.5t113.5 -64.5z" />
    <glyph glyph-name="Oslashacute" unicode="&#x1fe;" horiz-adv-x="750" 
d="M442 868q-73 -34 -172 -92l-5 8q84 64 150 124q51 47 68 19q21 -28 -41 -59zM616 614q94 -99 94 -266q0 -93 -27 -164.5t-74 -114.5t-106 -65t-128 -22q-140 0 -229 82l-68 -80h-32l83 97q-89 97 -89 267q0 172 96.5 269t238.5 97q133 0 224 -83l58 68h32zM140 348
q0 -120 39 -208l377 441q-65 117 -181 117q-59 0 -106 -31.5t-74 -83.5t-41 -112t-14 -123zM375 -2q59 0 105.5 30t74 81t41.5 112t14 127q0 118 -42 209l-377 -441q64 -118 184 -118z" />
    <glyph glyph-name="oslashacute" unicode="&#x1ff;" horiz-adv-x="554" 
d="M344 683q-73 -34 -172 -92l-5 8q84 64 150 124q51 47 68 19q21 -28 -41 -59zM591 607l-133 -156q61 -71 61 -193q0 -137 -66.5 -203t-175.5 -66q-104 0 -166 56l-131 -153h-32l146 171q-59 69 -59 195q0 131 67.5 200t174.5 69q100 0 164 -58l118 138h32zM125 258
q0 -85 16 -141l262 308q-38 91 -126 91q-152 0 -152 -258zM429 258q0 84 -17 140l-262 -307q35 -91 127 -91q152 0 152 258z" />
    <glyph glyph-name="uni0218" unicode="&#x218;" horiz-adv-x="608" 
d="M568 179q0 -95 -69.5 -144.5t-172.5 -49.5q-79 0 -136 18t-150 63l32 242l13 -2q-24 -158 47 -232.5t194 -74.5q74 0 116.5 36t42.5 105q0 54 -33 107.5t-95 74.5l-156 54q-142 50 -142 175q0 163 220 163q36 0 72 -6.5t56.5 -13.5t55.5 -20.5t47 -17.5l-10 -216h-13
q13 260 -197 260q-153 0 -153 -124q0 -45 36 -80t96 -54l144 -46q71 -22 113 -78.5t42 -138.5zM348 -96q8 -35 -13 -67q-9 -16 -32 -31.5t-45 -22.5l-1 2q31 13 45 40q7 13 5 25t-12 18q-25 14 -25 37q0 14 11 24t27 10q31 0 40 -35z" />
    <glyph glyph-name="uni0219" unicode="&#x219;" horiz-adv-x="486" 
d="M451 141q0 -75 -59.5 -115t-143.5 -40q-85 0 -213 72l33 178l11 -3q-24 -115 19 -174.5t150 -58.5q52 1 88.5 26t36.5 69q0 45 -27.5 80t-71.5 51l-106 39q-60 22 -86.5 51t-26.5 75q0 63 51.5 100t121.5 37q74 0 175 -36l-28 -149l-8 3q31 169 -137 169
q-48 0 -77.5 -22.5t-29.5 -58.5t22.5 -57t72.5 -41l116 -46q64 -26 90.5 -60.5t26.5 -88.5zM274 -81q7 -29 -10 -56q-22 -31 -64 -44l-1 2q26 12 37 32q14 25 -6 36q-20 13 -20 30q0 12 9 20t22 8q26 0 33 -28z" />
    <glyph glyph-name="uni021A" unicode="&#x21a;" horiz-adv-x="717" 
d="M670 700l37 -197h-8q-42 110 -65 145t-63 36l-146 2q-26 -12 -26 -59v-558q0 -28 8 -39t33 -15.5t85 -4.5v-10h-328v10q80 0 101 10t21 49v558q0 49 -22 59l-151 -2q-40 -1 -63 -36t-65 -145h-8l37 197h623zM415 -93q10 -43 -16 -84q-12 -20 -40.5 -39.5t-55.5 -27.5
l-1 3q37 16 56 49q9 17 6 31.5t-15 22.5q-31 20 -31 46q0 18 13.5 30t33.5 12q18 0 31.5 -12t18.5 -31z" />
    <glyph glyph-name="uni021B" unicode="&#x21b;" horiz-adv-x="316" 
d="M288 99l9 -10l-141 -109q-36 2 -52.5 22.5t-16.5 64.5l1 436h-73v12q87 0 110.5 43t23.5 192h13v-235h107v-12h-107v-417q0 -30 21 -39t47 10zM204 -115q10 -43 -16 -84q-12 -20 -40.5 -39.5t-55.5 -27.5l-1 3q37 16 56 49q9 17 6 31.5t-15 22.5q-31 20 -31 46
q0 18 13.5 30t33.5 12q18 0 31.5 -12t18.5 -31z" />
    <glyph glyph-name="uni0228" unicode="&#x228;" 
d="M550 0h-254l-14 -46q47 7 76 -13t32 -53q4 -42 -22 -65.5t-65 -23.5q-34 0 -57.5 18.5t-32.5 44.5l23 14q6 -33 24.5 -49.5t42.5 -16.5q62 0 54 69q-9 74 -98 62l12 59h-256v10q48 0 67 14.5t19 44.5v562q0 30 -19 44.5t-67 14.5v10h525l37 -197h-8q-42 110 -65 145
t-63 36l-194 1q-35 -1 -49 -10t-16 -30v-279h174q20 0 31.5 4t21 23.5t9.5 58.5h7v-198h-7q0 58 -16.5 79t-45.5 21h-174l-1 -292q2 -30 15 -40l255 5q42 1 65.5 30t62.5 131h8z" />
    <glyph glyph-name="uni0229" unicode="&#x229;" horiz-adv-x="508" 
d="M307 -9q-121 -20 -196.5 53.5t-75.5 213.5q0 135 64.5 202.5t168.5 67.5q96 0 146.5 -56.5t54.5 -138.5l-5 -8h-332q-5 -42 -5 -67q0 -114 53.5 -182.5t146.5 -49.5q70 15 106.5 90.5t32.5 186.5h6q12 -282 -165 -312zM134 339h254q16 79 -14.5 129t-105.5 44
q-109 -8 -134 -173zM215 -144q6 -33 24.5 -49.5t42.5 -16.5q62 0 54 69q-9 74 -98 62l12 59h25l-14 -46q47 7 76 -13t32 -53q4 -42 -22 -65.5t-65 -23.5q-34 0 -57.5 18.5t-32.5 44.5z" />
    <glyph glyph-name="uni022A" unicode="&#x22a;" horiz-adv-x="750" 
d="M195 1025h349v-20h-349v20zM245 809q-23 0 -39.5 15t-16.5 36t16.5 36t39.5 15t39.5 -15t16.5 -36t-16.5 -36t-39.5 -15zM505 809q-23 0 -39.5 15t-16.5 36t16.5 36t39.5 15t39.5 -15t16.5 -36t-16.5 -36t-39.5 -15zM375 -18q-69 0 -128 22t-106 65t-74 114.5t-27 164.5
q0 172 96.5 269t238.5 97t238.5 -97t96.5 -269q0 -93 -27 -164.5t-74 -114.5t-106 -65t-128 -22zM375 -2q59 0 105.5 30t74 81t41.5 112t14 127q0 63 -14 123t-41 112t-73.5 83.5t-106.5 31.5q-59 0 -106 -31.5t-74 -83.5t-41 -112t-14 -123q0 -91 23 -167.5t78 -129.5
t134 -53z" />
    <glyph glyph-name="uni022B" unicode="&#x22b;" horiz-adv-x="554" 
d="M97 840h349v-20h-349v20zM147 624q-23 0 -39.5 15t-16.5 36t16.5 36t39.5 15t39.5 -15t16.5 -36t-16.5 -36t-39.5 -15zM407 624q-23 0 -39.5 15t-16.5 36t16.5 36t39.5 15t39.5 -15t16.5 -36t-16.5 -36t-39.5 -15zM277 -11q-109 0 -175.5 66t-66.5 203q0 131 67.5 200
t174.5 69t174.5 -69t67.5 -200q0 -137 -66.5 -203t-175.5 -66zM277 0q152 0 152 258t-152 258t-152 -258t152 -258z" />
    <glyph glyph-name="uni0243" unicode="&#x243;" horiz-adv-x="639" 
d="M442 373q76 -14 121.5 -60.5t45.5 -128.5q0 -184 -221 -184h-369v10q61 0 81.5 14t20.5 45v472h-89v25h89v65q0 36 -18.5 47.5t-87.5 11.5v10h334q218 0 218 -168q0 -131 -125 -159zM201 566h181v-25h-181v-161h153q50 0 89 38.5t39 113.5q0 43 -14 74t-37 46.5t-46.5 22
t-47.5 6.5h-110q-26 -13 -26 -50v-65zM375 16q55 0 98 43t43 125q0 90 -50 132.5t-110 42.5h-155v-290q0 -23 6.5 -35t26.5 -18h141z" />
    <glyph glyph-name="uni0268" unicode="&#x268;" horiz-adv-x="284" 
d="M152 629q-23 0 -39.5 15t-16.5 36t16.5 36t39.5 15t39.5 -15t16.5 -36t-16.5 -36t-39.5 -15zM183 63q1 -32 17 -42.5t69 -10.5v-10h-247v10q48 0 67 14.5t19 44.5v234h-75v25h75v87q-1 16 -6.5 23t-25.5 0.5t-53 -34.5l-8 10l147 116h22v-202h67v-25h-67z" />
    <glyph glyph-name="uni02BC" unicode="&#x2bc;" horiz-adv-x="600" 
 />
    <glyph glyph-name="gravecomb" unicode="&#x300;" horiz-adv-x="0" 
d="M-199 581l5 8q-84 64 -150 124q-51 47 -68 19q-21 -28 41 -59q73 -34 172 -92z" />
    <glyph glyph-name="acutecomb" unicode="&#x301;" horiz-adv-x="0" 
d="M-409 581q99 58 172 92q62 31 41 59q-17 28 -68 -19q-66 -60 -150 -124z" />
    <glyph glyph-name="uni0302" unicode="&#x302;" horiz-adv-x="0" 
d="M-75 596l-28 -25l-119 133l-96 -128l-11 8l121 166z" />
    <glyph glyph-name="tildecomb" unicode="&#x303;" horiz-adv-x="0" 
d="M-228 658q0 -70 -18 -93.5t-58 -23.5q-27 0 -79 32.5t-77 32.5q-61 0 -61 -66h-13q4 117 85 117q37 0 83.5 -32.5t71.5 -32.5q49 0 54 66h12z" />
    <glyph glyph-name="uni0304" unicode="&#x304;" horiz-adv-x="0" 
d="M-600 539h349v-20h-349v20z" />
    <glyph glyph-name="uni0306" unicode="&#x306;" horiz-adv-x="0" 
d="M-186 734q-1 -55 -31 -82.5t-76 -27.5t-76 27.5t-31 82.5h34q0 -95 73 -95t73 95h34z" />
    <glyph glyph-name="uni0307" unicode="&#x307;" horiz-adv-x="0" 
d="M-418 614q-23 0 -39.5 15t-16.5 36t16.5 36t39.5 15t39.5 -15t16.5 -36t-16.5 -36t-39.5 -15z" />
    <glyph glyph-name="uni0308" unicode="&#x308;" horiz-adv-x="0" 
d="M-418 614q-23 0 -39.5 15t-16.5 36t16.5 36t39.5 15t39.5 -15t16.5 -36t-16.5 -36t-39.5 -15zM-158 614q-23 0 -39.5 15t-16.5 36t16.5 36t39.5 15t39.5 -15t16.5 -36t-16.5 -36t-39.5 -15z" />
    <glyph glyph-name="hookabovecomb" unicode="&#x309;" horiz-adv-x="0" 
d="M-339 807q55 -1 82.5 -31t27.5 -76t-27.5 -76t-82.5 -31v34q95 0 95 73t-95 73v34z" />
    <glyph glyph-name="uni030A" unicode="&#x30a;" horiz-adv-x="0" 
d="M-293 580q-56 0 -56 62q0 30 15.5 46t40.5 16t40.5 -16t15.5 -46q0 -62 -56 -62zM-293 585q36 0 36 57t-36 57t-36 -57t36 -57z" />
    <glyph glyph-name="uni030B" unicode="&#x30b;" horiz-adv-x="0" 
d="M-409 578q99 58 172 92q62 31 41 59q-17 28 -68 -19q-66 -60 -150 -124zM-256 578q99 58 172 92q62 31 41 59q-17 28 -68 -19q-66 -60 -150 -124z" />
    <glyph glyph-name="uni030C" unicode="&#x30c;" horiz-adv-x="0" 
d="M-103 744l28 -25l-133 -154l-121 166l11 8l96 -128z" />
    <glyph glyph-name="uni0312" unicode="&#x312;" horiz-adv-x="0" 
d="M-177 631q-12 50 19 100q15 23 49 46.5t66 33.5l1 -3q-47 -21 -67 -59q-10 -20 -7 -38t18 -27q37 -22 37 -54q0 -21 -16.5 -36t-39.5 -15q-22 0 -38.5 14.5t-21.5 37.5z" />
    <glyph glyph-name="uni031B" unicode="&#x31b;" horiz-adv-x="0" 
d="M-25 630q0 -72 -37 -104t-117 -33v10q111 0 111 127h43z" />
    <glyph glyph-name="dotbelowcomb" unicode="&#x323;" horiz-adv-x="0" 
d="M-494 -200q-23 0 -39.5 15t-16.5 36t16.5 36t39.5 15t39.5 -15t16.5 -36t-16.5 -36t-39.5 -15z" />
    <glyph glyph-name="uni0326" unicode="&#x326;" horiz-adv-x="0" 
d="M-58 -93q10 -43 -16 -84q-12 -20 -40.5 -39.5t-55.5 -27.5l-1 3q37 16 56 49q9 17 6 31.5t-15 22.5q-31 20 -31 46q0 18 13.5 30t33.5 12q18 0 31.5 -12t18.5 -31z" />
    <glyph glyph-name="uni0327" unicode="&#x327;" horiz-adv-x="0" 
d="M-323 -124q6 -33 24.5 -49.5t42.5 -16.5q62 0 54 69q-9 74 -98 62l12 59h25l-14 -46q47 7 76 -13t32 -53q4 -42 -22 -65.5t-65 -23.5q-34 0 -57.5 18.5t-32.5 44.5z" />
    <glyph glyph-name="uni0328" unicode="&#x328;" horiz-adv-x="0" 
d="M-34 -162q-49 -26 -90.5 -9t-44.5 68q-2 29 21.5 63t66.5 48l5 -2q-74 -56 -51 -114q9 -23 35.5 -31t57.5 3v-26z" />
    <glyph glyph-name="uni0335" unicode="&#x335;" horiz-adv-x="0" 
d="M-443 328h350v-25h-350v25z" />
    <glyph glyph-name="uni0336" unicode="&#x336;" horiz-adv-x="0" 
d="M-700 328h650v-25h-650v25z" />
    <glyph glyph-name="uni0337" unicode="&#x337;" horiz-adv-x="0" 
d="M-495 192l209 284l18 -14l-209 -284z" />
    <glyph glyph-name="uni0338" unicode="&#x338;" horiz-adv-x="0" 
d="M9 690h32l-611 -715h-32z" />
    <glyph glyph-name="uni0400" unicode="&#x400;" 
d="M227 858q-62 31 -41 59q17 28 68 -19q66 -60 150 -124l-5 -8q-99 58 -172 92zM579 188h8l-37 -188h-535v10q48 0 67 14.5t19 44.5v562q0 30 -19 44.5t-67 14.5v10h525l37 -197h-8q-42 110 -65 145t-63 36l-194 1q-35 -1 -49 -10t-16 -30v-279h174q20 0 31.5 4t21 23.5
t9.5 58.5h7v-198h-7q0 58 -16.5 79t-45.5 21h-174l-1 -292q2 -30 15 -40l255 5q42 1 65.5 30t62.5 131z" />
    <glyph glyph-name="uni0401" unicode="&#x401;" 
d="M154 799q-23 0 -39.5 15t-16.5 36t16.5 36t39.5 15t39.5 -15t16.5 -36t-16.5 -36t-39.5 -15zM414 799q-23 0 -39.5 15t-16.5 36t16.5 36t39.5 15t39.5 -15t16.5 -36t-16.5 -36t-39.5 -15zM579 188h8l-37 -188h-535v10q48 0 67 14.5t19 44.5v562q0 30 -19 44.5t-67 14.5
v10h525l37 -197h-8q-42 110 -65 145t-63 36l-194 1q-35 -1 -49 -10t-16 -30v-279h174q20 0 31.5 4t21 23.5t9.5 58.5h7v-198h-7q0 58 -16.5 79t-45.5 21h-174l-1 -292q2 -30 15 -40l255 5q42 1 65.5 30t62.5 131z" />
    <glyph glyph-name="uni0403" unicode="&#x403;" horiz-adv-x="600" 
d="M367 858q-73 -34 -172 -92l-5 8q84 64 150 124q51 47 68 19q21 -28 -41 -59zM540 700l37 -197h-8q-42 110 -65 145t-63 36l-194 1q-35 -1 -49 -10t-16 -30l-1 -583q1 -31 17.5 -41.5t68.5 -10.5v-10h-252v10q48 0 67 14.5t19 44.5v562q0 30 -19 44.5t-67 14.5v10h525z
" />
    <glyph glyph-name="uni0404" unicode="&#x404;" horiz-adv-x="738" 
d="M686 263h12l-48 -222q-108 -56 -236 -56q-78 0 -144 21t-118.5 63.5t-82 114t-29.5 165.5t29.5 165.5t81.5 114t116.5 63.5t140.5 21q140 0 242 -56l38 -222h-12q-19 78 -36 121t-46.5 79t-74.5 50t-114 14q-120 0 -189.5 -96t-74.5 -237h215q20 0 31.5 4t21 23.5
t9.5 58.5h7v-198h-7q0 58 -16.5 79t-45.5 21h-215v-5q0 -142 77.5 -243.5t195.5 -101.5q47 0 82 6.5t60.5 22t43 34t32.5 50t26 62t26 77.5q1 5 2 7z" />
    <glyph glyph-name="uni0405" unicode="&#x405;" horiz-adv-x="608" 
d="M568 179q0 -95 -69.5 -144.5t-172.5 -49.5q-79 0 -136 18t-150 63l32 242l13 -2q-24 -158 47 -232.5t194 -74.5q74 0 116.5 36t42.5 105q0 54 -33 107.5t-95 74.5l-156 54q-142 50 -142 175q0 163 220 163q36 0 72 -6.5t56.5 -13.5t55.5 -20.5t47 -17.5l-10 -216h-13
q13 260 -197 260q-153 0 -153 -124q0 -45 36 -80t96 -54l144 -46q71 -22 113 -78.5t42 -138.5z" />
    <glyph glyph-name="uni0406" unicode="&#x406;" horiz-adv-x="363" 
d="M221 69q0 -36 18.5 -47.5t87.5 -11.5v-10h-288v10q61 0 81.5 14t20.5 45v562q0 36 -18.5 47.5t-87.5 11.5v10h293v-10q-64 0 -85.5 -12t-21.5 -47v-562z" />
    <glyph glyph-name="uni0407" unicode="&#x407;" horiz-adv-x="363" 
d="M52 799q-23 0 -39.5 15t-16.5 36t16.5 36t39.5 15t39.5 -15t16.5 -36t-16.5 -36t-39.5 -15zM312 799q-23 0 -39.5 15t-16.5 36t16.5 36t39.5 15t39.5 -15t16.5 -36t-16.5 -36t-39.5 -15zM221 69q0 -36 18.5 -47.5t87.5 -11.5v-10h-288v10q61 0 81.5 14t20.5 45v562
q0 36 -18.5 47.5t-87.5 11.5v10h293v-10q-64 0 -85.5 -12t-21.5 -47v-562z" />
    <glyph glyph-name="uni0408" unicode="&#x408;" horiz-adv-x="323" 
d="M15 700h293v-10q-64 0 -85.5 -12t-21.5 -47v-600q0 -243 -142 -243q-77 0 -142 65l42 179l8 -2q-26 -117 2 -174.5t103 -57.5q30 0 56.5 24.5t26.5 63.5q0 55 -34 95v650q0 36 -18.5 47.5t-87.5 11.5v10z" />
    <glyph glyph-name="uni040C" unicode="&#x40c;" horiz-adv-x="720" 
d="M424 858q-73 -34 -172 -92l-5 8q84 64 150 124q51 47 68 19q21 -28 -41 -59zM616 39q23 -29 99 -29v-10h-288v10q75 0 75 19q0 6 -7 15l-246 348l-68 -56v-272q1 -32 17 -43t69 -11v-10h-252v10q48 0 67 14.5t19 44.5v561l1 1h-1q0 30 -19 44.5t-67 14.5v10h656v-11
q-68 0 -107 -33l-268 -224zM182 650l-1 -289l348 285q38 31 -39 41q-26 3 -63 4h-161q-47 0 -64 -8.5t-20 -32.5z" />
    <glyph glyph-name="uni040D" unicode="&#x40d;" horiz-adv-x="783" 
d="M332 858q-62 31 -41 59q17 28 68 -19q66 -60 150 -124l-5 -8q-99 58 -172 92zM768 690q-64 0 -85.5 -12t-21.5 -47v-562q0 -36 18.5 -47.5t87.5 -11.5v-10h-288v7q60 0 81 15t21 47v452l-380 -404v-48q0 -37 19 -49.5t87 -12.5v-7h-288v10q61 0 81.5 14t20.5 45v562
q0 36 -18.5 47.5t-87.5 11.5v10h293v-7q-63 0 -85 -13.5t-22 -48.5v-489l380 404v85q0 37 -19 49.5t-87 12.5v7h293v-10z" />
    <glyph glyph-name="uni040E" unicode="&#x40e;" horiz-adv-x="677" 
d="M339 759q-46 0 -76 27.5t-31 82.5h34q0 -95 73 -95t73 95h34q-1 -55 -31 -82.5t-76 -27.5zM662 700v-10q-28 0 -40 -0.5t-26 -2.5t-20 -6.5t-9 -13.5l-190 -477l-36 -121q-12 -38 12.5 -51t99.5 -13v-5h-283v5q62 0 87.5 13.5t37.5 42.5l47 125l-231 481h-1
q-6 16 -25 19.5t-70 3.5v10h647zM378 696q-99 0 -132 -4.5t-34 -19.5l181 -403l147 399q2 10 -4 15t-26 8t-48.5 4t-83.5 1z" />
    <glyph glyph-name="uni0410" unicode="&#x410;" horiz-adv-x="829" 
d="M694 32q11 -14 37 -18t83 -4v-10h-799v12q64 0 89.5 4.5t35.5 22.5l247 619q2 11 -5.5 17.5t-31.5 10.5t-63 5.5t-106 1.5v7h464v-7q-69 0 -108.5 -1.5t-63.5 -6t-30.5 -11.5t-3.5 -19zM503 289l-118 305l-114 -305h232zM361 6q82 0 120 1t70 5t40 12t5 22l-88 228h-243
l-84 -227q-8 -25 10 -32q22 -9 170 -9z" />
    <glyph glyph-name="uni0411" unicode="&#x411;" horiz-adv-x="639" 
d="M369 379q105 0 172.5 -46.5t67.5 -148.5q0 -184 -221 -184h-369v10q61 0 81.5 14t20.5 45v562q0 36 -18.5 47.5t-87.5 11.5v10h525l37 -197h-8q-42 110 -65 145t-63 36l-204 1q-36 -12 -36 -54v-252h168zM375 16q55 0 98 43t43 125q0 90 -50 132.5t-110 42.5h-155v-290
q0 -23 6.5 -35t26.5 -18h141z" />
    <glyph glyph-name="uni0412" unicode="&#x412;" horiz-adv-x="639" 
d="M442 373q76 -14 121.5 -60.5t45.5 -128.5q0 -184 -221 -184h-369v10q61 0 81.5 14t20.5 45v562q0 36 -18.5 47.5t-87.5 11.5v10h334q218 0 218 -168q0 -131 -125 -159zM337 681h-110q-26 -13 -26 -50v-251h153q50 0 89 38.5t39 113.5q0 43 -14 74t-37 46.5t-46.5 22
t-47.5 6.5zM375 16q55 0 98 43t43 125q0 90 -50 132.5t-110 42.5h-155v-290q0 -23 6.5 -35t26.5 -18h141z" />
    <glyph glyph-name="uni0413" unicode="&#x413;" horiz-adv-x="600" 
d="M540 700l37 -197h-8q-42 110 -65 145t-63 36l-194 1q-35 -1 -49 -10t-16 -30l-1 -583q1 -31 17.5 -41.5t68.5 -10.5v-10h-252v10q48 0 67 14.5t19 44.5v562q0 30 -19 44.5t-67 14.5v10h525z" />
    <glyph glyph-name="uni0414" unicode="&#x414;" horiz-adv-x="777" 
d="M725 16l37 -197h-8q-47 123 -66 149q-23 32 -62 32h-475q-41 0 -62.5 -32.5t-62.5 -140.5q-2 -5 -3 -8h-8l37 197h71q73 86 114.5 227t41.5 317v71q0 30 -19 44.5t-67 14.5v10h532v-10q-48 0 -67 -14.5t-19 -44.5v-562q0 -41 37 -53h49zM310 499q0 -153 -24.5 -283.5
t-74.5 -199.5l89 -1l199 1v-1l31 1q27 7 29 46l-1 583q-2 20 -15 29t-44 10l-111 1q-43 -2 -59 -10.5t-19 -29.5v-146z" />
    <glyph glyph-name="uni0415" unicode="&#x415;" 
d="M579 188h8l-37 -188h-535v10q48 0 67 14.5t19 44.5v562q0 30 -19 44.5t-67 14.5v10h525l37 -197h-8q-42 110 -65 145t-63 36l-194 1q-35 -1 -49 -10t-16 -30v-279h174q20 0 31.5 4t21 23.5t9.5 58.5h7v-198h-7q0 58 -16.5 79t-45.5 21h-174l-1 -292q2 -30 15 -40l255 5
q42 1 65.5 30t62.5 131z" />
    <glyph glyph-name="uni0416" unicode="&#x416;" horiz-adv-x="1157" 
d="M1053 39q23 -29 99 -29v-10h-288v10q75 0 75 19q0 6 -7 15l-246 348l-68 -56v-272q1 -32 17 -43t69 -11v-10h-252v10q48 0 67 14.5t19 44.5v267l-67 56l-246 -348q-18 -25 17 -31q18 -3 51 -3v-10h-288v10q76 0 99 29l320 393l-268 224q-39 33 -107 33v11h1059v-11
q-68 0 -107 -33l-268 -224zM191 646l347 -285v269l1 1h-1q0 30 -19 44.5t-67 14.5v1h-159q-115 -3 -115 -27q0 -8 13 -18zM619 631l-1 -270l348 285q38 31 -39 41q-26 3 -63 4h-159v-1q-48 0 -67 -14.5t-19 -44.5z" />
    <glyph glyph-name="uni0417" unicode="&#x417;" horiz-adv-x="642" 
d="M591 227q7 -114 -65 -180.5t-200 -66.5q-104 0 -174 55.5t-102 146.5l82 169l6 -2q-28 -91 -32.5 -127t5.5 -77q16 -62 74.5 -105.5t142.5 -43.5q94 0 141 58t41 146q-8 104 -73 159t-205 37l-12 16q1 0 23 1.5t41.5 3.5t47.5 9.5t49 18.5t37.5 30.5t20.5 45.5
q11 78 -26 122.5t-100 44.5q-49 0 -90 -29.5t-64 -77.5q-29 -62 7 -147l-5 -2l-55 105q4 76 62.5 121.5t143.5 45.5q203 0 203 -154q0 -50 -38.5 -85t-105.5 -48q101 -4 158 -54t62 -136z" />
    <glyph glyph-name="uni0418" unicode="&#x418;" horiz-adv-x="783" 
d="M768 690q-64 0 -85.5 -12t-21.5 -47v-562q0 -36 18.5 -47.5t87.5 -11.5v-10h-288v7q60 0 81 15t21 47v452l-380 -404v-48q0 -37 19 -49.5t87 -12.5v-7h-288v10q61 0 81.5 14t20.5 45v562q0 36 -18.5 47.5t-87.5 11.5v10h293v-7q-63 0 -85 -13.5t-22 -48.5v-489l380 404
v85q0 37 -19 49.5t-87 12.5v7h293v-10z" />
    <glyph glyph-name="uni0419" unicode="&#x419;" horiz-adv-x="783" 
d="M389 759q-46 0 -76 27.5t-31 82.5h34q0 -95 73 -95t73 95h34q-1 -55 -31 -82.5t-76 -27.5zM768 690q-64 0 -85.5 -12t-21.5 -47v-562q0 -36 18.5 -47.5t87.5 -11.5v-10h-288v7q60 0 81 15t21 47v452l-380 -404v-48q0 -37 19 -49.5t87 -12.5v-7h-288v10q61 0 81.5 14
t20.5 45v562q0 36 -18.5 47.5t-87.5 11.5v10h293v-7q-63 0 -85 -13.5t-22 -48.5v-489l380 404v85q0 37 -19 49.5t-87 12.5v7h293v-10z" />
    <glyph glyph-name="uni041A" unicode="&#x41a;" horiz-adv-x="720" 
d="M616 39q23 -29 99 -29v-10h-288v10q75 0 75 19q0 6 -7 15l-246 348l-68 -56v-272q1 -32 17 -43t69 -11v-10h-252v10q48 0 67 14.5t19 44.5v561l1 1h-1q0 30 -19 44.5t-67 14.5v10h656v-11q-68 0 -107 -33l-268 -224zM182 650l-1 -289l348 285q38 31 -39 41q-26 3 -63 4
h-161q-47 0 -64 -8.5t-20 -32.5z" />
    <glyph glyph-name="uni041B" unicode="&#x41b;" horiz-adv-x="682" 
d="M667 690q-48 0 -67 -14.5t-19 -44.5v-562q0 -30 19 -44.5t67 -14.5v-10h-252v10q52 0 68.5 10.5t17.5 41.5l-1 583q-2 20 -15 29t-44 10l-111 1q-43 -2 -59 -10.5t-19 -29.5v-146q0 -163 -27 -298.5t-84 -200.5h-90q79 84 124.5 230t45.5 330v71q0 30 -19 44.5t-67 14.5
v10h532v-10z" />
    <glyph glyph-name="uni041C" unicode="&#x41c;" horiz-adv-x="858" 
d="M838 690q-64 0 -85.5 -12t-21.5 -47v-562q0 -36 18.5 -47.5t87.5 -11.5v-10h-288v10q61 0 81.5 14t20.5 45v561l-225 -630h-25l-255 588v-519q0 -36 15.5 -47.5t70.5 -11.5v-10h-193v10q47 0 64.5 14.5t17.5 44.5v562q0 36 -18.5 47.5t-87.5 11.5v10h168l262 -576
l206 576h187v-10z" />
    <glyph glyph-name="uni041D" unicode="&#x41d;" horiz-adv-x="783" 
d="M768 690q-64 0 -85.5 -12t-21.5 -47v-562q0 -36 18.5 -47.5t87.5 -11.5v-10h-288v7q60 0 81 15t21 47v285h-380v-285q0 -37 19 -49.5t87 -12.5v-7h-288v10q61 0 81.5 14t20.5 45v562q0 36 -18.5 47.5t-87.5 11.5v10h293v-7q-63 0 -85 -13.5t-22 -48.5v-262h380v262
q0 37 -19 49.5t-87 12.5v7h293v-10z" />
    <glyph glyph-name="uni041E" unicode="&#x41e;" horiz-adv-x="750" 
d="M375 -18q-69 0 -128 22t-106 65t-74 114.5t-27 164.5q0 172 96.5 269t238.5 97t238.5 -97t96.5 -269q0 -93 -27 -164.5t-74 -114.5t-106 -65t-128 -22zM375 -2q59 0 105.5 30t74 81t41.5 112t14 127q0 63 -14 123t-41 112t-73.5 83.5t-106.5 31.5q-59 0 -106 -31.5
t-74 -83.5t-41 -112t-14 -123q0 -91 23 -167.5t78 -129.5t134 -53z" />
    <glyph glyph-name="uni041F" unicode="&#x41f;" horiz-adv-x="682" 
d="M667 690q-48 0 -67 -14.5t-19 -44.5v-562q0 -30 19 -44.5t67 -14.5v-10h-252v10q52 0 68.5 10.5t17.5 41.5l-1 583q-2 20 -15 29t-44 10l-194 1q-35 -1 -49 -10t-16 -30l-1 -583q1 -31 17.5 -41.5t68.5 -10.5v-10h-252v10q48 0 67 14.5t19 44.5v562q0 30 -19 44.5
t-67 14.5v10h652v-10z" />
    <glyph glyph-name="uni0420" unicode="&#x420;" horiz-adv-x="643" 
d="M369 700q239 0 239 -192q0 -191 -219 -191h-188v-248q0 -36 18.5 -47.5t87.5 -11.5v-10h-288v10q61 0 81.5 14t20.5 45v562q0 36 -18.5 47.5t-87.5 11.5v10h354zM375 333q57 0 102 44.5t45 130.5q0 49 -16 85t-42.5 53.5t-53.5 25.5t-55 8h-130q-24 -13 -24 -49v-298h174
z" />
    <glyph glyph-name="uni0421" unicode="&#x421;" horiz-adv-x="738" 
d="M686 263h12l-48 -222q-108 -56 -236 -56q-78 0 -144 21t-118.5 63.5t-82 114t-29.5 165.5t29.5 165.5t81.5 114t116.5 63.5t140.5 21q140 0 242 -56l38 -222h-12q-19 78 -36 121t-46.5 79t-74.5 50t-114 14q-124 0 -194 -102t-70 -248q0 -142 77.5 -243.5t195.5 -101.5
q47 0 82 6.5t60.5 22t43 34t32.5 50t26 62t26 77.5q1 5 2 7z" />
    <glyph glyph-name="uni0422" unicode="&#x422;" horiz-adv-x="717" 
d="M670 700l37 -197h-8q-42 110 -65 145t-63 36l-146 2q-26 -12 -26 -59v-558q0 -28 8 -39t33 -15.5t85 -4.5v-10h-328v10q80 0 101 10t21 49v558q0 49 -22 59l-151 -2q-40 -1 -63 -36t-65 -145h-8l37 197h623z" />
    <glyph glyph-name="uni0423" unicode="&#x423;" horiz-adv-x="677" 
d="M662 700v-10q-28 0 -40 -0.5t-26 -2.5t-20 -6.5t-9 -13.5l-190 -477l-36 -121q-12 -38 12.5 -51t99.5 -13v-5h-283v5q62 0 87.5 13.5t37.5 42.5l47 125l-231 481h-1q-6 16 -25 19.5t-70 3.5v10h647zM378 696q-99 0 -132 -4.5t-34 -19.5l181 -403l147 399q2 10 -4 15
t-26 8t-48.5 4t-83.5 1z" />
    <glyph glyph-name="uni0424" unicode="&#x424;" horiz-adv-x="846" 
d="M806 362q0 -128 -85.5 -185t-257.5 -62v-46q0 -36 18.5 -47.5t87.5 -11.5v-10h-288v10q61 0 81.5 14t20.5 45v46q-172 5 -257.5 62t-85.5 185q0 236 343 247v22q0 36 -18.5 47.5t-87.5 11.5v10h293v-10q-64 0 -85.5 -12t-21.5 -47v-22q343 -11 343 -247zM712 362
q0 44 -11.5 81t-38.5 70.5t-77.5 54t-121.5 25.5v-462q249 15 249 231zM134 362q0 -215 249 -231v462q-71 -5 -121.5 -25.5t-77 -54t-38.5 -70.5t-12 -81z" />
    <glyph glyph-name="uni0425" unicode="&#x425;" horiz-adv-x="773" 
d="M82 665q-16 24 -102 24v11h759v-11h-22h-19.5h-15t-14 -1.5t-10 -3t-9.5 -5t-7 -7.5l-231 -296l251 -341q16 -24 102 -24v-11h-759v11h22h19.5h15t14 1.5t10 3t9.5 5t7 7.5l231 296zM381 691q-167 0 -185 -10q-10 -6 -2 -16l201 -266l200 258q16 20 -27 27t-187 7z
M550 35l-201 266l-200 -258q-16 -20 27 -27t187 -7q167 0 185 10q10 6 2 16z" />
    <glyph glyph-name="uni0426" unicode="&#x426;" horiz-adv-x="787" 
d="M740 16l37 -197h-8q-47 123 -66 149q-23 32 -62 32h-626v10q48 0 67 14.5t19 44.5v562q0 30 -19 44.5t-67 14.5v10h252v-10q-52 0 -68.5 -10.5t-17.5 -41.5l1 -583q2 -21 16 -30t49 -10l194 1q31 1 44 10t15 29l1 583q-1 31 -17.5 41.5t-68.5 10.5v10h252v-10
q-48 0 -67 -14.5t-19 -44.5v-562q0 -42 38 -53h121z" />
    <glyph glyph-name="uni0427" unicode="&#x427;" horiz-adv-x="718" 
d="M697 690q-50 0 -78 -15.5t-28 -43.5v-562q0 -28 28 -43.5t78 -15.5v-10h-287v10q52 0 76.5 10t28.5 36l1 341q-12 -33 -35.5 -65.5t-70.5 -61.5t-104 -29q-100 0 -152.5 55t-52.5 164v171q0 36 -15.5 47.5t-70.5 11.5v10h243v-10q-53 0 -67.5 -13.5t-14.5 -45.5v-128
q0 -120 42.5 -171t109.5 -51q82 0 130.5 47t57.5 106v199q-1 32 -25 44.5t-81 12.5v10h287v-10z" />
    <glyph glyph-name="uni0428" unicode="&#x428;" horiz-adv-x="1002" 
d="M987 690q-48 0 -67 -14.5t-19 -44.5v-562q0 -30 19 -44.5t67 -14.5v-10h-972v10q48 0 67 14.5t19 44.5v562q0 30 -19 44.5t-67 14.5v10h252v-10q-52 0 -68.5 -10.5t-17.5 -41.5l1 -583q2 -21 16 -30t49 -10l157 1q24 1 37 8q17 12 19 34q1 5 1 16v557q0 30 -19 44.5
t-67 14.5v10h252v-10q-52 0 -68.5 -10.5t-17.5 -41.5l1 -582q3 -20 19 -32q13 -8 45 -9l155 1q31 1 44 10t15 29l1 583q-1 31 -17.5 41.5t-68.5 10.5v10h252v-10z" />
    <glyph glyph-name="uni0429" unicode="&#x429;" horiz-adv-x="1112" 
d="M1060 16l37 -197h-8q-47 123 -66 149q-23 32 -62 32h-946v10q48 0 67 14.5t19 44.5v562q0 30 -19 44.5t-67 14.5v10h252v-10q-52 0 -68.5 -10.5t-17.5 -41.5l1 -583q2 -21 16 -30t49 -10l157 1q24 1 37 8q17 12 19 34q1 5 1 16v557q0 30 -19 44.5t-67 14.5v10h252v-10
q-52 0 -68.5 -10.5t-17.5 -41.5l1 -582q3 -20 19 -32q13 -8 45 -9l155 1q31 1 44 10t15 29l1 583q-1 31 -17.5 41.5t-68.5 10.5v10h252v-10q-48 0 -67 -14.5t-19 -44.5v-562q0 -42 38 -53h121z" />
    <glyph glyph-name="uni042A" unicode="&#x42a;" horiz-adv-x="902" 
d="M647 379q105 0 172.5 -46.5t67.5 -148.5q0 -184 -221 -184h-353v10q52 0 68.5 10.5t17.5 41.5l-1 583q-2 21 -15.5 29.5t-48.5 10.5l-183 -1q-40 0 -63 -35t-65 -146h-8l37 197h513v-10q-48 0 -67 -14.5t-19 -44.5v-252h168zM653 16q55 0 98 43t43 125q0 90 -50 132.5
t-110 42.5h-155v-290q0 -41 37 -53h137z" />
    <glyph glyph-name="uni042B" unicode="&#x42b;" horiz-adv-x="902" 
d="M349 379q105 0 172.5 -46.5t67.5 -148.5q0 -184 -221 -184h-353v10q52 0 68.5 10.5t17.5 41.5l-1 583q-3 25 -20.5 35t-64.5 10v10h252v-10q-48 0 -67 -14.5t-19 -44.5v-252h168zM867 690q-48 0 -67 -14.5t-19 -44.5v-562q0 -30 19 -44.5t67 -14.5v-10h-252v10
q52 0 68.5 10.5t17.5 41.5l-1 583q-3 25 -20.5 35t-64.5 10v10h252v-10zM355 16q55 0 98 43t43 125q0 90 -50 132.5t-110 42.5h-155v-290q0 -41 37 -53h137z" />
    <glyph glyph-name="uni042C" unicode="&#x42c;" horiz-adv-x="600" 
d="M349 379q105 0 172.5 -46.5t67.5 -148.5q0 -184 -221 -184h-353v10q52 0 68.5 10.5t17.5 41.5l-1 583q-3 25 -20.5 35t-64.5 10v10h252v-10q-48 0 -67 -14.5t-19 -44.5v-252h168zM355 16q55 0 98 43t43 125q0 90 -50 132.5t-110 42.5h-155v-290q0 -41 37 -53h137z" />
    <glyph glyph-name="uni042D" unicode="&#x42d;" horiz-adv-x="738" 
d="M330 713q76 0 140.5 -21t116.5 -63.5t81.5 -114t29.5 -165.5t-29.5 -165.5t-82 -114t-118.5 -63.5t-144 -21q-128 0 -236 56l-48 222h12q41 -128 66 -168q44 -71 134 -86q32 -5 72 -5q118 0 195.5 101.5t77.5 243.5v5h-215q-29 0 -45.5 -21t-16.5 -79h-7v198h7
q0 -39 9.5 -58.5t21 -23.5t31.5 -4h215q-5 141 -74.5 237t-189.5 96q-69 0 -114 -14t-74.5 -50t-46.5 -79t-36 -121h-12l38 222q102 56 242 56z" />
    <glyph glyph-name="uni042E" unicode="&#x42e;" horiz-adv-x="1083" 
d="M708 714q142 0 238.5 -97t96.5 -269q0 -93 -27 -164.5t-74 -114.5t-106 -65t-128 -22t-128 22t-106 65t-74 114.5t-27 164.5v6h-152v-285q0 -36 18.5 -47.5t87.5 -11.5v-10h-288v10q61 0 81.5 14t20.5 45v562q0 36 -18.5 47.5t-87.5 11.5v10h293v-10q-64 0 -85.5 -12
t-21.5 -47v-262h152q4 109 52 189t121 118t162 38zM708 -2q59 0 105.5 30t74 81t41.5 112t14 127q0 63 -14 123t-41 112t-73.5 83.5t-106.5 31.5q-59 0 -106 -31.5t-74 -83.5t-41 -112t-14 -123q0 -91 23 -167.5t78 -129.5t134 -53z" />
    <glyph glyph-name="uni042F" unicode="&#x42f;" horiz-adv-x="755" 
d="M740 690q-65 0 -85.5 -19.5t-20.5 -59.5v-522q0 -79 102 -79v-10h-288v10q65 0 85.5 19.5t20.5 59.5v376l-129 -159h1l-190 -261q-5 -11 -6.5 -18t8 -11t24 -5t41.5 -1v-10h-298v10q96 0 133 37l234 237q-33 0 -69.5 12t-72.5 37t-59.5 71t-23.5 104q0 192 239 192h354
v-10zM425 333l129 151v127q0 51 -35 69h-119q-28 0 -55 -8t-53.5 -25.5t-42.5 -53.5t-16 -85q0 -35 16 -70.5t39.5 -59t51 -41t50 -17t35.5 12.5z" />
    <glyph glyph-name="uni0430" unicode="&#x430;" horiz-adv-x="523" 
d="M499 75l9 -10l-113 -74q-14 0 -25.5 17t-11.5 52v52q-26 -53 -72.5 -90t-108.5 -37q-65 0 -103.5 34.5t-38.5 108.5q0 102 86 141l-65 163q93 95 197 95q180 0 180 -154v-311q1 -13 10 -13q6 0 56 26zM120 304q5 -20 10 -32q40 16 82 13l146 -10v88q0 73 -24.5 112
t-87.5 39q-71 0 -109.5 -64t-16.5 -146zM207 20q61 0 106 48.5t45 106.5v73l-102 6q-34 2 -63 -7.5t-51.5 -40.5t-22.5 -82q0 -49 24.5 -76.5t63.5 -27.5z" />
    <glyph glyph-name="uni0431" unicode="&#x431;" horiz-adv-x="590" 
d="M197 663q-64 0 -94.5 -46t-32.5 -122v-95q21 62 77.5 94.5t129.5 32.5q107 0 174.5 -69t67.5 -200q0 -137 -66.5 -203t-175.5 -66t-175.5 66t-66.5 203v243q0 86 44 134.5t118 48.5q47 0 111.5 -24t117.5 -24q28 0 45 20.5t17 43.5h67q0 -47 -29.5 -83.5t-82.5 -36.5
q-55 0 -128.5 41.5t-117.5 41.5zM277 511q-148 0 -148 -253q0 -54 6 -95t21 -79t45.5 -58.5t75.5 -20.5t75.5 20.5t45.5 58.5t21 79t6 95q0 253 -148 253z" />
    <glyph glyph-name="uni0432" unicode="&#x432;" horiz-adv-x="470" 
d="M324 275q124 -23 124 -140q0 -135 -163 -135h-289v7q44 0 59.5 10.5t15.5 33.5v413q0 27 -13.5 35.5t-64.5 8.5v7h264q160 0 160 -124q0 -96 -93 -116zM248 501h-82q-20 -9 -20 -37v-184h114q36 0 60.5 28t24.5 83q0 60 -28.5 85t-68.5 25zM276 12q39 0 66.5 31t27.5 92
q0 67 -32.5 98t-75.5 31h-116v-213q0 -32 24 -39h106z" />
    <glyph glyph-name="uni0433" unicode="&#x433;" horiz-adv-x="600" 
d="M450 515l27 -177h-8q-32 112 -49.5 139.5t-58.5 27.5h-94q-47 0 -64.5 -10t-20.5 -35l-1 -399q1 -30 17.5 -40.5t68.5 -10.5v-10h-247v10q48 0 67 14.5t19 44.5v377q0 30 -19 44.5t-67 14.5v10h430z" />
    <glyph glyph-name="uni0434" unicode="&#x434;" horiz-adv-x="691" 
d="M644 17l32 -175h-7q-28 102 -49.5 130t-63.5 28h-434q-30 -5 -47 -35t-53 -125h-7l32 175h36q82 88 119 164.5t37 195.5v71q0 30 -19 44.5t-67 14.5v10h487v-10q-48 0 -67 -14.5t-19 -44.5v-377q0 -39 38 -52h52zM270 314q0 -93 -23 -163.5t-75 -135.5l156 1h125
q24 9 26 45l-1 398q-2 21 -14.5 30t-44.5 10h-73q-41 -1 -57 -10t-19 -29v-146z" />
    <glyph glyph-name="uni0435" unicode="&#x435;" horiz-adv-x="508" 
d="M301 -19q-119 -20 -192.5 57.5t-73.5 219.5q0 135 65 206t168 71q96 0 146.5 -55.5t54.5 -136.5l-3 -5l-334 -3q-5 -42 -5 -77q0 -114 54 -183.5t146 -50.5q60 13 96.5 91.5t32.5 187.5h16q6 -129 -36 -217.5t-135 -104.5zM134 352l254 14q17 64 -14.5 108.5t-105.5 38.5
q-109 -8 -134 -161z" />
    <glyph glyph-name="uni0436" unicode="&#x436;" horiz-adv-x="964" 
d="M864 40q21 -30 95 -30v-10h-268v10q71 0 74 15q2 7 -6 19l-156 250l-84 -76v-155q1 -32 17 -42.5t69 -10.5v-10h-247v10q48 0 67 14.5t19 44.5v150l-83 75l-156 -250q-16 -25 12 -30q16 -4 56 -4v-10h-268v10q74 0 95 30l221 291l-165 151q-23 23 -96 23v10h844v-10
q-73 0 -96 -23l-165 -151zM198 471l246 -219v194q0 30 -19 44.5t-66 14.5q-156 0 -170 -11q-9 -7 9 -23zM520 464l-1 -212l247 219q24 22 -2 28t-160 6q-47 0 -64 -8.5t-20 -32.5z" />
    <glyph glyph-name="uni0437" unicode="&#x437;" horiz-adv-x="600" 
d="M494 74q6 -107 -56 -171.5t-154 -64.5q-183 0 -235 176l45 179l10 -3q-2 -22 -5.5 -55.5t-4.5 -44.5t-2 -31t0 -29.5t3 -22.5t6 -27q15 -53 58.5 -87t107.5 -34q68 0 112.5 54.5t38.5 134.5q-17 220 -250 188l-10 15q1 0 20.5 1.5t37 3.5t43 9t44 17.5t33.5 29.5t19 44
q10 75 -23.5 117.5t-90.5 42.5q-44 0 -81 -28t-58 -74q-25 -55 10 -142l-8 -1l-49 100q4 73 56 117t129 44q183 0 183 -148q0 -48 -34.5 -82t-95.5 -46q92 -4 144 -52t57 -130z" />
    <glyph glyph-name="uni0438" unicode="&#x438;" horiz-adv-x="678" 
d="M663 505q-64 0 -85.5 -12t-21.5 -47v-377q0 -36 18.5 -47.5t87.5 -11.5v-10h-283v7q60 0 81 15t21 47v277l-285 -247v-30q0 -37 19 -49.5t87 -12.5v-7h-283v10q61 0 81.5 14t20.5 45v377q0 36 -18.5 47.5t-87.5 11.5v10h288v-7q-63 0 -85 -13.5t-22 -48.5v-322l285 247
v75q0 37 -19 49.5t-87 12.5v7h288v-10z" />
    <glyph glyph-name="uni0439" unicode="&#x439;" horiz-adv-x="678" 
d="M339 574q-46 0 -76 27.5t-31 82.5h34q0 -95 73 -95t73 95h34q-1 -55 -31 -82.5t-76 -27.5zM663 505q-64 0 -85.5 -12t-21.5 -47v-377q0 -36 18.5 -47.5t87.5 -11.5v-10h-283v7q60 0 81 15t21 47v277l-285 -247v-30q0 -37 19 -49.5t87 -12.5v-7h-283v10q61 0 81.5 14
t20.5 45v377q0 36 -18.5 47.5t-87.5 11.5v10h288v-7q-63 0 -85 -13.5t-22 -48.5v-322l285 247v75q0 37 -19 49.5t-87 12.5v7h288v-10z" />
    <glyph glyph-name="uni043A" unicode="&#x43a;" horiz-adv-x="647" 
d="M547 40q21 -30 95 -30v-10h-268v10q52 0 66 6.5t2 27.5l-156 250l-84 -76v-155q1 -32 17 -42.5t69 -10.5v-10h-247v10q48 0 67 14.5t19 44.5v377q0 30 -19 44.5t-67 14.5v10h546v-10q-73 0 -96 -23l-165 -151zM203 464l-1 -212l247 219q24 22 -2 28t-160 6
q-47 0 -64 -8.5t-20 -32.5z" />
    <glyph glyph-name="uni043B" unicode="&#x43b;" horiz-adv-x="611" 
d="M596 505q-48 0 -67 -14.5t-19 -44.5v-377q0 -30 19 -44.5t67 -14.5v-10h-247v10q52 0 68.5 10.5t17.5 40.5l-1 398q-2 21 -14.5 30t-44.5 10h-55q-40 -1 -55.5 -10t-18.5 -29v-116q0 -225 -121 -364l-60 40q78 60 114 151.5t36 233.5v41q0 30 -19 44.5t-67 14.5v10h467
v-10z" />
    <glyph glyph-name="uni043C" unicode="&#x43c;" horiz-adv-x="725" 
d="M695 502q-47 0 -63 -8.5t-16 -34.5v-403q0 -27 14 -35.5t65 -8.5v-12h-253v12q59 0 77 10.5t18 33.5v409l-175 -465h-38l-177 408v-352q0 -26 11.5 -35t50.5 -9v-12h-161v12q34 0 47 11t13 33v403q0 27 -13.5 35t-64.5 8v13h144l184 -425l159 425h178v-13z" />
    <glyph glyph-name="uni043D" unicode="&#x43d;" horiz-adv-x="576" 
d="M597 505q-47 0 -64.5 -10t-20.5 -35l-1 -399q1 -30 17.5 -40.5t68.5 -10.5v-10h-247v10q48 0 67 14.5t19 44.5v175h-255v-183q1 -30 17.5 -40.5t68.5 -10.5v-10h-247v10q48 0 67 14.5t19 44.5v377q0 30 -19 44.5t-67 14.5v10h247v-10q-47 0 -64.5 -10t-20.5 -35l-1 -204
h255v190q0 30 -19 44.5t-67 14.5v10h247v-10z" />
    <glyph glyph-name="uni043E" unicode="&#x43e;" horiz-adv-x="554" 
d="M277 -11q-109 0 -175.5 66t-66.5 203q0 131 67.5 200t174.5 69t174.5 -69t67.5 -200q0 -137 -66.5 -203t-175.5 -66zM277 0q152 0 152 258t-152 258t-152 -258t152 -258z" />
    <glyph glyph-name="uni043F" unicode="&#x43f;" horiz-adv-x="617" 
d="M597 505q-47 0 -64.5 -10t-20.5 -35l-1 -399q1 -30 17.5 -40.5t68.5 -10.5v-10h-247v10q48 0 67 14.5t19 44.5v377q0 26 -14 40t-49 18h-133q-31 -3 -43.5 -13t-14.5 -31l-1 -399q1 -30 17.5 -40.5t68.5 -10.5v-10h-247v10q48 0 67 14.5t19 44.5v377q0 30 -19 44.5
t-67 14.5v10h577v-10z" />
    <glyph glyph-name="uni0440" unicode="&#x440;" horiz-adv-x="589" 
d="M357 525q89 0 143 -64t54 -203q0 -70 -20 -124t-51.5 -84.5t-66 -45.5t-67.5 -15q-115 0 -172 108l1 -228q0 -36 15.5 -47.5t70.5 -11.5v-10h-247v10q47 0 66.5 14.5t19.5 43.5l-1 558q0 50 -15 64.5t-71 14.5v10h161v-104q55 114 180 114zM319 10q65 0 105 64.5
t40 177.5q0 244 -142 244q-156 0 -156 -253q0 -103 40 -168t113 -65z" />
    <glyph glyph-name="uni0441" unicode="&#x441;" horiz-adv-x="501" 
d="M456 268h10q0 -58 -7.5 -103t-25.5 -86t-54.5 -65t-89.5 -28q-114 -8 -183.5 67t-70.5 206q0 133 69 200.5t179 67.5q35 0 79.5 -11.5t72.5 -27.5l21 -168h-8q-19 105 -60.5 150t-104.5 45q-157 0 -157 -259q1 -69 19 -125.5t59 -91.5t99 -28q77 9 113 64t40 193z" />
    <glyph glyph-name="uni0442" unicode="&#x442;" horiz-adv-x="613" 
d="M571 515l27 -177h-8q-32 112 -49.5 139.5t-58.5 26.5l-92 -2q-41 -6 -45 -42l-1 -399q1 -30 17.5 -40.5t68.5 -10.5v-10h-247v10q48 0 67 14.5t19 44.5v377q0 48 -52 57l-86 1q-41 1 -58.5 -26.5t-49.5 -139.5h-8l27 177h529z" />
    <glyph glyph-name="uni0443" unicode="&#x443;" horiz-adv-x="607" 
d="M597 515v-10q-48 0 -66 -3t-26 -15l-160 -473l-60 -214h-150v5q58 0 84.5 12t36.5 37l5 14v1l51 146l-210 473q-8 12 -26 14.5t-66 2.5v10h587zM196 482l155 -406l123 399h-1q8 23 -5 29q-16 7 -131 7q-124 0 -137 -9q-8 -5 -4 -20z" />
    <glyph glyph-name="uni0444" unicode="&#x444;" horiz-adv-x="841" 
d="M609 525q89 0 143 -64t54 -203q0 -70 -20 -124t-51.5 -84.5t-66 -45.5t-67.5 -15q-86 0 -141 63v-252h-161v10q47 0 66.5 14t19.5 43v189q-56 -67 -145 -67q-33 0 -67.5 15t-66 45.5t-51.5 84.5t-20 124q0 139 54 203t143 64q97 0 153 -71v160q0 19 -11 19q-17 0 -70 -38
l-7 10l141 110h21v-257q57 67 150 67zM270 10q73 0 115 69v354q-39 63 -118 63q-142 0 -142 -244q0 -113 40 -177.5t105 -64.5zM571 10q65 0 105 64.5t40 177.5q0 244 -142 244q-76 0 -115 -58v-41l1 -291v-34q41 -62 111 -62z" />
    <glyph glyph-name="uni0445" unicode="&#x445;" horiz-adv-x="637" 
d="M540 26q16 -22 92 -22v-4h-627v10q47 0 66 4.5t30 17.5l176 218l-10 13l-169 226q-16 22 -92 22v4h567v-10h-14q-38 0 -53 -2.5t-24 -13.5l-149 -189l26 -37zM205 483l117 -167l117 159q15 20 11 25q-8 11 -121 11q-118 0 -127 -13q-3 -6 3 -15zM279 4q153 0 160 17
q1 5 -3 11l-149 203l-148 -195q-17 -22 4 -29q23 -7 136 -7z" />
    <glyph glyph-name="uni0446" unicode="&#x446;" horiz-adv-x="692" 
d="M650 10l27 -177h-8q-32 112 -49.5 139.5t-58.5 27.5h-541v10q48 0 67 14.5t19 44.5v377q0 30 -19 44.5t-67 14.5v10h247v-10q-52 0 -68.5 -10.5t-17.5 -40.5l1 -399q2 -21 14.5 -31t43.5 -13h133q35 4 49 18t14 40v377q0 30 -19 44.5t-67 14.5v10h247v-10
q-52 0 -68.5 -10.5t-17.5 -40.5l1 -399q3 -25 20.5 -35t64.5 -10h53z" />
    <glyph glyph-name="uni0447" unicode="&#x447;" horiz-adv-x="600" 
d="M481 74q0 -36 15.5 -47.5t70.5 -11.5v-15h-161v239q-17 -46 -57.5 -81t-98.5 -35q-66 0 -107.5 42.5t-41.5 126.5v149q0 36 -15.5 47.5t-70.5 11.5v15h160v-183q0 -178 113 -178q46 0 79 39.5t39 91.5v156q0 36 -15.5 47.5t-70.5 11.5v15h161v-441z" />
    <glyph glyph-name="uni0448" unicode="&#x448;" horiz-adv-x="867" 
d="M847 505q-52 0 -68.5 -10.5t-17.5 -40.5l1 -399q3 -25 20.5 -35t64.5 -10v-10h-827v10q48 0 67 14.5t19 44.5v377q0 30 -19 44.5t-67 14.5v10h247v-10q-52 0 -68.5 -10.5t-17.5 -40.5l1 -399q2 -21 14.5 -31t43.5 -13h93q35 4 49 18t14 40v377q0 30 -19 44.5t-67 14.5v10
h247v-10q-52 0 -68.5 -10.5t-17.5 -40.5l1 -399q2 -21 14.5 -31t43.5 -13h93q35 4 49 18t14 40v377q0 30 -19 44.5t-67 14.5v10h247v-10z" />
    <glyph glyph-name="uni0449" unicode="&#x449;" horiz-adv-x="892" 
d="M850 10l27 -177h-8q-32 112 -49.5 139.5t-58.5 27.5h-741v10q48 0 67 14.5t19 44.5v377q0 30 -19 44.5t-67 14.5v10h247v-10q-52 0 -68.5 -10.5t-17.5 -40.5l1 -399q2 -21 14.5 -31t43.5 -13h93q35 4 49 18t14 40v377q0 30 -19 44.5t-67 14.5v10h247v-10
q-52 0 -68.5 -10.5t-17.5 -40.5l1 -399q2 -21 14.5 -31t43.5 -13h93q35 4 49 18t14 40v377q0 30 -19 44.5t-67 14.5v10h247v-10q-52 0 -68.5 -10.5t-17.5 -40.5l1 -399q3 -25 20.5 -35t64.5 -10h3z" />
    <glyph glyph-name="uni044A" unicode="&#x44a;" horiz-adv-x="676" 
d="M433 312q89 0 148.5 -38.5t59.5 -121.5q0 -79 -53.5 -115.5t-138.5 -36.5h-321v10q61 0 81.5 14t20.5 45v377q0 31 -12.5 43t-55.5 15h-36q-41 0 -58.5 -27.5t-49.5 -138.5h-8l27 177h350v-10q-47 0 -64.5 -14.5t-17.5 -44.5v-134h128zM438 13q45 0 80.5 35.5t35.5 103.5
q0 74 -41.5 109t-90.5 35h-117v-227q0 -27 9 -39.5t39 -16.5h85z" />
    <glyph glyph-name="uni044B" unicode="&#x44b;" horiz-adv-x="600" 
d="M329 312q89 0 148.5 -38.5t59.5 -121.5q0 -79 -53.5 -115.5t-138.5 -36.5h-321v10q61 0 81.5 14t20.5 45v377q0 36 -18.5 47.5t-87.5 11.5v10h287v-10q-66 0 -86 -13.5t-20 -45.5v-134h128zM334 13q45 0 80.5 35.5t35.5 103.5q0 74 -41.5 109t-90.5 35h-117v-227
q0 -27 9 -39.5t39 -16.5h85z" />
    <glyph glyph-name="uni044C" unicode="&#x44c;" horiz-adv-x="600" 
d="M329 312q89 0 148.5 -38.5t59.5 -121.5q0 -79 -53.5 -115.5t-138.5 -36.5h-321v10q61 0 81.5 14t20.5 45v377q0 36 -18.5 47.5t-87.5 11.5v10h451l27 -177h-8q-32 111 -49.5 138.5t-58.5 27.5h-122q-34 -4 -46.5 -18t-12.5 -40v-134h128zM334 13q45 0 80.5 35.5
t35.5 103.5q0 74 -41.5 109t-90.5 35h-117v-227q0 -27 9 -39.5t39 -16.5h85z" />
    <glyph glyph-name="uni044D" unicode="&#x44d;" horiz-adv-x="501" 
d="M218 527q110 0 179 -67.5t69 -200.5q-1 -131 -70.5 -206t-183.5 -67q-53 4 -89.5 28t-54.5 65t-25.5 86t-7.5 103h10q4 -138 40 -193t113 -64q58 -7 99 28t59 91.5t19 125.5v28h-245l-8 12h252q-11 219 -156 219q-63 0 -104.5 -45t-60.5 -150h-8l21 168q28 16 72.5 27.5
t79.5 11.5z" />
    <glyph glyph-name="uni044E" unicode="&#x44e;" horiz-adv-x="806" 
d="M529 522q103 0 172.5 -70t69.5 -195q0 -131 -68.5 -198t-173.5 -67t-174 67t-69 198v1h-113v-206q0 -27 13.5 -35.5t65.5 -8.5v-8h-230v8q45 0 60.5 10.5t15.5 33.5v412q0 27 -14 35.5t-65 8.5v7h234v-7q-48 0 -64 -9t-16 -35v-194h113q4 119 73.5 185.5t169.5 66.5z
M529 3q43 0 76.5 21.5t53.5 58.5t30 81.5t10 92.5q0 63 -16.5 118.5t-56.5 95.5t-97 40t-97 -40t-57 -96t-17 -118q0 -66 17 -121t57 -94t97 -39z" />
    <glyph glyph-name="uni044F" unicode="&#x44f;" horiz-adv-x="600" 
d="M576 508q-48 0 -63 -14.5t-15 -43.5v-380q0 -58 75 -58v-12h-232v12q48 0 63 14.5t15 43.5v163h-99l-142 -195q-10 -16 -2.5 -21t44.5 -5v-12h-225v12q59 0 73 14l172 209q-68 8 -109.5 42t-41.5 97q0 40 18 68.5t49 44t65.5 22t73.5 6.5h281v-7zM291 255h128v195
q0 23 -16 40h-97q-123 0 -123 -116q0 -62 32 -90.5t76 -28.5z" />
    <glyph glyph-name="uni0450" unicode="&#x450;" horiz-adv-x="508" 
d="M378 601l5 8q-84 64 -150 124q-51 47 -68 19q-21 -28 41 -59q73 -34 172 -92zM301 -19q-119 -20 -192.5 57.5t-73.5 219.5q0 135 65 206t168 71q96 0 146.5 -55.5t54.5 -136.5l-3 -5l-334 -3q-5 -42 -5 -77q0 -114 54 -183.5t146 -50.5q60 13 96.5 91.5t32.5 187.5h16
q6 -129 -36 -217.5t-135 -104.5zM134 352l254 14q17 64 -14.5 108.5t-105.5 38.5q-109 -8 -134 -161z" />
    <glyph glyph-name="uni0451" unicode="&#x451;" horiz-adv-x="508" 
d="M133 634q-23 0 -39.5 15t-16.5 36t16.5 36t39.5 15t39.5 -15t16.5 -36t-16.5 -36t-39.5 -15zM393 634q-23 0 -39.5 15t-16.5 36t16.5 36t39.5 15t39.5 -15t16.5 -36t-16.5 -36t-39.5 -15zM301 -19q-119 -20 -192.5 57.5t-73.5 219.5q0 135 65 206t168 71
q96 0 146.5 -55.5t54.5 -136.5l-3 -5l-334 -3q-5 -42 -5 -77q0 -114 54 -183.5t146 -50.5q60 13 96.5 91.5t32.5 187.5h16q6 -129 -36 -217.5t-135 -104.5zM134 352l254 14q17 64 -14.5 108.5t-105.5 38.5q-109 -8 -134 -161z" />
    <glyph glyph-name="uni0453" unicode="&#x453;" horiz-adv-x="600" 
d="M367 673q-73 -34 -172 -92l-5 8q84 64 150 124q51 47 68 19q21 -28 -41 -59zM450 515l27 -177h-8q-32 112 -49.5 139.5t-58.5 27.5h-94q-47 0 -64.5 -10t-20.5 -35l-1 -399q1 -30 17.5 -40.5t68.5 -10.5v-10h-247v10q48 0 67 14.5t19 44.5v377q0 30 -19 44.5t-67 14.5v10
h430z" />
    <glyph glyph-name="uni0455" unicode="&#x455;" horiz-adv-x="486" 
d="M451 141q0 -75 -59.5 -115t-143.5 -40q-85 0 -213 72l33 178l11 -3q-24 -115 19 -174.5t150 -58.5q52 1 88.5 26t36.5 69q0 45 -27.5 80t-71.5 51l-106 39q-60 22 -86.5 51t-26.5 75q0 63 51.5 100t121.5 37q74 0 175 -36l-28 -149l-8 3q31 169 -137 169
q-48 0 -77.5 -22.5t-29.5 -58.5t22.5 -57t72.5 -41l116 -46q64 -26 90.5 -60.5t26.5 -88.5z" />
    <glyph glyph-name="uni0456" unicode="&#x456;" horiz-adv-x="284" 
d="M153 614q-23 0 -39.5 15t-16.5 36t16.5 36t39.5 15t39.5 -15t16.5 -36t-16.5 -36t-39.5 -15zM183 69q0 -31 17.5 -45t68.5 -14v-10h-247v10q51 0 68.5 14t17.5 45v356q0 26 -12 26q-17 0 -73 -47l-8 10l147 116h22z" />
    <glyph glyph-name="uni0457" unicode="&#x457;" horiz-adv-x="284" 
d="M78 680q0 -21 -16.5 -36t-39.5 -15t-39.5 15t-16.5 36t16.5 36t39.5 15t39.5 -15t16.5 -36zM282 731q23 0 39.5 -15t16.5 -36t-16.5 -36t-39.5 -15t-39.5 15t-16.5 36t16.5 36t39.5 15zM183 63q1 -32 17 -42.5t69 -10.5v-10h-247v10q48 0 67 14.5t19 44.5v346
q-1 16 -6.5 23t-25.5 0.5t-53 -34.5l-8 10l147 116h22z" />
    <glyph glyph-name="uni0458" unicode="&#x458;" horiz-adv-x="296" 
d="M185 716q23 0 39.5 -15t16.5 -36t-16.5 -36t-39.5 -15t-39.5 15t-16.5 36t16.5 36t39.5 15zM225 520l-2 -3l3 3l-1 -497q0 -223 -125 -223q-40 0 -75 20t-54 44l17 103h6q-2 -91 43.5 -130.5t102.5 -16.5q41 17 44.5 73.5t-34.5 102.5v421q-1 25 -29 13q-25 -10 -76 -48
l-7 8l166 130h21z" />
    <glyph glyph-name="uni045C" unicode="&#x45c;" horiz-adv-x="647" 
d="M391 673q-73 -34 -172 -92l-5 8q84 64 150 124q51 47 68 19q21 -28 -41 -59zM547 40q21 -30 95 -30v-10h-268v10q52 0 66 6.5t2 27.5l-156 250l-84 -76v-155q1 -32 17 -42.5t69 -10.5v-10h-247v10q48 0 67 14.5t19 44.5v377q0 30 -19 44.5t-67 14.5v10h546v-10
q-73 0 -96 -23l-165 -151zM203 464l-1 -212l247 219q24 22 -2 28t-160 6q-47 0 -64 -8.5t-20 -32.5z" />
    <glyph glyph-name="uni045D" unicode="&#x45d;" horiz-adv-x="678" 
d="M282 673q-62 31 -41 59q17 28 68 -19q66 -60 150 -124l-5 -8q-99 58 -172 92zM663 505q-64 0 -85.5 -12t-21.5 -47v-377q0 -36 18.5 -47.5t87.5 -11.5v-10h-283v7q60 0 81 15t21 47v277l-285 -247v-30q0 -37 19 -49.5t87 -12.5v-7h-283v10q61 0 81.5 14t20.5 45v377
q0 36 -18.5 47.5t-87.5 11.5v10h288v-7q-63 0 -85 -13.5t-22 -48.5v-322l285 247v75q0 37 -19 49.5t-87 12.5v7h288v-10z" />
    <glyph glyph-name="uni045E" unicode="&#x45e;" horiz-adv-x="607" 
d="M317 574q-46 0 -76 27.5t-31 82.5h34q0 -95 73 -95t73 95h34q-1 -55 -31 -82.5t-76 -27.5zM597 515v-10q-48 0 -66 -3t-26 -15l-160 -473l-60 -214h-150v5q58 0 84.5 12t36.5 37l5 14v1l51 146l-210 473q-8 12 -26 14.5t-66 2.5v10h587zM196 482l155 -406l123 399h-1
q8 23 -5 29q-16 7 -131 7q-124 0 -137 -9q-8 -5 -4 -20z" />
    <glyph glyph-name="uni0490" unicode="&#x490;" horiz-adv-x="600" 
d="M249 685q-36 -1 -50.5 -10t-16.5 -30l-1 -583q1 -31 17.5 -41.5t68.5 -10.5v-10h-252v10q48 0 67 14.5t19 44.5v562q0 30 -19 44.5t-67 14.5v10h406q41 0 62.5 32.5t62.5 140.5q2 5 3 8h8l-37 -197z" />
    <glyph glyph-name="uni0498" unicode="&#x498;" horiz-adv-x="642" 
d="M591 227q7 -113 -65 -180t-199 -67l-8 -26q47 7 76 -13t32 -53q4 -42 -22 -65.5t-65 -23.5q-34 0 -57.5 18.5t-32.5 44.5l23 14q6 -33 24.5 -49.5t42.5 -16.5q62 0 54 69q-9 74 -98 62l8 40q-95 6 -159 60.5t-95 140.5l82 169l6 -2q-28 -91 -32.5 -127t5.5 -77
q15 -58 67.5 -100t128.5 -48l1 3h25l-1 -4q92 1 138 59t40 145q-8 104 -73 159t-205 37l-12 16q1 0 23 1.5t41.5 3.5t47.5 9.5t49 18.5t37.5 30.5t20.5 45.5q11 78 -26 122.5t-100 44.5q-49 0 -90 -29.5t-64 -77.5q-29 -62 7 -147l-5 -2l-55 105q4 76 62.5 121.5t143.5 45.5
q203 0 203 -154q0 -50 -38.5 -85t-105.5 -48q101 -4 158 -54t62 -136z" />
    <glyph glyph-name="uni04BB" unicode="&#x4bb;" horiz-adv-x="618" 
d="M517 69q0 -36 15.5 -47.5t70.5 -11.5v-10h-243v10q53 0 67.5 13.5t14.5 45.5v258q0 91 -19.5 126.5t-82.5 35.5q-53 0 -91 -36.5t-47 -86.5v-299q1 -32 25 -44.5t81 -12.5v-10h-287v10q50 0 78 15.5t28 43.5v530q-1 29 -17 28q-22 -1 -88 -50l-7 8l166 130h21l-1 -3l2 3
v-312q17 47 66 86.5t113 39.5q135 0 135 -139v-321z" />
    <glyph glyph-name="uni04C0" unicode="&#x4c0;" horiz-adv-x="363" 
d="M221 69q0 -36 18.5 -47.5t87.5 -11.5v-10h-288v10q61 0 81.5 14t20.5 45v562q0 36 -18.5 47.5t-87.5 11.5v10h293v-10q-64 0 -85.5 -12t-21.5 -47v-562z" />
    <glyph glyph-name="uni04C1" unicode="&#x4c1;" horiz-adv-x="1157" 
d="M579 759q-46 0 -76 27.5t-31 82.5h34q0 -95 73 -95t73 95h34q-1 -55 -31 -82.5t-76 -27.5zM1053 39q23 -29 99 -29v-10h-288v10q75 0 75 19q0 6 -7 15l-246 348l-68 -56v-272q1 -32 17 -43t69 -11v-10h-252v10q48 0 67 14.5t19 44.5v267l-67 56l-246 -348q-18 -25 17 -31
q18 -3 51 -3v-10h-288v10q76 0 99 29l320 393l-268 224q-39 33 -107 33v11h1059v-11q-68 0 -107 -33l-268 -224zM191 646l347 -285v269l1 1h-1q0 30 -19 44.5t-67 14.5v1h-159q-115 -3 -115 -27q0 -8 13 -18zM619 631l-1 -270l348 285q38 31 -39 41q-26 3 -63 4h-159v-1
q-48 0 -67 -14.5t-19 -44.5z" />
    <glyph glyph-name="uni04C2" unicode="&#x4c2;" horiz-adv-x="964" 
d="M482 574q-46 0 -76 27.5t-31 82.5h34q0 -95 73 -95t73 95h34q-1 -55 -31 -82.5t-76 -27.5zM864 40q21 -30 95 -30v-10h-268v10q71 0 74 15q2 7 -6 19l-156 250l-84 -76v-155q1 -32 17 -42.5t69 -10.5v-10h-247v10q48 0 67 14.5t19 44.5v150l-83 75l-156 -250
q-16 -25 12 -30q16 -4 56 -4v-10h-268v10q74 0 95 30l221 291l-165 151q-23 23 -96 23v10h844v-10q-73 0 -96 -23l-165 -151zM520 464l-1 -212l247 219q24 22 -2 28t-160 6q-47 0 -64 -8.5t-20 -32.5zM198 471l246 -219v194q0 30 -19 44.5t-66 14.5q-156 0 -170 -11
q-9 -7 9 -23z" />
    <glyph glyph-name="uni04D0" unicode="&#x4d0;" horiz-adv-x="829" 
d="M413 759q-46 0 -76 27.5t-31 82.5h34q0 -95 73 -95t73 95h34q-1 -55 -31 -82.5t-76 -27.5zM694 32q11 -14 37 -18t83 -4v-10h-799v12q64 0 89.5 4.5t35.5 22.5l247 619q2 11 -5.5 17.5t-31.5 10.5t-63 5.5t-106 1.5v7h464v-7q-69 0 -108.5 -1.5t-63.5 -6t-30.5 -11.5
t-3.5 -19zM503 289l-118 305l-114 -305h232zM361 6q82 0 120 1t70 5t40 12t5 22l-88 228h-243l-84 -227q-8 -25 10 -32q22 -9 170 -9z" />
    <glyph glyph-name="uni04D1" unicode="&#x4d1;" horiz-adv-x="523" 
d="M242 584q-46 0 -76 27.5t-31 82.5h34q0 -95 73 -95t73 95h34q-1 -55 -31 -82.5t-76 -27.5zM499 75l9 -10l-113 -74q-14 0 -25.5 17t-11.5 52v52q-26 -53 -72.5 -90t-108.5 -37q-65 0 -103.5 34.5t-38.5 108.5q0 102 86 141l-65 163q93 95 197 95q180 0 180 -154v-311
q1 -13 10 -13q6 0 56 26zM120 304q5 -20 10 -32q40 16 82 13l146 -10v88q0 73 -24.5 112t-87.5 39q-71 0 -109.5 -64t-16.5 -146zM207 20q61 0 106 48.5t45 106.5v73l-102 6q-34 2 -63 -7.5t-51.5 -40.5t-22.5 -82q0 -49 24.5 -76.5t63.5 -27.5z" />
    <glyph glyph-name="uni04D2" unicode="&#x4d2;" horiz-adv-x="829" 
d="M283 799q-23 0 -39.5 15t-16.5 36t16.5 36t39.5 15t39.5 -15t16.5 -36t-16.5 -36t-39.5 -15zM543 799q-23 0 -39.5 15t-16.5 36t16.5 36t39.5 15t39.5 -15t16.5 -36t-16.5 -36t-39.5 -15zM694 32q11 -14 37 -18t83 -4v-10h-799v12q64 0 89.5 4.5t35.5 22.5l247 619
q2 11 -5.5 17.5t-31.5 10.5t-63 5.5t-106 1.5v7h464v-7q-69 0 -108.5 -1.5t-63.5 -6t-30.5 -11.5t-3.5 -19zM503 289l-118 305l-114 -305h232zM361 6q82 0 120 1t70 5t40 12t5 22l-88 228h-243l-84 -227q-8 -25 10 -32q22 -9 170 -9z" />
    <glyph glyph-name="uni04D3" unicode="&#x4d3;" horiz-adv-x="523" 
d="M112 624q-23 0 -39.5 15t-16.5 36t16.5 36t39.5 15t39.5 -15t16.5 -36t-16.5 -36t-39.5 -15zM372 624q-23 0 -39.5 15t-16.5 36t16.5 36t39.5 15t39.5 -15t16.5 -36t-16.5 -36t-39.5 -15zM499 75l9 -10l-113 -74q-14 0 -25.5 17t-11.5 52v52q-26 -53 -72.5 -90
t-108.5 -37q-65 0 -103.5 34.5t-38.5 108.5q0 102 86 141l-65 163q93 95 197 95q180 0 180 -154v-311q1 -13 10 -13q6 0 56 26zM120 304q5 -20 10 -32q40 16 82 13l146 -10v88q0 73 -24.5 112t-87.5 39q-71 0 -109.5 -64t-16.5 -146zM207 20q61 0 106 48.5t45 106.5v73
l-102 6q-34 2 -63 -7.5t-51.5 -40.5t-22.5 -82q0 -49 24.5 -76.5t63.5 -27.5z" />
    <glyph glyph-name="uni04D4" unicode="&#x4d4;" horiz-adv-x="1032" 
d="M969 188h8l-37 -188h-535v10q48 0 67 14.5t19 44.5v282l-167 -3l-160 -309q-9 -20 9 -25q16 -4 95 -4v-10h-283v10q60 0 77.5 5.5t33.5 31.5l336 573q26 49 11 58t-116 10v12h603l37 -197h-8q-42 110 -65 145t-63 36l-194 1q-35 -1 -49 -10t-16 -30v-279h174q20 0 31.5 4
t21 23.5t9.5 58.5h7v-198h-7q0 58 -16.5 79t-45.5 21h-174l-1 -292q2 -30 15 -40l255 5q42 1 65.5 30t62.5 131zM336 371l155 -4v264q0 16 -4 25q-8 -11 -10 -14z" />
    <glyph glyph-name="uni04D5" unicode="&#x4d5;" horiz-adv-x="831" 
d="M795 303q12 -282 -165 -312q-130 -23 -207 64v-6q-39 41 -52 70q-16 -57 -64.5 -98t-123.5 -41q-68 0 -108 38.5t-40 114.5t59 116q-56 170 7 239q48 52 167 48q112 -3 143 -90q61 82 180 82q96 0 146.5 -56.5t54.5 -138.5l-5 -8h-332q-5 -42 -5 -67q0 -114 53.5 -182.5
t146.5 -49.5q70 15 106.5 90.5t32.5 186.5h6zM591 512q-109 -8 -134 -173h254q16 79 -14.5 129t-105.5 44zM110 475q-60 -59 -7 -220q48 28 109 25l146 -10v103q0 60 -33 94t-87 39q-88 7 -128 -31zM358 170v1v72l-102 6q-54 4 -95.5 -23t-41.5 -87q0 -130 88 -130
q40 0 71 18.5t47.5 45.5t24.5 52.5t8 44.5z" />
    <glyph glyph-name="uni04D6" unicode="&#x4d6;" 
d="M284 759q-46 0 -76 27.5t-31 82.5h34q0 -95 73 -95t73 95h34q-1 -55 -31 -82.5t-76 -27.5zM579 188h8l-37 -188h-535v10q48 0 67 14.5t19 44.5v562q0 30 -19 44.5t-67 14.5v10h525l37 -197h-8q-42 110 -65 145t-63 36l-194 1q-35 -1 -49 -10t-16 -30v-279h174
q20 0 31.5 4t21 23.5t9.5 58.5h7v-198h-7q0 58 -16.5 79t-45.5 21h-174l-1 -292q2 -30 15 -40l255 5q42 1 65.5 30t62.5 131z" />
    <glyph glyph-name="uni04D7" unicode="&#x4d7;" horiz-adv-x="508" 
d="M370 704q-1 -55 -31 -82.5t-76 -27.5t-76 27.5t-31 82.5h34q0 -95 73 -95t73 95h34zM301 -19q-119 -20 -192.5 57.5t-73.5 219.5q0 135 65 206t168 71q96 0 146.5 -55.5t54.5 -136.5l-3 -5l-334 -3q-5 -42 -5 -77q0 -114 54 -183.5t146 -50.5q60 13 96.5 91.5t32.5 187.5
h16q6 -129 -36 -217.5t-135 -104.5zM134 352l254 14q17 64 -14.5 108.5t-105.5 38.5q-109 -8 -134 -161z" />
    <glyph glyph-name="uni04DC" unicode="&#x4dc;" horiz-adv-x="1157" 
d="M449 799q-23 0 -39.5 15t-16.5 36t16.5 36t39.5 15t39.5 -15t16.5 -36t-16.5 -36t-39.5 -15zM709 799q-23 0 -39.5 15t-16.5 36t16.5 36t39.5 15t39.5 -15t16.5 -36t-16.5 -36t-39.5 -15zM1053 39q23 -29 99 -29v-10h-288v10q75 0 75 19q0 6 -7 15l-246 348l-68 -56v-272
q1 -32 17 -43t69 -11v-10h-252v10q48 0 67 14.5t19 44.5v267l-67 56l-246 -348q-18 -25 17 -31q18 -3 51 -3v-10h-288v10q76 0 99 29l320 393l-268 224q-39 33 -107 33v11h1059v-11q-68 0 -107 -33l-268 -224zM191 646l347 -285v269l1 1h-1q0 30 -19 44.5t-67 14.5v1h-159
q-115 -3 -115 -27q0 -8 13 -18zM619 631l-1 -270l348 285q38 31 -39 41q-26 3 -63 4h-159v-1q-48 0 -67 -14.5t-19 -44.5z" />
    <glyph glyph-name="uni04DD" unicode="&#x4dd;" horiz-adv-x="964" 
d="M352 614q-23 0 -39.5 15t-16.5 36t16.5 36t39.5 15t39.5 -15t16.5 -36t-16.5 -36t-39.5 -15zM612 614q-23 0 -39.5 15t-16.5 36t16.5 36t39.5 15t39.5 -15t16.5 -36t-16.5 -36t-39.5 -15zM864 40q21 -30 95 -30v-10h-268v10q71 0 74 15q2 7 -6 19l-156 250l-84 -76v-155
q1 -32 17 -42.5t69 -10.5v-10h-247v10q48 0 67 14.5t19 44.5v150l-83 75l-156 -250q-16 -25 12 -30q16 -4 56 -4v-10h-268v10q74 0 95 30l221 291l-165 151q-23 23 -96 23v10h844v-10q-73 0 -96 -23l-165 -151zM198 471l246 -219v194q0 30 -19 44.5t-66 14.5
q-156 0 -170 -11q-9 -7 9 -23zM520 464l-1 -212l247 219q24 22 -2 28t-160 6q-47 0 -64 -8.5t-20 -32.5z" />
    <glyph glyph-name="uni04DE" unicode="&#x4de;" horiz-adv-x="642" 
d="M191 799q-23 0 -39.5 15t-16.5 36t16.5 36t39.5 15t39.5 -15t16.5 -36t-16.5 -36t-39.5 -15zM451 799q-23 0 -39.5 15t-16.5 36t16.5 36t39.5 15t39.5 -15t16.5 -36t-16.5 -36t-39.5 -15zM591 227q7 -114 -65 -180.5t-200 -66.5q-104 0 -174 55.5t-102 146.5l82 169l6 -2
q-28 -91 -32.5 -127t5.5 -77q16 -62 74.5 -105.5t142.5 -43.5q94 0 141 58t41 146q-8 104 -73 159t-205 37l-12 16q1 0 23 1.5t41.5 3.5t47.5 9.5t49 18.5t37.5 30.5t20.5 45.5q11 78 -26 122.5t-100 44.5q-49 0 -90 -29.5t-64 -77.5q-29 -62 7 -147l-5 -2l-55 105
q4 76 62.5 121.5t143.5 45.5q203 0 203 -154q0 -50 -38.5 -85t-105.5 -48q101 -4 158 -54t62 -136z" />
    <glyph glyph-name="uni04E2" unicode="&#x4e2;" horiz-adv-x="783" 
d="M558 814v-20h-349v20h349zM768 690q-64 0 -85.5 -12t-21.5 -47v-562q0 -36 18.5 -47.5t87.5 -11.5v-10h-288v7q60 0 81 15t21 47v452l-380 -404v-48q0 -37 19 -49.5t87 -12.5v-7h-288v10q61 0 81.5 14t20.5 45v562q0 36 -18.5 47.5t-87.5 11.5v10h293v-7q-63 0 -85 -13.5
t-22 -48.5v-489l380 404v85q0 37 -19 49.5t-87 12.5v7h293v-10z" />
    <glyph glyph-name="uni04E3" unicode="&#x4e3;" horiz-adv-x="678" 
d="M508 629v-20h-349v20h349zM663 505q-64 0 -85.5 -12t-21.5 -47v-377q0 -36 18.5 -47.5t87.5 -11.5v-10h-283v7q60 0 81 15t21 47v277l-285 -247v-30q0 -37 19 -49.5t87 -12.5v-7h-283v10q61 0 81.5 14t20.5 45v377q0 36 -18.5 47.5t-87.5 11.5v10h288v-7q-63 0 -85 -13.5
t-22 -48.5v-322l285 247v75q0 37 -19 49.5t-87 12.5v7h288v-10z" />
    <glyph glyph-name="uni04E4" unicode="&#x4e4;" horiz-adv-x="783" 
d="M259 799q-23 0 -39.5 15t-16.5 36t16.5 36t39.5 15t39.5 -15t16.5 -36t-16.5 -36t-39.5 -15zM519 799q-23 0 -39.5 15t-16.5 36t16.5 36t39.5 15t39.5 -15t16.5 -36t-16.5 -36t-39.5 -15zM768 690q-64 0 -85.5 -12t-21.5 -47v-562q0 -36 18.5 -47.5t87.5 -11.5v-10h-288
v7q60 0 81 15t21 47v452l-380 -404v-48q0 -37 19 -49.5t87 -12.5v-7h-288v10q61 0 81.5 14t20.5 45v562q0 36 -18.5 47.5t-87.5 11.5v10h293v-7q-63 0 -85 -13.5t-22 -48.5v-489l380 404v85q0 37 -19 49.5t-87 12.5v7h293v-10z" />
    <glyph glyph-name="uni04E5" unicode="&#x4e5;" horiz-adv-x="678" 
d="M209 614q-23 0 -39.5 15t-16.5 36t16.5 36t39.5 15t39.5 -15t16.5 -36t-16.5 -36t-39.5 -15zM469 614q-23 0 -39.5 15t-16.5 36t16.5 36t39.5 15t39.5 -15t16.5 -36t-16.5 -36t-39.5 -15zM663 505q-64 0 -85.5 -12t-21.5 -47v-377q0 -36 18.5 -47.5t87.5 -11.5v-10h-283
v7q60 0 81 15t21 47v277l-285 -247v-30q0 -37 19 -49.5t87 -12.5v-7h-283v10q61 0 81.5 14t20.5 45v377q0 36 -18.5 47.5t-87.5 11.5v10h288v-7q-63 0 -85 -13.5t-22 -48.5v-322l285 247v75q0 37 -19 49.5t-87 12.5v7h288v-10z" />
    <glyph glyph-name="uni04E6" unicode="&#x4e6;" horiz-adv-x="750" 
d="M245 809q-23 0 -39.5 15t-16.5 36t16.5 36t39.5 15t39.5 -15t16.5 -36t-16.5 -36t-39.5 -15zM505 809q-23 0 -39.5 15t-16.5 36t16.5 36t39.5 15t39.5 -15t16.5 -36t-16.5 -36t-39.5 -15zM375 -18q-69 0 -128 22t-106 65t-74 114.5t-27 164.5q0 172 96.5 269t238.5 97
t238.5 -97t96.5 -269q0 -93 -27 -164.5t-74 -114.5t-106 -65t-128 -22zM375 -2q59 0 105.5 30t74 81t41.5 112t14 127q0 63 -14 123t-41 112t-73.5 83.5t-106.5 31.5q-59 0 -106 -31.5t-74 -83.5t-41 -112t-14 -123q0 -91 23 -167.5t78 -129.5t134 -53z" />
    <glyph glyph-name="uni04E7" unicode="&#x4e7;" horiz-adv-x="554" 
d="M147 624q-23 0 -39.5 15t-16.5 36t16.5 36t39.5 15t39.5 -15t16.5 -36t-16.5 -36t-39.5 -15zM407 624q-23 0 -39.5 15t-16.5 36t16.5 36t39.5 15t39.5 -15t16.5 -36t-16.5 -36t-39.5 -15zM277 -11q-109 0 -175.5 66t-66.5 203q0 131 67.5 200t174.5 69t174.5 -69
t67.5 -200q0 -137 -66.5 -203t-175.5 -66zM277 0q152 0 152 258t-152 258t-152 -258t152 -258z" />
    <glyph glyph-name="uni04EC" unicode="&#x4ec;" horiz-adv-x="738" 
d="M201 799q-23 0 -39.5 15t-16.5 36t16.5 36t39.5 15t39.5 -15t16.5 -36t-16.5 -36t-39.5 -15zM461 799q-23 0 -39.5 15t-16.5 36t16.5 36t39.5 15t39.5 -15t16.5 -36t-16.5 -36t-39.5 -15zM330 713q76 0 140.5 -21t116.5 -63.5t81.5 -114t29.5 -165.5t-29.5 -165.5
t-82 -114t-118.5 -63.5t-144 -21q-128 0 -236 56l-48 222h12q41 -128 66 -168q44 -71 134 -86q32 -5 72 -5q118 0 195.5 101.5t77.5 243.5v5h-215q-29 0 -45.5 -21t-16.5 -79h-7v198h7q0 -39 9.5 -58.5t21 -23.5t31.5 -4h215q-5 141 -74.5 237t-189.5 96q-69 0 -114 -14
t-74.5 -50t-46.5 -79t-36 -121h-12l38 222q102 56 242 56z" />
    <glyph glyph-name="uni04ED" unicode="&#x4ed;" horiz-adv-x="501" 
d="M120 614q-23 0 -39.5 15t-16.5 36t16.5 36t39.5 15t39.5 -15t16.5 -36t-16.5 -36t-39.5 -15zM380 614q-23 0 -39.5 15t-16.5 36t16.5 36t39.5 15t39.5 -15t16.5 -36t-16.5 -36t-39.5 -15zM218 527q110 0 179 -67.5t69 -200.5q-1 -131 -70.5 -206t-183.5 -67
q-53 4 -89.5 28t-54.5 65t-25.5 86t-7.5 103h10q4 -138 40 -193t113 -64q58 -7 99 28t59 91.5t19 125.5v28h-245l-8 12h252q-11 219 -156 219q-63 0 -104.5 -45t-60.5 -150h-8l21 168q28 16 72.5 27.5t79.5 11.5z" />
    <glyph glyph-name="uni04EE" unicode="&#x4ee;" horiz-adv-x="677" 
d="M508 814v-20h-349v20h349zM662 700v-10q-28 0 -40 -0.5t-26 -2.5t-20 -6.5t-9 -13.5l-190 -477l-36 -121q-12 -38 12.5 -51t99.5 -13v-5h-283v5q62 0 87.5 13.5t37.5 42.5l47 125l-231 481h-1q-6 16 -25 19.5t-70 3.5v10h647zM378 696q-99 0 -132 -4.5t-34 -19.5
l181 -403l147 399q2 10 -4 15t-26 8t-48.5 4t-83.5 1z" />
    <glyph glyph-name="uni04EF" unicode="&#x4ef;" horiz-adv-x="607" 
d="M486 629v-20h-349v20h349zM597 515v-10q-48 0 -66 -3t-26 -15l-160 -473l-60 -214h-150v5q58 0 84.5 12t36.5 37l5 14v1l51 146l-210 473q-8 12 -26 14.5t-66 2.5v10h587zM196 482l155 -406l123 399h-1q8 23 -5 29q-16 7 -131 7q-124 0 -137 -9q-8 -5 -4 -20z" />
    <glyph glyph-name="uni04F0" unicode="&#x4f0;" horiz-adv-x="677" 
d="M209 799q-23 0 -39.5 15t-16.5 36t16.5 36t39.5 15t39.5 -15t16.5 -36t-16.5 -36t-39.5 -15zM469 799q-23 0 -39.5 15t-16.5 36t16.5 36t39.5 15t39.5 -15t16.5 -36t-16.5 -36t-39.5 -15zM662 700v-10q-28 0 -40 -0.5t-26 -2.5t-20 -6.5t-9 -13.5l-190 -477l-36 -121
q-12 -38 12.5 -51t99.5 -13v-5h-283v5q62 0 87.5 13.5t37.5 42.5l47 125l-231 481h-1q-6 16 -25 19.5t-70 3.5v10h647zM378 696q-99 0 -132 -4.5t-34 -19.5l181 -403l147 399q2 10 -4 15t-26 8t-48.5 4t-83.5 1z" />
    <glyph glyph-name="uni04F1" unicode="&#x4f1;" horiz-adv-x="607" 
d="M187 614q-23 0 -39.5 15t-16.5 36t16.5 36t39.5 15t39.5 -15t16.5 -36t-16.5 -36t-39.5 -15zM447 614q-23 0 -39.5 15t-16.5 36t16.5 36t39.5 15t39.5 -15t16.5 -36t-16.5 -36t-39.5 -15zM597 515v-10q-48 0 -66 -3t-26 -15l-160 -473l-60 -214h-150v5q58 0 84.5 12
t36.5 37l5 14v1l51 146l-210 473q-8 12 -26 14.5t-66 2.5v10h587zM196 482l155 -406l123 399h-1q8 23 -5 29q-16 7 -131 7q-124 0 -137 -9q-8 -5 -4 -20z" />
    <glyph glyph-name="uni04F2" unicode="&#x4f2;" horiz-adv-x="677" 
d="M338 855q-73 -34 -172 -92l-5 8q84 64 150 124q51 47 68 19q21 -28 -41 -59zM319 763l-5 8q84 64 150 124q51 47 68 19q21 -28 -41 -59q-73 -34 -172 -92zM662 700v-10q-28 0 -40 -0.5t-26 -2.5t-20 -6.5t-9 -13.5l-190 -477l-36 -121q-12 -38 12.5 -51t99.5 -13v-5h-283
v5q62 0 87.5 13.5t37.5 42.5l47 125l-231 481h-1q-6 16 -25 19.5t-70 3.5v10h647zM378 696q-99 0 -132 -4.5t-34 -19.5l181 -403l147 399q2 10 -4 15t-26 8t-48.5 4t-83.5 1z" />
    <glyph glyph-name="uni04F3" unicode="&#x4f3;" horiz-adv-x="607" 
d="M316 670q-73 -34 -172 -92l-5 8q84 64 150 124q51 47 68 19q21 -28 -41 -59zM297 578l-5 8q84 64 150 124q51 47 68 19q21 -28 -41 -59q-73 -34 -172 -92zM597 515v-10q-48 0 -66 -3t-26 -15l-160 -473l-60 -214h-150v5q58 0 84.5 12t36.5 37l5 14v1l51 146l-210 473
q-8 12 -26 14.5t-66 2.5v10h587zM196 482l155 -406l123 399h-1q8 23 -5 29q-16 7 -131 7q-124 0 -137 -9q-8 -5 -4 -20z" />
    <glyph glyph-name="uni04F4" unicode="&#x4f4;" horiz-adv-x="718" 
d="M288 799q-23 0 -39.5 15t-16.5 36t16.5 36t39.5 15t39.5 -15t16.5 -36t-16.5 -36t-39.5 -15zM548 799q-23 0 -39.5 15t-16.5 36t16.5 36t39.5 15t39.5 -15t16.5 -36t-16.5 -36t-39.5 -15zM697 690q-50 0 -78 -15.5t-28 -43.5v-562q0 -28 28 -43.5t78 -15.5v-10h-287v10
q52 0 76.5 10t28.5 36l1 341q-12 -33 -35.5 -65.5t-70.5 -61.5t-104 -29q-100 0 -152.5 55t-52.5 164v171q0 36 -15.5 47.5t-70.5 11.5v10h243v-10q-53 0 -67.5 -13.5t-14.5 -45.5v-128q0 -120 42.5 -171t109.5 -51q82 0 130.5 47t57.5 106v199q-1 32 -25 44.5t-81 12.5v10
h287v-10z" />
    <glyph glyph-name="uni04F5" unicode="&#x4f5;" horiz-adv-x="600" 
d="M140 614q-23 0 -39.5 15t-16.5 36t16.5 36t39.5 15t39.5 -15t16.5 -36t-16.5 -36t-39.5 -15zM400 614q-23 0 -39.5 15t-16.5 36t16.5 36t39.5 15t39.5 -15t16.5 -36t-16.5 -36t-39.5 -15zM481 74q0 -36 15.5 -47.5t70.5 -11.5v-15h-161v239q-17 -46 -57.5 -81t-98.5 -35
q-66 0 -107.5 42.5t-41.5 126.5v149q0 36 -15.5 47.5t-70.5 11.5v15h160v-183q0 -178 113 -178q46 0 79 39.5t39 91.5v156q0 36 -15.5 47.5t-70.5 11.5v15h161v-441z" />
    <glyph glyph-name="uni04F8" unicode="&#x4f8;" horiz-adv-x="902" 
d="M321 799q-23 0 -39.5 15t-16.5 36t16.5 36t39.5 15t39.5 -15t16.5 -36t-16.5 -36t-39.5 -15zM581 799q-23 0 -39.5 15t-16.5 36t16.5 36t39.5 15t39.5 -15t16.5 -36t-16.5 -36t-39.5 -15zM349 379q105 0 172.5 -46.5t67.5 -148.5q0 -184 -221 -184h-353v10
q52 0 68.5 10.5t17.5 41.5l-1 583q-3 25 -20.5 35t-64.5 10v10h252v-10q-48 0 -67 -14.5t-19 -44.5v-252h168zM867 690q-48 0 -67 -14.5t-19 -44.5v-562q0 -30 19 -44.5t67 -14.5v-10h-252v10q52 0 68.5 10.5t17.5 41.5l-1 583q-3 25 -20.5 35t-64.5 10v10h252v-10zM355 16
q55 0 98 43t43 125q0 90 -50 132.5t-110 42.5h-155v-290q0 -41 37 -53h137z" />
    <glyph glyph-name="uni1E04" unicode="&#x1e04;" horiz-adv-x="639" 
d="M442 373q76 -14 121.5 -60.5t45.5 -128.5q0 -184 -221 -184h-369v10q61 0 81.5 14t20.5 45v562q0 36 -18.5 47.5t-87.5 11.5v10h334q218 0 218 -168q0 -131 -125 -159zM337 681h-110q-26 -13 -26 -50v-251h153q50 0 89 38.5t39 113.5q0 43 -14 74t-37 46.5t-46.5 22
t-47.5 6.5zM375 16q55 0 98 43t43 125q0 90 -50 132.5t-110 42.5h-155v-290q0 -23 6.5 -35t26.5 -18h141zM320 -98q23 0 39.5 -15t16.5 -36t-16.5 -36t-39.5 -15t-39.5 15t-16.5 36t16.5 36t39.5 15z" />
    <glyph glyph-name="uni1E05" unicode="&#x1e05;" horiz-adv-x="589" 
d="M357 525q89 0 143 -64t54 -203q0 -70 -20 -124t-51.5 -84.5t-66 -45.5t-67.5 -15q-114 0 -171 106v-95h-161v10q47 0 66.5 14t19.5 43v547q0 19 -11 19q-17 0 -70 -38l-7 10l141 110h21v-304q55 114 180 114zM319 10q65 0 105 64.5t40 177.5q0 244 -142 244
q-156 0 -156 -253q0 -103 40 -168t113 -65zM106 -98q23 0 39.5 -15t16.5 -36t-16.5 -36t-39.5 -15t-39.5 15t-16.5 36t16.5 36t39.5 15z" />
    <glyph glyph-name="uni1E0C" unicode="&#x1e0c;" horiz-adv-x="770" 
d="M396 700q148 0 241 -87t93 -258q0 -173 -93.5 -264t-240.5 -91h-377v10q61 0 81.5 14t20.5 45v562q0 36 -18.5 47.5t-87.5 11.5v10h381zM391 18q98 0 166 89t68 248q0 161 -67 244.5t-167 83.5h-136q-54 -12 -54 -52v-562q0 -39 45 -51h145zM380 -98q23 0 39.5 -15
t16.5 -36t-16.5 -36t-39.5 -15t-39.5 15t-16.5 36t16.5 36t39.5 15z" />
    <glyph glyph-name="uni1E0D" unicode="&#x1e0d;" horiz-adv-x="601" 
d="M581 73l5 -6l-106 -82q-40 1 -54 27.5t-15 89.5q-55 -113 -179 -113q-89 0 -143 64t-54 203q0 70 20 124t53 84.5t69 45.5t73 15q104 0 160 -103v194q-1 21 -17 16q-17 -5 -63 -37l-7 10l141 110h21l1 -634q0 -67 95 -8zM267 18q156 0 156 253q0 103 -40 168t-113 65
q-65 0 -105 -64.5t-40 -177.5q0 -244 142 -244zM302 -98q23 0 39.5 -15t16.5 -36t-16.5 -36t-39.5 -15t-39.5 15t-16.5 36t16.5 36t39.5 15z" />
    <glyph glyph-name="uni1E24" unicode="&#x1e24;" horiz-adv-x="783" 
d="M768 690q-64 0 -85.5 -12t-21.5 -47v-562q0 -36 18.5 -47.5t87.5 -11.5v-10h-288v7q60 0 81 15t21 47v285h-380v-285q0 -37 19 -49.5t87 -12.5v-7h-288v10q61 0 81.5 14t20.5 45v562q0 36 -18.5 47.5t-87.5 11.5v10h293v-7q-63 0 -85 -13.5t-22 -48.5v-262h380v262
q0 37 -19 49.5t-87 12.5v7h293v-10zM392 -98q23 0 39.5 -15t16.5 -36t-16.5 -36t-39.5 -15t-39.5 15t-16.5 36t16.5 36t39.5 15z" />
    <glyph glyph-name="uni1E25" unicode="&#x1e25;" horiz-adv-x="618" 
d="M517 69q0 -36 15.5 -47.5t70.5 -11.5v-10h-243v10q53 0 67.5 13.5t14.5 45.5v258q0 91 -19.5 126.5t-82.5 35.5q-53 0 -91 -36.5t-47 -86.5v-299q1 -32 25 -44.5t81 -12.5v-10h-287v10q50 0 78 15.5t28 43.5v530q-1 29 -17 28q-22 -1 -88 -50l-7 8l166 130h21l-1 -3l2 3
v-312q17 47 66 86.5t113 39.5q135 0 135 -139v-321zM300 -98q23 0 39.5 -15t16.5 -36t-16.5 -36t-39.5 -15t-39.5 15t-16.5 36t16.5 36t39.5 15z" />
    <glyph glyph-name="uni1E2E" unicode="&#x1e2e;" horiz-adv-x="363" 
d="M77 967q99 58 172 92q62 31 41 59q-17 28 -68 -19q-66 -60 -150 -124zM52 799q-23 0 -39.5 15t-16.5 36t16.5 36t39.5 15t39.5 -15t16.5 -36t-16.5 -36t-39.5 -15zM312 799q-23 0 -39.5 15t-16.5 36t16.5 36t39.5 15t39.5 -15t16.5 -36t-16.5 -36t-39.5 -15zM221 69
q0 -36 18.5 -47.5t87.5 -11.5v-10h-288v10q61 0 81.5 14t20.5 45v562q0 36 -18.5 47.5t-87.5 11.5v10h293v-10q-64 0 -85.5 -12t-21.5 -47v-562z" />
    <glyph glyph-name="uni1E2F" unicode="&#x1e2f;" horiz-adv-x="284" 
d="M219 889q-73 -34 -172 -92l-5 8q84 64 150 124q51 47 68 19q21 -28 -41 -59zM78 680q0 -21 -16.5 -36t-39.5 -15t-39.5 15t-16.5 36t16.5 36t39.5 15t39.5 -15t16.5 -36zM282 731q23 0 39.5 -15t16.5 -36t-16.5 -36t-39.5 -15t-39.5 15t-16.5 36t16.5 36t39.5 15zM183 63
q1 -32 17 -42.5t69 -10.5v-10h-247v10q48 0 67 14.5t19 44.5v346q-1 16 -6.5 23t-25.5 0.5t-53 -34.5l-8 10l147 116h22z" />
    <glyph glyph-name="uni1E36" unicode="&#x1e36;" horiz-adv-x="636" 
d="M613 188h8l-37 -188h-569v10q48 0 67 14.5t19 44.5v561l1 1h-1q0 30 -19 44.5t-67 14.5v10h252v-10q-48 0 -65 -8.5t-20 -31.5l-1 -629h304q45 0 71.5 31.5t56.5 135.5zM274 -98q23 0 39.5 -15t16.5 -36t-16.5 -36t-39.5 -15t-39.5 15t-16.5 36t16.5 36t39.5 15z" />
    <glyph glyph-name="uni1E37" unicode="&#x1e37;" horiz-adv-x="323" 
d="M202 67q1 -32 25 -44.5t81 -12.5v-10h-287v10q50 0 78 15.5t28 43.5v530q-1 29 -17 28q-22 -1 -88 -50l-7 8l166 130h21l-1 -3l2 3zM162 -98q23 0 39.5 -15t16.5 -36t-16.5 -36t-39.5 -15t-39.5 15t-16.5 36t16.5 36t39.5 15z" />
    <glyph glyph-name="uni1E3E" unicode="&#x1e3e;" horiz-adv-x="858" 
d="M496 858q-73 -34 -172 -92l-5 8q84 64 150 124q51 47 68 19q21 -28 -41 -59zM838 690q-64 0 -85.5 -12t-21.5 -47v-562q0 -36 18.5 -47.5t87.5 -11.5v-10h-288v10q61 0 81.5 14t20.5 45v561l-225 -630h-25l-255 588v-519q0 -36 15.5 -47.5t70.5 -11.5v-10h-193v10
q47 0 64.5 14.5t17.5 44.5v562q0 36 -18.5 47.5t-87.5 11.5v10h168l262 -576l206 576h187v-10z" />
    <glyph glyph-name="uni1E3F" unicode="&#x1e3f;" horiz-adv-x="875" 
d="M363 673q-73 -34 -172 -92l-5 8q84 64 150 124q51 47 68 19q21 -28 -41 -59zM774 69q0 -36 15.5 -47.5t70.5 -11.5v-10h-243v10q53 0 67.5 13.5t14.5 45.5v258q0 90 -18 126t-74 36q-49 0 -82.5 -41t-36.5 -95v-284q0 -36 15.5 -47.5t70.5 -11.5v-10h-243v10
q53 0 67.5 13.5t14.5 45.5v258q0 90 -18 126t-74 36q-47 0 -79.5 -38.5t-38.5 -89.5l-1 -298q1 -32 17 -42.5t69 -10.5v-10h-247v10q48 0 67 14.5t19 44.5v357q0 50 -15 64.5t-71 14.5v10h162v-104q8 38 56 78.5t100 40.5q111 0 126 -118q24 53 65.5 85.5t94.5 32.5
q129 0 129 -163v-298z" />
    <glyph glyph-name="uni1E44" unicode="&#x1e44;" horiz-adv-x="697" 
d="M349 799q-23 0 -39.5 15t-16.5 36t16.5 36t39.5 15t39.5 -15t16.5 -36t-16.5 -36t-39.5 -15zM682 700v-10q-55 0 -70.5 -11.5t-15.5 -47.5v-631h-25l-445 598v-529q0 -36 15.5 -47.5t70.5 -11.5v-10h-193v10q47 0 64.5 14.5t17.5 44.5v562q0 36 -15.5 47.5t-70.5 11.5v10
h148l408 -551v482q0 36 -15 47.5t-67 11.5v10h193z" />
    <glyph glyph-name="uni1E45" unicode="&#x1e45;" horiz-adv-x="608" 
d="M319 644q-23 0 -39.5 15t-16.5 36t16.5 36t39.5 15t39.5 -15t16.5 -36t-16.5 -36t-39.5 -15zM507 69q0 -36 15.5 -47.5t70.5 -11.5v-10h-243v10q53 0 67.5 13.5t14.5 45.5v258q0 91 -19.5 126.5t-82.5 35.5q-54 0 -93.5 -38.5t-44.5 -89.5l-1 -298q1 -32 17 -42.5
t69 -10.5v-10h-247v10q48 0 67 14.5t19 44.5v357q0 50 -15 64.5t-71 14.5v10h162v-114q17 47 66 87.5t114 40.5q135 0 135 -139v-321z" />
    <glyph glyph-name="uni1E46" unicode="&#x1e46;" horiz-adv-x="697" 
d="M682 700v-10q-55 0 -70.5 -11.5t-15.5 -47.5v-631h-25l-445 598v-529q0 -36 15.5 -47.5t70.5 -11.5v-10h-193v10q47 0 64.5 14.5t17.5 44.5v562q0 36 -15.5 47.5t-70.5 11.5v10h148l408 -551v482q0 36 -15 47.5t-67 11.5v10h193zM349 -98q23 0 39.5 -15t16.5 -36
t-16.5 -36t-39.5 -15t-39.5 15t-16.5 36t16.5 36t39.5 15z" />
    <glyph glyph-name="uni1E47" unicode="&#x1e47;" horiz-adv-x="608" 
d="M507 69q0 -36 15.5 -47.5t70.5 -11.5v-10h-243v10q53 0 67.5 13.5t14.5 45.5v258q0 91 -19.5 126.5t-82.5 35.5q-54 0 -93.5 -38.5t-44.5 -89.5l-1 -298q1 -32 17 -42.5t69 -10.5v-10h-247v10q48 0 67 14.5t19 44.5v357q0 50 -15 64.5t-71 14.5v10h162v-114
q17 47 66 87.5t114 40.5q135 0 135 -139v-321zM289 -98q23 0 39.5 -15t16.5 -36t-16.5 -36t-39.5 -15t-39.5 15t-16.5 36t16.5 36t39.5 15z" />
    <glyph glyph-name="uni1E4C" unicode="&#x1e4c;" horiz-adv-x="750" 
d="M270 943q99 58 172 92q62 31 41 59q-17 28 -68 -19q-66 -60 -150 -124zM530 883q0 -70 -18 -93.5t-58 -23.5q-27 0 -79 32.5t-77 32.5q-61 0 -61 -66h-13q4 117 85 117q37 0 83.5 -32.5t71.5 -32.5q49 0 54 66h12zM375 -18q-69 0 -128 22t-106 65t-74 114.5t-27 164.5
q0 172 96.5 269t238.5 97t238.5 -97t96.5 -269q0 -93 -27 -164.5t-74 -114.5t-106 -65t-128 -22zM375 -2q59 0 105.5 30t74 81t41.5 112t14 127q0 63 -14 123t-41 112t-73.5 83.5t-106.5 31.5q-59 0 -106 -31.5t-74 -83.5t-41 -112t-14 -123q0 -91 23 -167.5t78 -129.5
t134 -53z" />
    <glyph glyph-name="uni1E4D" unicode="&#x1e4d;" horiz-adv-x="554" 
d="M172 758q99 58 172 92q62 31 41 59q-17 28 -68 -19q-66 -60 -150 -124zM432 698q0 -70 -18 -93.5t-58 -23.5q-27 0 -79 32.5t-77 32.5q-61 0 -61 -66h-13q4 117 85 117q37 0 83.5 -32.5t71.5 -32.5q49 0 54 66h12zM277 -11q-109 0 -175.5 66t-66.5 203q0 131 67.5 200
t174.5 69t174.5 -69t67.5 -200q0 -137 -66.5 -203t-175.5 -66zM277 0q152 0 152 258t-152 258t-152 -258t152 -258z" />
    <glyph glyph-name="uni1E50" unicode="&#x1e50;" horiz-adv-x="750" 
d="M490 890l5 8q-84 64 -150 124q-51 47 -68 19q-21 -28 41 -59q73 -34 172 -92zM195 824h349v-20h-349v20zM375 -18q-69 0 -128 22t-106 65t-74 114.5t-27 164.5q0 172 96.5 269t238.5 97t238.5 -97t96.5 -269q0 -93 -27 -164.5t-74 -114.5t-106 -65t-128 -22zM375 -2
q59 0 105.5 30t74 81t41.5 112t14 127q0 63 -14 123t-41 112t-73.5 83.5t-106.5 31.5q-59 0 -106 -31.5t-74 -83.5t-41 -112t-14 -123q0 -91 23 -167.5t78 -129.5t134 -53z" />
    <glyph glyph-name="uni1E51" unicode="&#x1e51;" horiz-adv-x="554" 
d="M392 705l5 8q-84 64 -150 124q-51 47 -68 19q-21 -28 41 -59q73 -34 172 -92zM97 639h349v-20h-349v20zM277 -11q-109 0 -175.5 66t-66.5 203q0 131 67.5 200t174.5 69t174.5 -69t67.5 -200q0 -137 -66.5 -203t-175.5 -66zM277 0q152 0 152 258t-152 258t-152 -258
t152 -258z" />
    <glyph glyph-name="uni1E52" unicode="&#x1e52;" horiz-adv-x="750" 
d="M270 890q99 58 172 92q62 31 41 59q-17 28 -68 -19q-66 -60 -150 -124zM195 824h349v-20h-349v20zM375 -18q-69 0 -128 22t-106 65t-74 114.5t-27 164.5q0 172 96.5 269t238.5 97t238.5 -97t96.5 -269q0 -93 -27 -164.5t-74 -114.5t-106 -65t-128 -22zM375 -2
q59 0 105.5 30t74 81t41.5 112t14 127q0 63 -14 123t-41 112t-73.5 83.5t-106.5 31.5q-59 0 -106 -31.5t-74 -83.5t-41 -112t-14 -123q0 -91 23 -167.5t78 -129.5t134 -53z" />
    <glyph glyph-name="uni1E53" unicode="&#x1e53;" horiz-adv-x="554" 
d="M172 705q99 58 172 92q62 31 41 59q-17 28 -68 -19q-66 -60 -150 -124zM97 639h349v-20h-349v20zM277 -11q-109 0 -175.5 66t-66.5 203q0 131 67.5 200t174.5 69t174.5 -69t67.5 -200q0 -137 -66.5 -203t-175.5 -66zM277 0q152 0 152 258t-152 258t-152 -258t152 -258z
" />
    <glyph glyph-name="uni1E62" unicode="&#x1e62;" horiz-adv-x="608" 
d="M568 179q0 -95 -69.5 -144.5t-172.5 -49.5q-79 0 -136 18t-150 63l32 242l13 -2q-24 -158 47 -232.5t194 -74.5q74 0 116.5 36t42.5 105q0 54 -33 107.5t-95 74.5l-156 54q-142 50 -142 175q0 163 220 163q36 0 72 -6.5t56.5 -13.5t55.5 -20.5t47 -17.5l-10 -216h-13
q13 260 -197 260q-153 0 -153 -124q0 -45 36 -80t96 -54l144 -46q71 -22 113 -78.5t42 -138.5zM324 -221q-23 0 -39.5 15t-16.5 36t16.5 36t39.5 15t39.5 -15t16.5 -36t-16.5 -36t-39.5 -15z" />
    <glyph glyph-name="uni1E63" unicode="&#x1e63;" horiz-adv-x="486" 
d="M451 141q0 -75 -59.5 -115t-143.5 -40q-85 0 -213 72l33 178l11 -3q-24 -115 19 -174.5t150 -58.5q52 1 88.5 26t36.5 69q0 45 -27.5 80t-71.5 51l-106 39q-60 22 -86.5 51t-26.5 75q0 63 51.5 100t121.5 37q74 0 175 -36l-28 -149l-8 3q31 169 -137 169
q-48 0 -77.5 -22.5t-29.5 -58.5t22.5 -57t72.5 -41l116 -46q64 -26 90.5 -60.5t26.5 -88.5zM248 -212q-23 0 -39.5 15t-16.5 36t16.5 36t39.5 15t39.5 -15t16.5 -36t-16.5 -36t-39.5 -15z" />
    <glyph glyph-name="uni1E6C" unicode="&#x1e6c;" horiz-adv-x="717" 
d="M670 700l37 -197h-8q-42 110 -65 145t-63 36l-146 2q-26 -12 -26 -59v-558q0 -28 8 -39t33 -15.5t85 -4.5v-10h-328v10q80 0 101 10t21 49v558q0 49 -22 59l-151 -2q-40 -1 -63 -36t-65 -145h-8l37 197h623zM359 -200q-23 0 -39.5 15t-16.5 36t16.5 36t39.5 15t39.5 -15
t16.5 -36t-16.5 -36t-39.5 -15z" />
    <glyph glyph-name="uni1E6D" unicode="&#x1e6d;" horiz-adv-x="316" 
d="M288 99l9 -10l-141 -109q-36 2 -52.5 22.5t-16.5 64.5l1 436h-73v12q87 0 110.5 43t23.5 192h13v-235h107v-12h-107v-417q0 -30 21 -39t47 10zM148 -222q-23 0 -39.5 15t-16.5 36t16.5 36t39.5 15t39.5 -15t16.5 -36t-16.5 -36t-39.5 -15z" />
    <glyph glyph-name="Wgrave" unicode="&#x1e80;" horiz-adv-x="1223" 
d="M555 858q-62 31 -41 59q17 28 68 -19q66 -60 150 -124l-5 -8q-99 58 -172 92zM1208 700v-10q-58 0 -84 -4t-38 -19l-237 -667h-17l210 646q10 28 -4 36q-20 12 -166 12h-20q-76 0 -112.5 -0.5t-64 -4t-34.5 -9.5t-6 -17l25 -61h2l-1 -3l206 -491l-35 -108l-212 485
l-174 -485h-18l173 529l-60 137q-19 27 -112 28q-67 0 -102.5 -1t-59.5 -4.5t-30.5 -9.5t-5.5 -17l232 -554l-35 -108l-289 662q-10 19 -35.5 23.5t-91.5 4.5l3 10h1193z" />
    <glyph glyph-name="wgrave" unicode="&#x1e81;" horiz-adv-x="927" 
d="M408 673q-62 31 -41 59q17 28 68 -19q66 -60 150 -124l-5 -8q-99 58 -172 92zM912 515v-10q-50 0 -68 -3.5t-25 -18.5l-174 -483h-13l-160 348l-127 -348h-13l-222 482q-6 16 -25 19.5t-70 3.5v10h897zM491 487l167 -407l133 403q5 19 -19 23.5t-125 4.5q-55 0 -82 -0.5
t-46.5 -3t-24.5 -7t-3 -13.5zM358 80l99 300l-47 102q-11 28 -87 29q-46 0 -70.5 -0.5t-40 -3t-19.5 -7t-3 -11.5z" />
    <glyph glyph-name="Wacute" unicode="&#x1e82;" horiz-adv-x="1223" 
d="M679 858q-73 -34 -172 -92l-5 8q84 64 150 124q51 47 68 19q21 -28 -41 -59zM1208 700v-10q-58 0 -84 -4t-38 -19l-237 -667h-17l210 646q10 28 -4 36q-20 12 -166 12h-20q-76 0 -112.5 -0.5t-64 -4t-34.5 -9.5t-6 -17l25 -61h2l-1 -3l206 -491l-35 -108l-212 485
l-174 -485h-18l173 529l-60 137q-19 27 -112 28q-67 0 -102.5 -1t-59.5 -4.5t-30.5 -9.5t-5.5 -17l232 -554l-35 -108l-289 662q-10 19 -35.5 23.5t-91.5 4.5l3 10h1193z" />
    <glyph glyph-name="wacute" unicode="&#x1e83;" horiz-adv-x="927" 
d="M532 673q-73 -34 -172 -92l-5 8q84 64 150 124q51 47 68 19q21 -28 -41 -59zM912 515v-10q-50 0 -68 -3.5t-25 -18.5l-174 -483h-13l-160 348l-127 -348h-13l-222 482q-6 16 -25 19.5t-70 3.5v10h897zM491 487l167 -407l133 403q5 19 -19 23.5t-125 4.5q-55 0 -82 -0.5
t-46.5 -3t-24.5 -7t-3 -13.5zM358 80l99 300l-47 102q-11 28 -87 29q-46 0 -70.5 -0.5t-40 -3t-19.5 -7t-3 -11.5z" />
    <glyph glyph-name="Wdieresis" unicode="&#x1e84;" horiz-adv-x="1223" 
d="M482 799q-23 0 -39.5 15t-16.5 36t16.5 36t39.5 15t39.5 -15t16.5 -36t-16.5 -36t-39.5 -15zM742 799q-23 0 -39.5 15t-16.5 36t16.5 36t39.5 15t39.5 -15t16.5 -36t-16.5 -36t-39.5 -15zM1208 700v-10q-58 0 -84 -4t-38 -19l-237 -667h-17l210 646q10 28 -4 36
q-20 12 -166 12h-20q-76 0 -112.5 -0.5t-64 -4t-34.5 -9.5t-6 -17l25 -61h2l-1 -3l206 -491l-35 -108l-212 485l-174 -485h-18l173 529l-60 137q-19 27 -112 28q-67 0 -102.5 -1t-59.5 -4.5t-30.5 -9.5t-5.5 -17l232 -554l-35 -108l-289 662q-10 19 -35.5 23.5t-91.5 4.5
l3 10h1193z" />
    <glyph glyph-name="wdieresis" unicode="&#x1e85;" horiz-adv-x="927" 
d="M335 614q-23 0 -39.5 15t-16.5 36t16.5 36t39.5 15t39.5 -15t16.5 -36t-16.5 -36t-39.5 -15zM595 614q-23 0 -39.5 15t-16.5 36t16.5 36t39.5 15t39.5 -15t16.5 -36t-16.5 -36t-39.5 -15zM912 515v-10q-50 0 -68 -3.5t-25 -18.5l-174 -483h-13l-160 348l-127 -348h-13
l-222 482q-6 16 -25 19.5t-70 3.5v10h897zM491 487l167 -407l133 403q5 19 -19 23.5t-125 4.5q-55 0 -82 -0.5t-46.5 -3t-24.5 -7t-3 -13.5zM358 80l99 300l-47 102q-11 28 -87 29q-46 0 -70.5 -0.5t-40 -3t-19.5 -7t-3 -11.5z" />
    <glyph glyph-name="uni1E92" unicode="&#x1e92;" horiz-adv-x="624" 
d="M601 198h8l-43 -198h-551v20l481 670l-317 -6q-44 -1 -75 -36.5t-69 -134.5h-8l43 187h519v-20l-476 -662l344 4q43 1 74.5 38.5t69.5 137.5zM275 -98q23 0 39.5 -15t16.5 -36t-16.5 -36t-39.5 -15t-39.5 15t-16.5 36t16.5 36t39.5 15z" />
    <glyph glyph-name="uni1E93" unicode="&#x1e93;" horiz-adv-x="514" 
d="M490 190h8l-41 -190h-428v30l363 474l-218 -4q-41 -1 -70.5 -34.5t-65.5 -127.5h-8l41 177h402v-30l-356 -465l32 -2l203 3q41 1 71 36.5t67 132.5zM257 -98q23 0 39.5 -15t16.5 -36t-16.5 -36t-39.5 -15t-39.5 15t-16.5 36t16.5 36t39.5 15z" />
    <glyph glyph-name="uni1E9E" unicode="&#x1e9e;" horiz-adv-x="600" 
 />
    <glyph glyph-name="uni1EA0" unicode="&#x1ea0;" horiz-adv-x="829" 
d="M691 37q11 -17 37 -22t86 -5v-10h-799v10q53 0 74.5 6t31.5 23l243 587l-9 23h-1q-8 20 -19 26.5t-51 10.5t-135 4v10h262zM498 289l-123 309l-120 -309h243zM359 6q157 0 201.5 8t31.5 40l-88 220h-255l-85 -219h1q-12 -29 10 -38q27 -11 184 -11zM405 -98
q23 0 39.5 -15t16.5 -36t-16.5 -36t-39.5 -15t-39.5 15t-16.5 36t16.5 36t39.5 15z" />
    <glyph glyph-name="uni1EA1" unicode="&#x1ea1;" horiz-adv-x="523" 
d="M499 75l9 -10l-113 -74q-14 0 -25.5 17t-11.5 52v52q-26 -53 -72.5 -90t-108.5 -37q-65 0 -103.5 34.5t-38.5 108.5q0 102 86 141l-65 163q93 95 197 95q180 0 180 -154v-311q1 -13 10 -13q6 0 56 26zM120 304q5 -20 10 -32q40 16 82 13l146 -10v88q0 73 -24.5 112
t-87.5 39q-71 0 -109.5 -64t-16.5 -146zM207 20q61 0 106 48.5t45 106.5v73l-102 6q-34 2 -63 -7.5t-51.5 -40.5t-22.5 -82q0 -49 24.5 -76.5t63.5 -27.5zM262 -98q23 0 39.5 -15t16.5 -36t-16.5 -36t-39.5 -15t-39.5 15t-16.5 36t16.5 36t39.5 15z" />
    <glyph glyph-name="uni1EA2" unicode="&#x1ea2;" horiz-adv-x="829" 
d="M430 885q0 -46 -27.5 -76t-82.5 -31v34q95 0 95 73t-95 73v34q55 -1 82.5 -31t27.5 -76zM691 37q11 -17 37 -22t86 -5v-10h-799v10q53 0 74.5 6t31.5 23l243 587l-9 23h-1q-8 20 -19 26.5t-51 10.5t-135 4v10h262zM498 289l-123 309l-120 -309h243zM359 6q157 0 201.5 8
t31.5 40l-88 220h-255l-85 -219h1q-12 -29 10 -38q27 -11 184 -11z" />
    <glyph glyph-name="uni1EA3" unicode="&#x1ea3;" horiz-adv-x="523" 
d="M297 710q0 -46 -27.5 -76t-82.5 -31v34q95 0 95 73t-95 73v34q55 -1 82.5 -31t27.5 -76zM499 75l9 -10l-113 -74q-14 0 -25.5 17t-11.5 52v52q-26 -53 -72.5 -90t-108.5 -37q-65 0 -103.5 34.5t-38.5 108.5q0 102 86 141l-65 163q93 95 197 95q180 0 180 -154v-311
q1 -13 10 -13q6 0 56 26zM120 304q5 -20 10 -32q40 16 82 13l146 -10v88q0 73 -24.5 112t-87.5 39q-71 0 -109.5 -64t-16.5 -146zM207 20q61 0 106 48.5t45 106.5v73l-102 6q-34 2 -63 -7.5t-51.5 -40.5t-22.5 -82q0 -49 24.5 -76.5t63.5 -27.5z" />
    <glyph glyph-name="uni1EA4" unicode="&#x1ea4;" horiz-adv-x="829" 
d="M442 1054q-73 -34 -172 -92l-5 8q84 64 150 124q51 47 68 19q21 -28 -41 -59zM369 889l-96 -128l-11 8l121 166l133 -154l-28 -25zM691 37q11 -17 37 -22t86 -5v-10h-799v10q53 0 74.5 6t31.5 23l243 587l-9 23h-1q-8 20 -19 26.5t-51 10.5t-135 4v10h262zM498 289
l-123 309l-120 -309h243zM359 6q157 0 201.5 8t31.5 40l-88 220h-255l-85 -219h1q-12 -29 10 -38q27 -11 184 -11z" />
    <glyph glyph-name="uni1EA5" unicode="&#x1ea5;" horiz-adv-x="523" 
d="M309 879q-73 -34 -172 -92l-5 8q84 64 150 124q51 47 68 19q21 -28 -41 -59zM236 714l-96 -128l-11 8l121 166l133 -154l-28 -25zM499 75l9 -10l-113 -74q-14 0 -25.5 17t-11.5 52v52q-26 -53 -72.5 -90t-108.5 -37q-65 0 -103.5 34.5t-38.5 108.5q0 102 86 141l-65 163
q93 95 197 95q180 0 180 -154v-311q1 -13 10 -13q6 0 56 26zM120 304q5 -20 10 -32q40 16 82 13l146 -10v88q0 73 -24.5 112t-87.5 39q-71 0 -109.5 -64t-16.5 -146zM207 20q61 0 106 48.5t45 106.5v73l-102 6q-34 2 -63 -7.5t-51.5 -40.5t-22.5 -82q0 -49 24.5 -76.5
t63.5 -27.5z" />
    <glyph glyph-name="uni1EA6" unicode="&#x1ea6;" horiz-adv-x="829" 
d="M318 1054q-62 31 -41 59q17 28 68 -19q66 -60 150 -124l-5 -8q-99 58 -172 92zM369 889l-96 -128l-11 8l121 166l133 -154l-28 -25zM691 37q11 -17 37 -22t86 -5v-10h-799v10q53 0 74.5 6t31.5 23l243 587l-9 23h-1q-8 20 -19 26.5t-51 10.5t-135 4v10h262zM498 289
l-123 309l-120 -309h243zM359 6q157 0 201.5 8t31.5 40l-88 220h-255l-85 -219h1q-12 -29 10 -38q27 -11 184 -11z" />
    <glyph glyph-name="uni1EA7" unicode="&#x1ea7;" horiz-adv-x="523" 
d="M185 879q-62 31 -41 59q17 28 68 -19q66 -60 150 -124l-5 -8q-99 58 -172 92zM236 714l-96 -128l-11 8l121 166l133 -154l-28 -25zM499 75l9 -10l-113 -74q-14 0 -25.5 17t-11.5 52v52q-26 -53 -72.5 -90t-108.5 -37q-65 0 -103.5 34.5t-38.5 108.5q0 102 86 141l-65 163
q93 95 197 95q180 0 180 -154v-311q1 -13 10 -13q6 0 56 26zM120 304q5 -20 10 -32q40 16 82 13l146 -10v88q0 73 -24.5 112t-87.5 39q-71 0 -109.5 -64t-16.5 -146zM207 20q61 0 106 48.5t45 106.5v73l-102 6q-34 2 -63 -7.5t-51.5 -40.5t-22.5 -82q0 -49 24.5 -76.5
t63.5 -27.5z" />
    <glyph glyph-name="uni1EA8" unicode="&#x1ea8;" horiz-adv-x="829" 
d="M430 1081q0 -46 -27.5 -76t-82.5 -31v34q95 0 95 73t-95 73v34q55 -1 82.5 -31t27.5 -76zM369 889l-96 -128l-11 8l121 166l133 -154l-28 -25zM691 37q11 -17 37 -22t86 -5v-10h-799v10q53 0 74.5 6t31.5 23l243 587l-9 23h-1q-8 20 -19 26.5t-51 10.5t-135 4v10h262z
M498 289l-123 309l-120 -309h243zM359 6q157 0 201.5 8t31.5 40l-88 220h-255l-85 -219h1q-12 -29 10 -38q27 -11 184 -11z" />
    <glyph glyph-name="uni1EA9" unicode="&#x1ea9;" horiz-adv-x="523" 
d="M297 906q0 -46 -27.5 -76t-82.5 -31v34q95 0 95 73t-95 73v34q55 -1 82.5 -31t27.5 -76zM236 714l-96 -128l-11 8l121 166l133 -154l-28 -25zM499 75l9 -10l-113 -74q-14 0 -25.5 17t-11.5 52v52q-26 -53 -72.5 -90t-108.5 -37q-65 0 -103.5 34.5t-38.5 108.5
q0 102 86 141l-65 163q93 95 197 95q180 0 180 -154v-311q1 -13 10 -13q6 0 56 26zM120 304q5 -20 10 -32q40 16 82 13l146 -10v88q0 73 -24.5 112t-87.5 39q-71 0 -109.5 -64t-16.5 -146zM207 20q61 0 106 48.5t45 106.5v73l-102 6q-34 2 -63 -7.5t-51.5 -40.5t-22.5 -82
q0 -49 24.5 -76.5t63.5 -27.5z" />
    <glyph glyph-name="uni1EAA" unicode="&#x1eaa;" horiz-adv-x="829" 
d="M298 1017q-61 0 -61 -66h-13q4 117 85 117q37 0 83.5 -32.5t71.5 -32.5q49 0 54 66h12q0 -70 -18 -93.5t-58 -23.5q-27 0 -79 32.5t-77 32.5zM262 769l121 166l133 -154l-28 -25l-119 133l-96 -128zM691 37q11 -17 37 -22t86 -5v-10h-799v10q53 0 74.5 6t31.5 23l243 587
l-9 23h-1q-8 20 -19 26.5t-51 10.5t-135 4v10h262zM498 289l-123 309l-120 -309h243zM359 6q157 0 201.5 8t31.5 40l-88 220h-255l-85 -219h1q-12 -29 10 -38q27 -11 184 -11z" />
    <glyph glyph-name="uni1EAB" unicode="&#x1eab;" horiz-adv-x="523" 
d="M165 842q-61 0 -61 -66h-13q4 117 85 117q37 0 83.5 -32.5t71.5 -32.5q49 0 54 66h12q0 -70 -18 -93.5t-58 -23.5q-27 0 -79 32.5t-77 32.5zM129 594l121 166l133 -154l-28 -25l-119 133l-96 -128zM499 75l9 -10l-113 -74q-14 0 -25.5 17t-11.5 52v52q-26 -53 -72.5 -90
t-108.5 -37q-65 0 -103.5 34.5t-38.5 108.5q0 102 86 141l-65 163q93 95 197 95q180 0 180 -154v-311q1 -13 10 -13q6 0 56 26zM120 304q5 -20 10 -32q40 16 82 13l146 -10v88q0 73 -24.5 112t-87.5 39q-71 0 -109.5 -64t-16.5 -146zM207 20q61 0 106 48.5t45 106.5v73
l-102 6q-34 2 -63 -7.5t-51.5 -40.5t-22.5 -82q0 -49 24.5 -76.5t63.5 -27.5z" />
    <glyph glyph-name="uni1EAC" unicode="&#x1eac;" horiz-adv-x="829" 
d="M369 889l-96 -128l-11 8l121 166l133 -154l-28 -25zM691 37q11 -17 37 -22t86 -5v-10h-799v10q53 0 74.5 6t31.5 23l243 587l-9 23h-1q-8 20 -19 26.5t-51 10.5t-135 4v10h262zM498 289l-123 309l-120 -309h243zM359 6q157 0 201.5 8t31.5 40l-88 220h-255l-85 -219h1
q-12 -29 10 -38q27 -11 184 -11zM405 -98q23 0 39.5 -15t16.5 -36t-16.5 -36t-39.5 -15t-39.5 15t-16.5 36t16.5 36t39.5 15z" />
    <glyph glyph-name="uni1EAD" unicode="&#x1ead;" horiz-adv-x="523" 
d="M236 714l-96 -128l-11 8l121 166l133 -154l-28 -25zM499 75l9 -10l-113 -74q-14 0 -25.5 17t-11.5 52v52q-26 -53 -72.5 -90t-108.5 -37q-65 0 -103.5 34.5t-38.5 108.5q0 102 86 141l-65 163q93 95 197 95q180 0 180 -154v-311q1 -13 10 -13q6 0 56 26zM120 304
q5 -20 10 -32q40 16 82 13l146 -10v88q0 73 -24.5 112t-87.5 39q-71 0 -109.5 -64t-16.5 -146zM207 20q61 0 106 48.5t45 106.5v73l-102 6q-34 2 -63 -7.5t-51.5 -40.5t-22.5 -82q0 -49 24.5 -76.5t63.5 -27.5zM262 -98q23 0 39.5 -15t16.5 -36t-16.5 -36t-39.5 -15
t-39.5 15t-16.5 36t16.5 36t39.5 15z" />
    <glyph glyph-name="uni1EAE" unicode="&#x1eae;" horiz-adv-x="829" 
d="M442 1019q-73 -34 -172 -92l-5 8q84 64 150 124q51 47 68 19q21 -28 -41 -59zM375 774q73 0 73 95h34q-1 -55 -31 -82.5t-76 -27.5t-76 27.5t-31 82.5h34q0 -95 73 -95zM691 37q11 -17 37 -22t86 -5v-10h-799v10q53 0 74.5 6t31.5 23l243 587l-9 23h-1q-8 20 -19 26.5
t-51 10.5t-135 4v10h262zM498 289l-123 309l-120 -309h243zM359 6q157 0 201.5 8t31.5 40l-88 220h-255l-85 -219h1q-12 -29 10 -38q27 -11 184 -11z" />
    <glyph glyph-name="uni1EAF" unicode="&#x1eaf;" horiz-adv-x="523" 
d="M309 844q-73 -34 -172 -92l-5 8q84 64 150 124q51 47 68 19q21 -28 -41 -59zM242 599q73 0 73 95h34q-1 -55 -31 -82.5t-76 -27.5t-76 27.5t-31 82.5h34q0 -95 73 -95zM499 75l9 -10l-113 -74q-14 0 -25.5 17t-11.5 52v52q-26 -53 -72.5 -90t-108.5 -37
q-65 0 -103.5 34.5t-38.5 108.5q0 102 86 141l-65 163q93 95 197 95q180 0 180 -154v-311q1 -13 10 -13q6 0 56 26zM120 304q5 -20 10 -32q40 16 82 13l146 -10v88q0 73 -24.5 112t-87.5 39q-71 0 -109.5 -64t-16.5 -146zM207 20q61 0 106 48.5t45 106.5v73l-102 6
q-34 2 -63 -7.5t-51.5 -40.5t-22.5 -82q0 -49 24.5 -76.5t63.5 -27.5z" />
    <glyph glyph-name="uni1EB0" unicode="&#x1eb0;" horiz-adv-x="829" 
d="M318 1019q-62 31 -41 59q17 28 68 -19q66 -60 150 -124l-5 -8q-99 58 -172 92zM375 759q-46 0 -76 27.5t-31 82.5h34q0 -95 73 -95t73 95h34q-1 -55 -31 -82.5t-76 -27.5zM691 37q11 -17 37 -22t86 -5v-10h-799v10q53 0 74.5 6t31.5 23l243 587l-9 23h-1q-8 20 -19 26.5
t-51 10.5t-135 4v10h262zM498 289l-123 309l-120 -309h243zM359 6q157 0 201.5 8t31.5 40l-88 220h-255l-85 -219h1q-12 -29 10 -38q27 -11 184 -11z" />
    <glyph glyph-name="uni1EB1" unicode="&#x1eb1;" horiz-adv-x="523" 
d="M185 844q-62 31 -41 59q17 28 68 -19q66 -60 150 -124l-5 -8q-99 58 -172 92zM242 584q-46 0 -76 27.5t-31 82.5h34q0 -95 73 -95t73 95h34q-1 -55 -31 -82.5t-76 -27.5zM499 75l9 -10l-113 -74q-14 0 -25.5 17t-11.5 52v52q-26 -53 -72.5 -90t-108.5 -37
q-65 0 -103.5 34.5t-38.5 108.5q0 102 86 141l-65 163q93 95 197 95q180 0 180 -154v-311q1 -13 10 -13q6 0 56 26zM120 304q5 -20 10 -32q40 16 82 13l146 -10v88q0 73 -24.5 112t-87.5 39q-71 0 -109.5 -64t-16.5 -146zM207 20q61 0 106 48.5t45 106.5v73l-102 6
q-34 2 -63 -7.5t-51.5 -40.5t-22.5 -82q0 -49 24.5 -76.5t63.5 -27.5z" />
    <glyph glyph-name="uni1EB2" unicode="&#x1eb2;" horiz-adv-x="829" 
d="M430 1046q0 -46 -27.5 -76t-82.5 -31v34q95 0 95 73t-95 73v34q55 -1 82.5 -31t27.5 -76zM375 759q-46 0 -76 27.5t-31 82.5h34q0 -95 73 -95t73 95h34q-1 -55 -31 -82.5t-76 -27.5zM691 37q11 -17 37 -22t86 -5v-10h-799v10q53 0 74.5 6t31.5 23l243 587l-9 23h-1
q-8 20 -19 26.5t-51 10.5t-135 4v10h262zM498 289l-123 309l-120 -309h243zM359 6q157 0 201.5 8t31.5 40l-88 220h-255l-85 -219h1q-12 -29 10 -38q27 -11 184 -11z" />
    <glyph glyph-name="uni1EB3" unicode="&#x1eb3;" horiz-adv-x="523" 
d="M297 871q0 -46 -27.5 -76t-82.5 -31v34q95 0 95 73t-95 73v34q55 -1 82.5 -31t27.5 -76zM242 584q-46 0 -76 27.5t-31 82.5h34q0 -95 73 -95t73 95h34q-1 -55 -31 -82.5t-76 -27.5zM499 75l9 -10l-113 -74q-14 0 -25.5 17t-11.5 52v52q-26 -53 -72.5 -90t-108.5 -37
q-65 0 -103.5 34.5t-38.5 108.5q0 102 86 141l-65 163q93 95 197 95q180 0 180 -154v-311q1 -13 10 -13q6 0 56 26zM120 304q5 -20 10 -32q40 16 82 13l146 -10v88q0 73 -24.5 112t-87.5 39q-71 0 -109.5 -64t-16.5 -146zM207 20q61 0 106 48.5t45 106.5v73l-102 6
q-34 2 -63 -7.5t-51.5 -40.5t-22.5 -82q0 -49 24.5 -76.5t63.5 -27.5z" />
    <glyph glyph-name="uni1EB4" unicode="&#x1eb4;" horiz-adv-x="829" 
d="M298 982q-61 0 -61 -66h-13q4 117 85 117q37 0 83.5 -32.5t71.5 -32.5q49 0 54 66h12q0 -70 -18 -93.5t-58 -23.5q-27 0 -79 32.5t-77 32.5zM375 774q73 0 73 95h34q-1 -55 -31 -82.5t-76 -27.5t-76 27.5t-31 82.5h34q0 -95 73 -95zM691 37q11 -17 37 -22t86 -5v-10h-799
v10q53 0 74.5 6t31.5 23l243 587l-9 23h-1q-8 20 -19 26.5t-51 10.5t-135 4v10h262zM498 289l-123 309l-120 -309h243zM359 6q157 0 201.5 8t31.5 40l-88 220h-255l-85 -219h1q-12 -29 10 -38q27 -11 184 -11z" />
    <glyph glyph-name="uni1EB5" unicode="&#x1eb5;" horiz-adv-x="523" 
d="M165 807q-61 0 -61 -66h-13q4 117 85 117q37 0 83.5 -32.5t71.5 -32.5q49 0 54 66h12q0 -70 -18 -93.5t-58 -23.5q-27 0 -79 32.5t-77 32.5zM242 599q73 0 73 95h34q-1 -55 -31 -82.5t-76 -27.5t-76 27.5t-31 82.5h34q0 -95 73 -95zM499 75l9 -10l-113 -74
q-14 0 -25.5 17t-11.5 52v52q-26 -53 -72.5 -90t-108.5 -37q-65 0 -103.5 34.5t-38.5 108.5q0 102 86 141l-65 163q93 95 197 95q180 0 180 -154v-311q1 -13 10 -13q6 0 56 26zM120 304q5 -20 10 -32q40 16 82 13l146 -10v88q0 73 -24.5 112t-87.5 39q-71 0 -109.5 -64
t-16.5 -146zM207 20q61 0 106 48.5t45 106.5v73l-102 6q-34 2 -63 -7.5t-51.5 -40.5t-22.5 -82q0 -49 24.5 -76.5t63.5 -27.5z" />
    <glyph glyph-name="uni1EB6" unicode="&#x1eb6;" horiz-adv-x="829" 
d="M375 759q-46 0 -76 27.5t-31 82.5h34q0 -95 73 -95t73 95h34q-1 -55 -31 -82.5t-76 -27.5zM691 37q11 -17 37 -22t86 -5v-10h-799v10q53 0 74.5 6t31.5 23l243 587l-9 23h-1q-8 20 -19 26.5t-51 10.5t-135 4v10h262zM498 289l-123 309l-120 -309h243zM359 6
q157 0 201.5 8t31.5 40l-88 220h-255l-85 -219h1q-12 -29 10 -38q27 -11 184 -11zM405 -98q23 0 39.5 -15t16.5 -36t-16.5 -36t-39.5 -15t-39.5 15t-16.5 36t16.5 36t39.5 15z" />
    <glyph glyph-name="uni1EB7" unicode="&#x1eb7;" horiz-adv-x="523" 
d="M242 584q-46 0 -76 27.5t-31 82.5h34q0 -95 73 -95t73 95h34q-1 -55 -31 -82.5t-76 -27.5zM499 75l9 -10l-113 -74q-14 0 -25.5 17t-11.5 52v52q-26 -53 -72.5 -90t-108.5 -37q-65 0 -103.5 34.5t-38.5 108.5q0 102 86 141l-65 163q93 95 197 95q180 0 180 -154v-311
q1 -13 10 -13q6 0 56 26zM120 304q5 -20 10 -32q40 16 82 13l146 -10v88q0 73 -24.5 112t-87.5 39q-71 0 -109.5 -64t-16.5 -146zM207 20q61 0 106 48.5t45 106.5v73l-102 6q-34 2 -63 -7.5t-51.5 -40.5t-22.5 -82q0 -49 24.5 -76.5t63.5 -27.5zM262 -98q23 0 39.5 -15
t16.5 -36t-16.5 -36t-39.5 -15t-39.5 15t-16.5 36t16.5 36t39.5 15z" />
    <glyph glyph-name="uni1EB8" unicode="&#x1eb8;" 
d="M579 188h8l-37 -188h-535v10q48 0 67 14.5t19 44.5v562q0 30 -19 44.5t-67 14.5v10h525l37 -197h-8q-42 110 -65 145t-63 36l-194 1q-35 -1 -49 -10t-16 -30v-279h174q20 0 31.5 4t21 23.5t9.5 58.5h7v-198h-7q0 58 -16.5 79t-45.5 21h-174l-1 -292q2 -30 15 -40l255 5
q42 1 65.5 30t62.5 131zM284 -98q23 0 39.5 -15t16.5 -36t-16.5 -36t-39.5 -15t-39.5 15t-16.5 36t16.5 36t39.5 15z" />
    <glyph glyph-name="uni1EB9" unicode="&#x1eb9;" horiz-adv-x="508" 
d="M307 -9q-121 -20 -196.5 53.5t-75.5 213.5q0 135 64.5 202.5t168.5 67.5q96 0 146.5 -56.5t54.5 -138.5l-5 -8h-332q-5 -42 -5 -67q0 -114 53.5 -182.5t146.5 -49.5q70 15 106.5 90.5t32.5 186.5h6q12 -282 -165 -312zM134 339h254q16 79 -14.5 129t-105.5 44
q-109 -8 -134 -173zM263 -220q-23 0 -39.5 15t-16.5 36t16.5 36t39.5 15t39.5 -15t16.5 -36t-16.5 -36t-39.5 -15z" />
    </font>
</defs>
</svg>
